<?xml version="1.0" encoding="UTF-8" standalone="no"?>
<!DOCTYPE svg PUBLIC "-//W3C//DTD SVG 1.1//EN" "http://www.w3.org/Graphics/SVG/1.1/DTD/svg11.dtd">
<svg width="100%" height="100%" viewBox="0 0 1920 1920" version="1.1" xmlns="http://www.w3.org/2000/svg" xmlns:xlink="http://www.w3.org/1999/xlink" xml:space="preserve" xmlns:serif="http://www.serif.com/" style="fill-rule:evenodd;clip-rule:evenodd;stroke-linejoin:round;stroke-miterlimit:2;">
    <g id="Background" transform="matrix(1.875,0,0,1.875,0,0)">
        <path d="M0,999.5L0,0C1.386,-1.386 1.777,0 24.5,0L1023.999,0C1025.156,2.148 1023.999,2.338 1023.999,30.5L1023.999,1023.999C1021.851,1025.156 1021.661,1023.999 993.5,1023.999L0,1023.999C-0.929,1022.273 -0,1022.121 0,999.5Z"/>
        <path d="M130.949,432.5C131.053,425.919 131.042,425.965 131.18,425.415C132.369,420.664 133.004,413.686 133.385,412.461C147.871,365.837 166.189,374.856 177.603,341.531C178.174,339.864 177.931,316.263 177.672,315.434C174.3,304.67 176.681,303.663 175.285,299.583C173.639,294.775 173.857,280.55 174.494,278.498C176.442,272.223 175.673,272.143 175.844,271.608C183.985,246.075 198.56,246.814 218.966,207.742C225.618,195.005 220.863,188.683 229.399,172.444C241.322,149.762 265.962,127.769 271.896,122.957C314.222,88.635 336.171,80.011 373.436,70.238C391.685,65.451 391.985,67.114 393.553,66.653C403.055,63.863 410.415,64.997 410.574,64.97C418.202,63.671 418.118,62.893 439.504,63.02C467.238,63.185 467.115,65.507 469.494,65.151C475.971,64.182 479.056,65.316 495.441,67.879C527.63,72.912 558.178,85.521 563.413,87.682C598.003,101.96 613.694,110.114 613.096,94.53C612.627,82.313 627.618,72.106 631.577,73.301C635.019,74.341 635.065,72.461 638.578,73.2C679.78,81.861 795.347,156.722 831.091,217.742C837.004,227.838 840.356,243.643 839.793,246.579C839.309,249.1 840.263,248.965 840.572,251.493C840.698,252.529 841.64,260.236 841.737,264.492C842.362,291.955 839.505,305.109 839.577,305.482C840.846,312.062 837.397,323.256 837.441,323.511C838.557,330.055 836.37,333.996 835.386,337.471C835.119,338.414 836.232,339.673 835.672,341.562C833.074,350.324 833.764,352.112 832.714,356.55C831.414,362.05 823.241,396.61 813.776,424.609C811.169,432.321 809.543,432.978 814.146,439.746C829.088,461.717 829.372,461.48 830.574,463.449C836.224,472.702 890.468,545.296 888.933,568.549C888.073,581.578 831.967,594.87 799.545,600.722C780.016,604.247 780.155,604.766 778.453,605.026C766.451,606.86 766.531,607.209 765.481,607.298C759.809,607.777 762.377,613.182 761.446,615.477C759.302,620.766 762.369,628.507 758.431,640.481C757.857,642.225 759.167,643.796 759.044,645.502C758.968,646.55 758.247,656.557 757.705,658.567C755.539,666.601 757.227,666.737 756.955,669.529C756.51,674.098 756.224,674.012 755.9,678.553C755.61,682.615 754.126,682.423 754.768,686.474C754.849,686.99 750.563,709.794 749.76,712.594C736.869,757.548 721.685,778.415 686.378,787.015C679.115,788.784 679.063,788.171 678.449,788.363C674.53,789.591 674.29,787.024 670.501,788.503C664.355,790.901 660.052,789.949 657.491,790.455C651.993,791.539 651.206,788.477 647.726,791.733C645.792,793.542 648.206,869.362 645.876,875.674C643.949,880.894 646.467,880.982 645.943,886.548C644.372,903.196 643.092,903.109 643.473,904.509C644.146,906.986 643.378,906.903 643.104,909.444C642.283,917.052 641.562,916.847 641.521,917.503C641.393,919.592 640.481,934.393 627.568,939.633C615.24,944.637 615.152,944.16 602.413,948.06C597.319,949.619 553.933,957.08 546.493,957.155C533.377,957.286 528.493,960.89 519.444,958.715C517.572,958.265 517.778,961.269 495.498,961.05C486.392,960.96 484.688,962.6 481.483,961.558C474.244,959.204 470.256,962.69 433.467,961.962C432.436,961.942 430.071,961.014 429.478,960.99C417.629,960.524 417.597,960.467 416.642,960.845C410.819,963.145 408.325,961.104 405.51,961.015C381.471,960.256 381.598,958.49 379.549,958.869C370.768,960.491 358.683,956.694 357.513,956.807C352.463,957.295 352.552,956.597 347.544,956.12C340.906,955.488 341.075,954.595 340.5,954.638C339.46,954.714 332.207,955.25 327.519,953.455C323.462,951.901 323.265,953.293 317.582,952.135C304.633,949.497 304.539,950.135 303.416,949.9C296.959,948.548 296.966,948.877 296.421,948.72C289.768,946.805 289.729,947.372 283.423,945.944C281.98,945.617 266.53,942.117 265.406,941.757C261.563,940.527 251.714,937.868 250.964,930.429C249.3,913.916 250.706,913.919 250.827,910.518C251.362,895.541 253,895.697 252.697,894.438C251.5,889.466 254.478,881.682 254.534,881.511C255.172,879.553 254.04,879.54 254.494,877.498C255.805,871.6 262.149,839.848 262.803,836.572C265.216,824.498 264.989,824.476 265.198,823.428C271.441,792.203 270.505,792.066 271.298,789.419C272.017,787.019 271.117,787.038 271.449,784.498C273.497,768.802 272.879,768.726 273.303,767.419C275.461,760.762 274.185,753.645 273.974,752.466C272.348,743.391 272.681,736.497 269.359,724.542C267.999,719.649 261.71,697.017 241.493,667.505C233.537,655.89 184.348,584.084 154.709,514.408C132.605,462.446 131.326,439.312 130.949,432.5Z" style="fill:rgb(255,74,23);"/>
        <path d="M381.051,884.5C380.951,882.724 380.088,867.349 376.14,862.819C360.656,845.053 348.782,895.214 347.577,898.534C343.036,911.051 343.422,895.861 339.673,889.394C333.176,878.184 329.08,880.013 324.486,879.619C316.449,878.93 309.516,900.978 309.278,901.337C305.9,906.43 306.87,898.425 306.572,897.471C305.456,893.902 306.244,893.894 305.95,888.455C305.683,883.52 307.763,883.632 306.747,879.445C305.288,873.431 307.631,873.588 308.017,867.49C308.488,860.041 309.029,860.091 308.937,859.45C308.344,855.353 309.553,855.533 310.084,851.429C310.291,849.821 312.19,835.13 313.154,831.39C315.734,821.377 315.034,821.272 315.312,820.422C315.673,819.315 316.601,816.478 319.087,806.366C327.275,773.063 334.749,777.85 337.512,778.042C346.894,778.694 360.404,768.709 355.792,755.389C354.73,752.324 357.069,751.396 345.209,729.663C322.369,687.811 273.268,637.423 276.161,614.428C276.456,612.078 290.623,599.945 288.16,591.608C285.622,583.019 279.186,585.661 278.511,585.71C272.868,586.117 272.775,584.67 267.401,586.259C265.412,586.847 248.412,591.872 241.965,581.221C232.958,566.341 257.136,555.13 257.706,543.519C258.566,526.004 228.51,537.635 225.461,538.374C222.355,539.126 216.274,533.731 216.521,531.501C217.221,525.173 216.518,525.121 216.738,524.616C217.847,522.074 217.924,522.187 218.757,519.578C223.075,506.058 236.69,504.934 237.138,495.471C237.651,484.619 229.478,483.698 223.587,482.155C215.144,479.944 210.484,484.762 201.395,481.96C200.11,481.564 192.071,479.085 191.27,468.532C190.865,463.192 188.741,459.643 189.142,455.474C189.426,452.526 187.098,429.163 186.598,427.467C184.766,421.247 187.682,418.96 188.026,415.464C190.033,395.095 214.12,395.637 230.574,386.627C255.215,373.135 241.633,362.213 240.516,355.496C239.145,347.249 231.33,323.549 228.939,294.439C228.307,286.743 224.657,286.561 228.7,275.581C233.253,263.217 239.06,270.504 245.38,267.272C269.346,255.013 260.642,223.186 274.715,211.784C281.398,206.369 295.722,218.974 305.381,212.309C320.302,202.013 284.566,179.25 289.801,171.72C302.516,153.432 308.638,155.046 326.917,171.029C347.316,188.865 357.037,184.242 358.021,177.467C360.213,162.37 324.286,136.359 334.498,135.476C361.832,133.112 373.383,148.152 386.185,156.909C408.602,172.244 416.792,155.679 405.794,136.326C397.047,120.934 397.346,120.784 396.478,119.514C393.646,115.368 402.519,113.801 403.634,114.191C404.155,114.373 407.441,115.523 410.529,114.575C412.689,113.911 412.656,114.637 417.563,116.349C430.29,120.79 430.644,128.201 435.19,134.762C450.607,157.012 462.542,137.774 462.246,132.502C460.942,109.236 482.065,116.805 486.477,116.889C491.23,116.98 491.022,117.843 495.579,119.014C513.534,123.627 532.487,132.551 535.395,133.754C557.479,142.888 626.263,176.935 628.512,176.803C632.121,176.591 661.951,133.128 663.551,132.604C665.728,131.891 690.797,152.871 709.179,165.873C742.789,189.647 764.962,213.969 769.274,218.7C789.841,241.26 796.507,266.424 796.443,267.501C795.973,275.454 798.337,276.75 793.285,280.191C775.844,292.069 768.537,285.524 751.192,299.03C744.853,303.966 746.05,310.163 747.765,312.271C756.544,323.065 775.313,319.925 776.395,320.731C779.292,322.889 771.922,323.086 771.486,323.098C756.271,323.505 744.263,334.209 746.215,340.589C751.024,356.302 780.271,344.485 780.05,355.508C779.874,364.296 778.548,365.595 777.921,367.623C761.005,422.362 759.161,422.313 760.574,429.483C761.899,436.205 756.635,437.475 765.584,454.448C774.674,471.686 819.416,532.475 816.671,540.57C814.864,545.9 785.346,553.826 780.566,554.834C771.176,556.813 771.298,557.262 770.475,557.387C767.436,557.85 767.465,557.362 764.424,558.069C750.118,561.393 721.546,565.425 720.455,567.47C718.682,570.796 719.987,574.852 719.829,575.569C715.828,593.76 718.166,594.038 717.658,595.565C715.188,602.988 716.954,603.335 715.284,608.419C714.274,611.494 716.44,612.165 715.627,614.555C713.067,622.072 713.896,624.273 713.65,626.515C712.948,632.898 713.591,632.938 713.402,633.461C709.886,643.179 712.315,643.542 710.337,654.467C707.878,668.049 709.673,668.256 709.198,669.351C706.525,675.518 708.266,675.901 705.707,688.536C703.136,701.227 704.014,701.417 699.651,713.568C687.098,748.529 660.938,740.669 649.407,745.288C644.173,747.383 641.224,743.075 631.579,745.807C631.252,745.9 566.923,745.324 563.416,746.242C555.727,748.256 551.84,747.16 551.42,747.279C543.07,749.655 525.334,748.891 532.074,778.582C533.208,783.575 541.726,788.655 544.48,788.798C547.614,788.961 547.4,789.699 550.552,790.001C555.492,790.473 570.351,790.271 570.475,790.251C574.028,789.696 573.91,791.185 577.556,790.921C589.353,790.065 590.834,806.002 591.3,807.583C593.151,813.866 589.254,814.281 591.688,820.423C592.858,823.375 592.403,823.424 591.968,826.522C591.929,826.794 592.041,851.459 592.054,851.548C592.895,857.3 590.2,859.114 591.68,863.429C592.634,866.209 589.19,879.464 589.214,881.497C589.251,884.671 588.636,884.49 587.994,887.569C582.061,916.02 570.628,882.666 569.45,880.528C557.857,859.484 544.281,871.763 544.642,877.498C545.027,883.613 543.487,883.691 545.294,889.571C547.812,897.767 547.124,897.855 547.343,898.559C549.073,904.101 544.64,912.375 540.781,909.165C528.166,898.669 534.378,893.475 521.8,883.174C520.73,882.298 511.129,874.434 504.529,882.523C499.376,888.836 500.417,889.411 500.148,897.56C500.03,901.165 493.035,906.473 488.467,907.077C474.171,908.968 473.236,911.651 467.531,909.427C466.458,909.008 455.1,908.879 453.506,909.514C448.416,911.543 443.73,908.367 439.473,907.988C438.823,907.93 433.301,907.438 431.436,906.627C421.538,902.32 422.199,900.836 422.046,895.496C421.607,880.162 407.277,873.64 400.92,883.765C394.716,893.647 399.276,899.18 395.066,905.2C389.405,913.295 380.535,908.64 381.051,884.5Z"/>
        <path d="M534.05,601.499C533.387,607.053 533.673,607.048 532.37,612.457C531.716,615.172 535.024,616.154 528.429,631.467C522.359,645.56 480.303,665.461 467.527,663.025C454.228,660.491 421.528,646.131 413.628,631.426C413.078,630.403 411.565,627.586 409.201,617.593C407.293,609.531 408.435,605.58 408.724,604.579C408.946,603.81 408.676,595.135 408.028,593.726C405.866,589.025 410.347,567.607 399.621,531.467C389.508,497.394 378.309,498.575 350.019,428.717C339.681,403.19 339.874,383.519 339.914,379.5C340.146,355.879 354.095,316.443 374.552,295.551C397.487,272.128 414.394,268.056 433.431,261.274C437.826,259.708 474.363,251.211 493.467,256.596C494.089,256.771 544.216,258.618 575.648,309.417C605.552,357.745 590.558,416.994 565.927,452.836C551.002,474.555 542.822,484.702 538.846,504.563C538.089,508.348 537.24,510.768 537.056,511.294C536.599,512.597 537.637,512.714 535.32,528.464C534.947,531 533.011,531.261 534.696,536.419C536.219,541.079 533.401,546.956 534.171,552.564C534.312,553.587 534.49,589.999 534.05,601.499Z" style="fill:rgb(255,74,23);"/>
        <path d="M450.953,506.501C452.412,524.509 452.401,524.467 452.051,542.493C451.904,550.102 450.222,559.734 447.547,559.122C440.494,557.506 429.369,514.585 417.052,493.779C404.65,472.827 404.558,472.991 391.075,452.778C375.346,429.195 374.836,416.206 370.341,402.548C369.955,401.374 371.327,400.021 370.598,397.468C369.212,392.615 370.647,379.116 370.816,377.53C370.921,376.536 370.164,374.265 370.417,373.475C373.614,363.508 372.45,363.226 376.484,353.493C380.054,344.878 384.448,331.638 410.759,307.788C413.777,305.051 429.872,292.905 441.541,291.856C443.925,291.642 449.726,289.567 450.422,289.319C452.738,288.49 453.764,290.175 456.524,289.638C467.049,287.589 495.943,289.549 496.419,289.698C504.423,292.2 523.855,292.508 543.371,310.632C547.884,314.823 552.958,324.14 553.646,325.404C567.4,350.656 559.116,390.717 549.523,414.509C539.891,438.395 540.481,438.601 536.65,444.598C535.629,446.197 537.098,446.899 525.811,465.693C522.853,470.619 507.396,506.9 506.25,511.427C501.91,528.574 498.868,528.679 500.36,543.505C500.443,544.331 500.035,544.174 497.677,553.539C496.052,559.992 490.65,564.234 488.222,557.609C486.744,553.578 486.085,553.775 485.922,549.49C485.732,544.506 482.239,541.601 483.801,535.581C484.245,533.87 482.868,533.88 482.871,513.5C482.874,490.242 482.976,490.309 483.771,486.578C484.828,481.614 482.584,481.534 483.763,476.601C486.259,466.157 485.576,461.804 485.376,460.527C485.097,458.751 486.518,458.962 489.988,438.528C491.094,432.012 494.801,425.488 495.398,424.438C497.351,420.999 508.532,414.387 513.485,395.496C514.247,392.589 512.806,392.494 513.703,389.58C513.918,388.883 513.169,382.668 513.164,382.658C503.415,361.278 466.509,411.117 456.573,411.914C441.839,413.096 447.413,400.847 424.393,390.736C403.75,381.67 393.382,390.611 399.072,400.751C411.008,422.024 436.006,426.992 444.362,459.541C445.392,463.552 446.299,463.324 446.335,467.502C446.347,468.876 447.615,468.633 448.968,484.478C449.53,491.057 451.673,494.087 450.869,499.537C450.817,499.889 450.941,505.944 450.953,506.501Z"/>
        <path d="M673.953,432.5C673.98,432.173 674.288,428.416 674.288,428.416C675.932,423.157 672.721,406.049 690.468,398.428C702.468,393.274 710.631,411.623 711.472,413.513C724.105,441.908 701.825,472.321 688.418,468.848C675.534,465.511 674.778,446.847 673.953,432.5Z" style="fill:rgb(255,74,23);"/>
        <path d="M497.948,604.517C497.221,622.245 489.108,624.388 476.546,628.681C475.788,628.941 475.776,626.683 466.525,628.582C466.455,628.597 456.168,625.76 454.395,624.663C442.773,617.47 445.955,609.433 443.258,601.614C441.674,597.024 442.636,596.997 444.351,592.431C444.717,591.456 445.707,588.82 455.569,585.814C456.095,585.654 456.158,586.875 462.427,585.301C463.673,584.988 463.635,587.014 478.477,585.334C479.036,585.271 478.901,586.224 485.509,585.645C485.915,585.61 485.808,586.078 490.421,586.99C491.14,587.131 496.763,588.242 497.78,592.432C499.237,598.432 499.189,598.461 497.948,604.517Z"/>
        <path d="M534.959,240.501C535.181,238.773 536.418,229.172 543.404,220.426C567.256,190.566 597.123,201.798 581.149,225.244C574.875,234.453 560.776,244.466 552.549,246.67C536.166,251.059 535.128,241.983 534.959,240.501Z" style="fill:rgb(255,74,23);"/>
        <path d="M381.045,266.501C379.428,278.051 362.386,285.371 343.221,268.803C322.29,250.709 329.47,237.961 342.481,238.965C355.518,239.97 378.85,252.801 381.045,266.501Z" style="fill:rgb(255,74,23);"/>
        <path d="M330.509,418.939C331.494,418.992 332.483,418.836 333.469,418.889C338.002,419.134 341.142,427.207 339.797,431.579C334.92,447.43 321.06,453.075 318.583,454.631C300.005,466.3 274.481,450.967 298.777,433.916C317.825,420.547 321.949,418.764 330.509,418.939Z" style="fill:rgb(255,74,23);"/>
        <path d="M612.5,417.952C640.518,419.864 643.821,430.894 645.342,438.537C650.825,466.084 585.793,442.412 592.475,426.488C595.693,418.821 609.313,418.315 612.5,417.952Z" style="fill:rgb(255,74,23);"/>
        <path d="M591.951,308.501C592.748,303.193 593.306,302.067 598.601,296.599C605.672,289.297 623.745,286.324 624.502,286.493C627.634,287.195 636.981,283.854 642.512,289.488C651.086,298.219 637.175,308.853 635.81,309.897C628.277,315.654 612.169,318.256 609.455,317.944C604.456,317.37 592.817,319.232 591.951,308.501Z" style="fill:rgb(255,74,23);"/>
        <path d="M462.047,231.5C460.631,260.027 434.449,244.525 430.006,216.555C429.521,213.503 428.714,213.498 429.764,210.619C431.393,206.15 426.776,201.518 432.749,195.763C437.923,190.778 458.436,195.53 462.047,231.5Z" style="fill:rgb(255,74,23);"/>
        <path d="M284.945,321.499C284.983,320.601 285.275,313.675 287.602,310.576C291.481,305.411 292.138,305.931 298.514,305.804C304.55,305.684 318.454,320.699 320.05,322.879C350.316,364.223 286.196,348.419 284.945,321.499Z" style="fill:rgb(255,74,23);"/>
        <path d="M578.5,637.051C559.775,635.515 562.546,626.979 562.077,622.537C560.697,609.444 589.935,590.496 594.566,612.485C594.863,613.897 599.16,619.623 592.153,630.268C588.235,636.22 579.715,636.947 578.5,637.051Z" style="fill:rgb(255,74,23);"/>
        <path d="M604.508,664.06C606.118,664.195 608.953,665.256 613.431,664.269C614.232,664.092 625.65,665.328 624.457,675.492C623.005,687.866 605.459,697.808 594.896,679.259C593.227,676.328 591.167,666.931 604.508,664.06Z" style="fill:rgb(255,74,23);"/>
        <path d="M644.95,571.5C646.725,559.903 657.978,562.22 662.545,562.082C663.747,562.046 674.497,561.722 675.629,569.488C675.699,569.967 676.282,573.969 675.643,575.544C668.611,592.85 646.021,588.826 644.95,571.5Z" style="fill:rgb(255,74,23);"/>
        <path d="M778.434,321.434C782.848,317.647 789.314,320.855 785.613,321.679C784.424,321.944 779.707,322.493 779.497,322.454C779.014,322.364 778.917,321.524 778.434,321.434Z" style="fill:rgb(255,74,23);"/>
    </g>
</svg>
