<?xml version="1.0" encoding="UTF-8"?>
<svg id="Layer_1" data-name="Layer 1" xmlns="http://www.w3.org/2000/svg" viewBox="0 0 1024 1024">
  <defs>
    <style>
      .cls-1 {
        fill: #150601;
      }

      .cls-2 {
        fill: #010000;
      }

      .cls-3 {
        fill: #f55803;
      }
    </style>
  </defs>
  <path d="M1023.91,512.5c0,168.97-.01,337.94,.09,506.91,0,3.75-.84,4.59-4.59,4.59-338.27-.1-676.54-.1-1014.81,0-3.75,0-4.59-.84-4.59-4.59C.1,681.14,.1,342.86,0,4.59,0,.84,.84,0,4.59,0c338.27,.1,676.54,.1,1014.81,0,3.75,0,4.6,.84,4.59,4.59-.11,169.3-.09,338.6-.09,507.91Zm-235.55,174.7c18.02-13.88,21.55-30.04,14.28-49.71-6.51-17.61-11.7-35.7-17.7-53.49-1.14-3.37-.49-5.43,1.96-7.81,14.11-13.68,27.87-27.72,42.15-41.22,20.99-19.84,19.56-43.74-.34-60.92-14.24-12.29-27.61-25.57-41.51-38.26-3.12-2.85-4.14-5.29-2.74-9.73,5.97-18.86,11.37-37.89,16.98-56.86,7.12-24.06-5.12-44.27-29.85-49.21-18.59-3.72-37.16-7.59-55.82-10.95-5.99-1.08-8.56-3.83-9.92-9.73-4.47-19.44-9.33-38.8-14.49-58.07-5.48-20.48-25.66-31.24-45.73-24.82-19.32,6.18-38.67,12.27-57.94,18.62-4.53,1.5-7.71,.85-11.08-2.7-13.87-14.62-27.94-29.06-42.07-43.44-17.32-17.63-38.64-17.44-55.48,.64-14.08,15.11-27.91,30.45-41.72,45.81-3.11,3.46-6.14,4.84-10.9,3.3-18.35-5.92-36.83-11.47-55.24-17.2-23.29-7.25-42.9,3.96-48.32,27.94-4.44,19.63-8.66,39.31-12.74,59.02-.87,4.19-2.76,6.18-6.99,7.07-12.52,2.66-24.95,5.76-37.43,8.65-6.16,1.43-12.34,2.75-18.49,4.18-26.38,6.14-38.69,28.41-29.77,54.07,6.34,18.22,12.8,36.39,19.43,54.5,1.28,3.51,.71,5.65-1.94,8.23-14.79,14.42-29.52,28.91-44.01,43.64-15,15.26-14.78,36.2,.56,51.1,15.65,15.21,31.58,30.12,47.43,45.12,2.01,1.9,3.44,3.42,2.49,6.77-4.41,15.51-8.47,31.12-12.57,46.72-.71,2.71-1.99,4.01-4.93,4.57-33.36,6.35-65.21,17.28-95.71,32.16-9.39,4.58-13.28,14.31-9.15,22.8,4.16,8.56,14.19,11.57,23.58,6.79,26.24-13.34,53.71-23.17,82.48-29.35,29.54-6.34,59.34-8.94,89.29-3.82,31.37,5.37,59.72,18.25,85.22,37.17,14.99,11.12,31.5,18.74,49.67,22.3,23.99,4.7,48.18,8.36,72.19,13,14.86,2.87,29.61,6.47,42.75,14.56,5.87,3.62,10.13,8.6,12.41,15.14,3.22,9.24,.41,15.54-8.66,19.22-8.12,3.3-16.69,4.54-25.36,4.88-23.61,.94-46.85-2.27-69.96-6.62-21.29-4.01-41.92-10.51-62.68-16.54-10.25-2.98-18.44,1.32-21.19,10.83-2.62,9.06,2.21,17.15,12.12,20.26,38.38,12.06,77.45,20.84,117.65,23.74,17.64,1.27,35.35,1.32,52.56-3.76,19.38-5.72,35.09-16.3,37.98-37.69,1.24-9.19,5.04-11.44,12.61-13.68,46.1-13.61,91.21-30.27,136.96-44.98,16.94-5.45,33.84-11.16,51.67-13.06,8.9-.95,17.7-.5,25.55,4.52,4.65,2.98,5.33,6.86,2.42,11.55-2.04,3.29-4.81,5.95-7.66,8.52-10.32,9.32-22.09,16.6-33.95,23.66-46.8,27.86-95.48,52.19-144.3,76.24-36.86,18.16-73.61,36.6-112.34,50.58-14.5,5.23-28.97,10.89-45.02,9.44-13.42-1.22-26.91-1.6-40.35-2.79-49.65-4.41-98.68-12.72-147.45-22.76-56.23-11.58-111.75-26.05-167.05-41.4-2.57-.71-5.14-1.37-7.84-1.35-8.67,.04-15.04,5.5-16.19,13.92-1.07,7.84,3.85,15.01,11.93,17.28,5.76,1.62,11.56,3.1,17.32,4.72,62.47,17.55,125.42,33.03,189.28,44.73,48.67,8.92,97.61,15.52,146.92,19.66,21.12,1.77,41.39,.06,61.22-7.8,13.91-5.51,28.02-10.54,41.71-16.62,58.72-26.08,116.32-54.47,172.98-84.75,29.66-15.85,59.31-31.73,86.37-51.91,11.78-8.78,22.02-18.69,26.9-33.19,5.75-17.08-.68-35.37-16.13-44.63-14.27-8.55-29.79-11.11-46.11-9.57-6.27,.59-12.5,1.66-20.24,2.72ZM489.58,128.17s.09,0,.13,0c0,8-.25,16,.07,23.98,.36,9.1,7.83,16.04,16.6,15.96,9.26-.08,16.35-6.99,16.45-16.53,.16-15.32,.15-30.65-.01-45.98-.11-10.41-7.38-17.77-17.04-17.71-9.46,.06-16.01,7.17-16.18,17.78-.12,7.49-.02,14.99-.02,22.49Zm402.31,357.74c-7.65,0-15.3-.03-22.95,0-10.08,.06-16.49,6.51-16.5,16.53,0,9.17,7.09,16.48,16.39,16.54,15.3,.1,30.6,.09,45.89-.02,9.48-.07,16.35-7.41,16.29-17.11-.06-9.09-6.88-15.87-16.18-15.95-7.65-.07-15.3-.01-22.95,0Zm-167.83-327.3c.04-7.87-4.43-14.17-11.28-16.34-7.21-2.29-15.03,.45-19.08,7.14-7.74,12.79-15.34,25.67-22.86,38.6-4.99,8.57-2.73,18.45,5.05,23.18,8.26,5.01,17.69,2.55,23.13-6.37,7.61-12.48,15-25.11,22.47-37.68,1.64-2.75,2.87-5.64,2.57-8.52ZM129.78,530.48v-.03c6.98,0,13.96,.04,20.95,0,10.31-.07,17.45-7.08,17.4-17.02-.05-9.66-7.07-16.31-17.44-16.36-13.8-.06-27.6-.03-41.39,0-10.62,.01-17.35,6.24-17.51,16.15-.17,10.36,6.69,17.15,17.56,17.26,6.82,.07,13.63,.01,20.45,.01ZM345.06,200.99c.25-2.57-.91-5.36-2.45-7.93-7.76-12.98-15.49-25.97-23.48-38.81-4.93-7.92-14.2-10.21-21.64-5.78-7.83,4.67-10.72,14.51-6.31,22.54,3.2,5.82,6.78,11.44,10.24,17.11,4.68,7.66,9.18,15.44,14.19,22.87,4.13,6.13,11.74,8.24,18.59,5.9,6.14-2.09,10.84-8.72,10.86-15.88Zm527.99,100.21c.23-12.64-12.25-20.86-23.67-14.91-13.55,7.07-26.7,14.9-39.88,22.65-7.93,4.66-10.5,14.46-6.25,22.1,4.26,7.64,13.87,10.46,22.13,5.92,13.4-7.37,26.61-15.08,39.84-22.76,4.91-2.85,7.78-7.14,7.83-13.01ZM151.66,609c.07,11.21,9.79,19.04,20.56,16.17,13.3-3.55,26.54-7.34,39.73-11.28,8.72-2.6,13.6-11.14,11.51-19.38-2.37-9.37-10.67-14.85-20.08-12.48-13.51,3.4-26.93,7.18-40.28,11.15-7.15,2.13-11.48,8.63-11.44,15.82Zm-6.76-296.97c-.18,6.26,2.59,10.91,7.93,13.98,12.25,7.05,24.47,14.14,36.85,20.95,9.02,4.96,17.89,2.4,22.71-6.1,4.23-7.47,1.74-16.52-6.43-21.48-12.22-7.43-24.53-14.71-37.01-21.69-11.06-6.18-23.95,1.68-24.05,14.34Zm670.81,254.54c-5.15-.15-8.95,1.15-12.13,4.2-9.45,9.06-6,24.3,6.79,28.35,12.65,4.01,25.52,7.34,38.3,10.92,2.23,.62,4.49,.96,6.88,.44,7.35-1.6,12.94-8.51,13.32-16.68,.31-6.51-4.7-13.51-11.71-15.7-7.44-2.33-15-4.28-22.52-6.39-6.54-1.83-12.96-4.18-18.93-5.14Zm-61.29-326.94c-4.61-.15-8.52,1.49-11.71,4.73-9.12,9.25-18.32,18.42-27.23,27.87-5.96,6.32-5.67,15.95,.16,22.21,6.14,6.59,15.9,7.77,22.4,1.63,10.16-9.59,19.9-19.66,29.36-29.95,4.53-4.93,4.89-11.21,1.84-17.28-3.03-6.01-8.03-9.15-14.82-9.21Zm-355.52-68.57c0,.83-.18,1.71,.03,2.49,3.77,14.12,7.18,28.35,11.54,42.28,2.39,7.64,11.3,11.34,18.83,9.16,7.52-2.18,13.33-10.43,11.55-18.18-3.24-14.07-6.91-28.07-11.15-41.88-2.4-7.8-10.48-11.48-18.56-9.86-7.31,1.47-12.28,7.93-12.23,15.99Zm-95.93,120.5c0-5-2.01-8.78-5.11-11.95-9.09-9.26-18.17-18.54-27.46-27.6-6.15-6-15.6-6.07-21.74-.59-6.26,5.59-7.76,15.83-2.05,22.08,9.63,10.56,19.84,20.62,30.2,30.47,4.7,4.47,10.77,5.06,16.73,2.04,6.03-3.05,8.84-8.27,9.43-14.45Zm511.21,145.68c13.14-3.37,28.54-6.27,42.96-12.32,6.99-2.93,9.58-12.15,6.94-19.4-2.73-7.48-9.78-12.15-17.77-10.33-13.43,3.06-26.77,6.64-39.95,10.65-7.23,2.2-11.6,10.97-10.21,18.1,1.49,7.63,8.17,13.2,18.03,13.29Zm-217.8-285.29c-7.2-.04-13.38,4.25-15.21,11.32-3.34,12.86-6.52,25.78-9.35,38.76-2.1,9.63,3.11,17.69,12.11,19.79,8.3,1.94,16.58-3.67,18.97-12.89,1.34-5.14,2.79-10.26,3.93-15.45,1.73-7.95,4.69-15.64,5.47-23.79,.94-9.74-6.33-17.69-15.92-17.75ZM207.49,448.15c8.35,.02,14.43-5.39,15.95-13.9,1.38-7.76-3.07-15.66-10.83-17.96-12.41-3.68-24.9-7.12-37.46-10.24-8.9-2.21-16.92,2.81-19.23,11.37-2.36,8.74,1.78,16.96,10.58,19.72,10.45,3.27,21.06,6.02,31.61,8.96,3.19,.89,6.28,2.25,9.37,2.06Z"/>
  <path class="cls-3" d="M788.35,687.2c7.75-1.06,13.97-2.13,20.24-2.72,16.32-1.54,31.85,1.02,46.11,9.57,15.45,9.26,21.88,27.54,16.13,44.63-4.88,14.49-15.12,24.4-26.9,33.19-27.06,20.18-56.72,36.06-86.37,51.91-56.66,30.28-114.26,58.67-172.98,84.75-13.68,6.08-27.79,11.11-41.71,16.62-19.83,7.85-40.1,9.57-61.22,7.8-49.31-4.14-98.25-10.74-146.92-19.66-63.86-11.7-126.81-27.18-189.28-44.73-5.76-1.62-11.56-3.1-17.32-4.72-8.08-2.27-13-9.45-11.93-17.28,1.15-8.42,7.51-13.88,16.19-13.92,2.7-.01,5.27,.64,7.84,1.35,55.3,15.35,110.82,29.82,167.05,41.4,48.77,10.04,97.8,18.35,147.45,22.76,13.44,1.19,26.93,1.57,40.35,2.79,16.05,1.46,30.52-4.2,45.02-9.44,38.73-13.98,75.48-32.42,112.34-50.58,48.82-24.05,97.5-48.37,144.3-76.24,11.86-7.06,23.64-14.34,33.95-23.66,2.85-2.57,5.61-5.23,7.66-8.52,2.91-4.69,2.23-8.57-2.42-11.55-7.84-5.02-16.64-5.47-25.55-4.52-17.83,1.89-34.73,7.61-51.67,13.06-45.75,14.71-90.86,31.37-136.96,44.98-7.58,2.24-11.37,4.49-12.61,13.68-2.89,21.39-18.6,31.97-37.98,37.69-17.2,5.08-34.92,5.03-52.56,3.76-40.2-2.9-79.27-11.68-117.65-23.74-9.91-3.11-14.74-11.2-12.12-20.26,2.75-9.51,10.94-13.8,21.19-10.83,20.76,6.03,41.4,12.53,62.68,16.54,23.11,4.35,46.35,7.56,69.96,6.62,8.68-.35,17.25-1.59,25.36-4.88,9.08-3.69,11.89-9.99,8.66-19.22-2.28-6.55-6.54-11.52-12.41-15.14-13.14-8.1-27.89-11.7-42.75-14.56-24-4.63-48.2-8.3-72.19-13-18.17-3.56-34.68-11.18-49.67-22.3-25.5-18.92-53.85-31.8-85.22-37.17-29.95-5.12-59.75-2.52-89.29,3.82-28.77,6.18-56.25,16.01-82.48,29.35-9.4,4.78-19.43,1.76-23.58-6.79-4.13-8.5-.23-18.23,9.15-22.8,30.5-14.88,62.35-25.81,95.71-32.16,2.94-.56,4.22-1.85,4.93-4.57,4.09-15.6,8.15-31.21,12.57-46.72,.95-3.35-.48-4.87-2.49-6.77-15.85-15-31.78-29.92-47.43-45.12-15.34-14.9-15.56-35.84-.56-51.1,14.48-14.73,29.22-29.22,44.01-43.64,2.65-2.59,3.22-4.73,1.94-8.23-6.63-18.11-13.1-36.28-19.43-54.5-8.92-25.66,3.39-47.92,29.77-54.07,6.15-1.43,12.33-2.75,18.49-4.18,12.47-2.89,24.9-5.99,37.43-8.65,4.23-.9,6.12-2.88,6.99-7.07,4.08-19.71,8.31-39.39,12.74-59.02,5.42-23.98,25.02-35.19,48.32-27.94,18.41,5.73,36.89,11.28,55.24,17.2,4.76,1.53,7.78,.16,10.9-3.3,13.81-15.36,27.64-30.7,41.72-45.81,16.84-18.08,38.16-18.27,55.48-.64,14.13,14.38,28.19,28.82,42.07,43.44,3.37,3.55,6.55,4.19,11.08,2.7,19.26-6.36,38.61-12.45,57.94-18.62,20.07-6.42,40.25,4.34,45.73,24.82,5.16,19.27,10.02,38.63,14.49,58.07,1.36,5.9,3.93,8.65,9.92,9.73,18.66,3.36,37.23,7.23,55.82,10.95,24.72,4.94,36.96,25.15,29.85,49.21-5.61,18.97-11.02,38-16.98,56.86-1.4,4.43-.39,6.87,2.74,9.73,13.9,12.69,27.27,25.98,41.51,38.26,19.9,17.18,21.33,41.08,.34,60.92-14.28,13.5-28.04,27.54-42.15,41.22-2.45,2.38-3.1,4.44-1.96,7.81,6.01,17.8,11.19,35.89,17.7,53.49,7.27,19.67,3.74,35.82-14.28,49.71ZM359.58,252.01c-2.96,.06-4.19,1.76-4.87,4.86-4.39,20.32-8.97,40.59-13.53,60.88-3.58,15.91-13.58,25.54-29.26,29.3-19.57,4.69-39.2,9.14-58.78,13.78-6.62,1.57-7.35,3.14-5.11,9.42,6.87,19.26,14.13,38.39,20.42,57.84,4.39,13.58,1.74,26.35-8.07,37.19-13.76,15.21-28.67,29.27-43.24,43.67-5.13,5.07-5.14,5.2-.02,10.02,15.39,14.51,30.83,28.99,46.04,43.69,9.58,9.26,13.18,20.67,10.09,33.74-2.91,12.29-6.03,24.54-9.54,36.67-1.32,4.57-.24,5.31,4.09,5.02,20.19-1.38,40.34-.39,60.18,3.5,33.85,6.65,64.61,20.48,91.78,41.86,11.14,8.77,23.75,13.82,37.5,16.57,26.92,5.37,54.21,8.72,80.99,14.83,22.9,5.22,44.61,12.62,60.01,31.89,1.37,1.71,2.76,1.21,4.43,.66,24.3-8.07,48.6-16.16,72.96-24.06,2.88-.93,3.51-2.35,3.26-5.05-.37-4.15-.31-8.34,.57-12.44,4.21-19.58,17.23-30.57,35.71-35.75,16.7-4.68,33.95-6.63,51.07-9.08,8.03-1.15,8.85-2.29,6.34-9.88-6.69-20.2-13.77-40.28-19.87-60.65-3.93-13.13-1.15-25.28,8.78-35.47,14.88-15.27,29.85-30.46,45.54-44.91,5.99-5.51,5.95-5.48,.14-10.88-14.75-13.73-29.46-27.52-44.2-41.26-11.55-10.76-14.53-23.74-10.17-38.68,5.63-19.32,11.23-38.64,16.81-57.97,2.03-7.02,1.31-8.28-6.06-9.74-19.58-3.89-39.21-7.54-58.76-11.57-15.3-3.16-25.03-12.61-28.96-27.69-5.07-19.47-9.88-39.01-14.75-58.53-1.69-6.78-2.33-7.22-8.83-5.13-18.2,5.86-36.43,11.63-54.6,17.61-16.6,5.46-31.01,2.58-43.39-10.17-13.58-13.98-27.44-27.7-41.21-41.49-5.26-5.27-6.71-5.27-11.7,.15-13.32,14.46-26.63,28.92-39.83,43.48-11.72,12.92-25.89,16.83-42.51,11.87-14.97-4.47-29.91-9.08-44.86-13.63-4.77-1.45-9.54-2.91-14.6-4.45Zm352.09,459.19c14.2-4.9,27.89-9.63,41.58-14.35-12.06,.2-23.72,1.79-34.67,6.63-3.17,1.4-6.16,3.13-6.91,7.73Z"/>
  <path class="cls-3" d="M489.58,128.17c0-7.5-.1-14.99,.02-22.49,.17-10.6,6.72-17.72,16.18-17.78,9.66-.06,16.93,7.3,17.04,17.71,.16,15.32,.17,30.65,.01,45.98-.1,9.54-7.2,16.45-16.45,16.53-8.77,.07-16.25-6.86-16.6-15.96-.31-7.98-.07-15.99-.07-23.98-.04,0-.09,0-.13,0Z"/>
  <path class="cls-3" d="M891.89,485.9c7.65,0,15.3-.05,22.95,.01,9.3,.08,16.12,6.85,16.18,15.95,.06,9.7-6.8,17.04-16.29,17.11-15.3,.11-30.6,.12-45.89,.02-9.3-.06-16.4-7.37-16.39-16.54,0-10.02,6.42-16.48,16.5-16.53,7.65-.04,15.3,0,22.95-.01Z"/>
  <path class="cls-3" d="M724.07,158.6c.3,2.88-.93,5.77-2.57,8.52-7.47,12.57-14.86,25.19-22.47,37.68-5.44,8.92-14.87,11.39-23.13,6.37-7.78-4.73-10.04-14.61-5.05-23.18,7.52-12.92,15.12-25.8,22.86-38.6,4.04-6.68,11.86-9.42,19.08-7.14,6.85,2.17,11.32,8.47,11.28,16.34Z"/>
  <path class="cls-3" d="M129.78,530.48c-6.82,0-13.63,.06-20.45-.01-10.87-.11-17.73-6.9-17.56-17.26,.16-9.92,6.89-16.14,17.51-16.15,13.8-.02,27.6-.05,41.39,0,10.37,.04,17.4,6.7,17.44,16.36,.05,9.94-7.09,16.95-17.4,17.02-6.98,.05-13.96,0-20.95,0v.03Z"/>
  <path class="cls-3" d="M345.06,200.99c-.02,7.17-4.71,13.79-10.86,15.88-6.85,2.33-14.46,.23-18.59-5.9-5.01-7.43-9.51-15.21-14.19-22.87-3.46-5.67-7.04-11.29-10.24-17.11-4.41-8.02-1.53-17.87,6.31-22.54,7.44-4.43,16.72-2.14,21.64,5.78,7.98,12.84,15.72,25.84,23.48,38.81,1.54,2.57,2.7,5.37,2.45,7.93Z"/>
  <path class="cls-3" d="M873.05,301.2c-.04,5.87-2.92,10.16-7.83,13.01-13.22,7.68-26.44,15.39-39.84,22.76-8.26,4.54-17.88,1.72-22.13-5.92-4.26-7.64-1.69-17.44,6.25-22.1,13.18-7.75,26.33-15.59,39.88-22.65,11.41-5.95,23.89,2.26,23.67,14.91Z"/>
  <path class="cls-3" d="M151.66,609c-.04-7.19,4.29-13.69,11.44-15.82,13.35-3.97,26.78-7.75,40.28-11.15,9.41-2.37,17.71,3.11,20.08,12.48,2.09,8.24-2.79,16.78-11.51,19.38-13.19,3.94-26.43,7.74-39.73,11.28-10.77,2.87-20.5-4.96-20.56-16.17Z"/>
  <path class="cls-3" d="M144.9,312.03c.09-12.66,12.98-20.52,24.04-14.34,12.48,6.97,24.8,14.26,37.01,21.69,8.17,4.96,10.66,14.02,6.43,21.48-4.82,8.5-13.69,11.06-22.71,6.1-12.38-6.81-24.6-13.9-36.85-20.95-5.34-3.07-8.11-7.72-7.92-13.98Z"/>
  <path class="cls-3" d="M815.71,566.57c5.98,.96,12.39,3.31,18.93,5.14,7.51,2.1,15.07,4.06,22.52,6.39,7.01,2.19,12.02,9.19,11.71,15.7-.38,8.17-5.98,15.08-13.32,16.68-2.39,.52-4.65,.19-6.88-.44-12.79-3.58-25.65-6.91-38.3-10.92-12.79-4.05-16.24-19.29-6.79-28.35,3.18-3.05,6.99-4.35,12.13-4.2Z"/>
  <path class="cls-3" d="M754.42,239.63c6.79,.06,11.79,3.19,14.82,9.21,3.06,6.07,2.69,12.36-1.84,17.28-9.46,10.29-19.2,20.36-29.36,29.95-6.5,6.14-16.26,4.96-22.4-1.63-5.83-6.26-6.12-15.89-.16-22.21,8.91-9.45,18.11-18.62,27.23-27.87,3.19-3.24,7.1-4.88,11.71-4.73Z"/>
  <path class="cls-3" d="M398.9,171.05c-.06-8.06,4.91-14.52,12.23-15.99,8.08-1.62,16.16,2.06,18.56,9.86,4.24,13.8,7.91,27.8,11.15,41.88,1.79,7.75-4.02,16-11.55,18.18-7.53,2.18-16.44-1.52-18.83-9.16-4.36-13.93-7.77-28.16-11.54-42.28-.21-.78-.03-1.66-.03-2.49Z"/>
  <path class="cls-3" d="M302.97,291.56c-.6,6.18-3.41,11.41-9.43,14.45-5.96,3.01-12.03,2.43-16.73-2.04-10.37-9.85-20.57-19.91-30.2-30.47-5.71-6.26-4.21-16.49,2.05-22.08,6.14-5.48,15.59-5.41,21.74,.59,9.29,9.06,18.37,18.34,27.46,27.6,3.11,3.17,5.11,6.95,5.11,11.95Z"/>
  <path class="cls-3" d="M814.18,437.24c-9.86-.09-16.54-5.66-18.03-13.29-1.39-7.13,2.98-15.9,10.21-18.1,13.18-4.02,26.52-7.6,39.95-10.65,7.99-1.82,15.04,2.85,17.77,10.33,2.64,7.25,.05,16.46-6.94,19.4-14.41,6.05-29.82,8.96-42.96,12.32Z"/>
  <path class="cls-3" d="M596.38,151.95c9.59,.06,16.86,8.01,15.92,17.75-.78,8.14-3.74,15.83-5.47,23.79-1.13,5.19-2.59,10.31-3.93,15.45-2.39,9.21-10.67,14.83-18.97,12.89-8.99-2.1-14.21-10.16-12.11-19.79,2.83-12.98,6.01-25.9,9.35-38.76,1.84-7.07,8.02-11.37,15.21-11.32Z"/>
  <path class="cls-3" d="M207.49,448.15c-3.1,.2-6.19-1.17-9.37-2.06-10.55-2.94-21.16-5.68-31.61-8.96-8.8-2.76-12.95-10.97-10.58-19.72,2.31-8.56,10.33-13.59,19.23-11.37,12.56,3.12,25.05,6.56,37.46,10.24,7.76,2.3,12.21,10.2,10.83,17.96-1.52,8.51-7.6,13.92-15.95,13.9Z"/>
  <path class="cls-2" d="M359.58,252.01c5.06,1.54,9.83,2.99,14.6,4.45,14.95,4.55,29.89,9.16,44.86,13.63,16.63,4.97,30.79,1.05,42.51-11.87,13.21-14.56,26.52-29.02,39.83-43.48,4.99-5.42,6.44-5.42,11.7-.15,13.77,13.8,27.63,27.51,41.21,41.49,12.39,12.76,26.79,15.63,43.39,10.17,18.16-5.98,36.39-11.75,54.6-17.61,6.49-2.09,7.13-1.66,8.83,5.13,4.87,19.52,9.68,39.06,14.75,58.53,3.93,15.08,13.65,24.53,28.96,27.69,19.55,4.03,39.18,7.67,58.76,11.57,7.37,1.47,8.09,2.72,6.06,9.74-5.59,19.33-11.19,38.65-16.81,57.97-4.35,14.94-1.38,27.92,10.17,38.68,14.75,13.74,29.45,27.53,44.2,41.26,5.8,5.4,5.84,5.36-.14,10.88-15.69,14.45-30.66,29.64-45.54,44.91-9.93,10.19-12.7,22.35-8.78,35.47,6.09,20.38,13.18,40.46,19.87,60.65,2.51,7.59,1.69,8.73-6.34,9.88-17.12,2.45-34.37,4.4-51.07,9.08-18.48,5.18-31.49,16.18-35.71,35.75-.88,4.1-.95,8.29-.57,12.44,.24,2.7-.38,4.11-3.26,5.05-24.36,7.9-48.66,15.99-72.96,24.06-1.67,.56-3.06,1.06-4.43-.66-15.4-19.27-37.11-26.67-60.01-31.89-26.79-6.11-54.07-9.47-80.99-14.83-13.75-2.74-26.36-7.8-37.5-16.57-27.17-21.38-57.93-35.21-91.78-41.86-19.83-3.9-39.98-4.88-60.18-3.5-4.33,.3-5.41-.45-4.09-5.02,3.51-12.13,6.63-24.38,9.54-36.67,3.09-13.07-.51-24.48-10.09-33.74-15.21-14.7-30.65-29.17-46.04-43.69-5.11-4.82-5.11-4.95,.02-10.02,14.57-14.4,29.48-28.47,43.24-43.67,9.81-10.84,12.46-23.61,8.07-37.19-6.29-19.45-13.55-38.58-20.42-57.84-2.24-6.29-1.51-7.86,5.11-9.42,19.59-4.63,39.21-9.08,58.78-13.78,15.67-3.76,25.68-13.39,29.26-29.3,4.56-20.28,9.14-40.56,13.53-60.88,.67-3.11,1.91-4.8,4.87-4.86Zm247.09,387.04c7.79,.14,14.3-4.98,16.22-12.19,1.2-4.5,.58-8.91-.22-13.34-5.18-28.98-10.35-57.96-15.58-86.93-.54-3.01-.09-5.29,2.33-7.53,6.11-5.65,11.95-11.6,17.89-17.43,15.67-15.41,31.4-30.77,46.98-46.27,6.41-6.38,7.29-14.39,2.88-21.34-3.7-5.83-9.56-7.16-15.83-8.04-29-4.07-57.97-8.32-86.97-12.36-3.48-.48-5.43-1.9-7.05-5.1-13.61-26.85-27.49-53.56-41.15-80.38-3.41-6.7-8.41-10.76-16.04-10.66-7.28,.1-11.73,4.3-14.92,10.65-13.71,27.35-27.63,54.6-41.44,81.9-1.11,2.19-2.36,3.69-5.11,4.06-11.04,1.49-22.05,3.26-33.08,4.91-19.74,2.96-39.5,5.79-59.22,8.92-8.63,1.37-13.51,7.83-13.5,16.5,.01,7.44,5.26,11.55,9.86,16.05,20.49,20.02,41.02,39.99,61.61,59.91,1.87,1.81,2.41,3.41,1.94,6.07-3.07,17.19-5.91,34.43-8.77,51.66-2.26,13.62-4.62,27.22-6.58,40.88-1.04,7.27,1.21,13.71,7.72,17.71,6.43,3.96,12.92,2.94,19.4-.58,26.6-14.45,53.3-28.71,79.88-43.2,2.87-1.56,4.98-1.46,7.74,.01,27.32,14.51,54.71,28.89,82.05,43.35,2.99,1.58,5.99,2.92,8.95,2.75Z"/>
  <path class="cls-1" d="M711.66,711.19c.75-4.6,3.74-6.33,6.91-7.73,10.94-4.83,22.6-6.43,34.67-6.63-13.69,4.73-27.38,9.45-41.58,14.35Z"/>
  <path class="cls-3" d="M606.67,639.05c-2.97,.16-5.97-1.17-8.95-2.75-27.35-14.46-54.74-28.84-82.05-43.35-2.76-1.47-4.87-1.57-7.74-.01-26.58,14.49-53.28,28.75-79.88,43.2-6.48,3.52-12.97,4.54-19.4,.58-6.51-4.01-8.76-10.44-7.72-17.71,1.96-13.66,4.32-27.26,6.58-40.88,2.86-17.23,5.7-34.47,8.77-51.66,.47-2.66-.06-4.26-1.94-6.07-20.59-19.92-41.12-39.89-61.61-59.91-4.6-4.49-9.85-8.61-9.86-16.05-.01-8.67,4.87-15.13,13.5-16.5,19.71-3.13,39.48-5.96,59.22-8.92,11.02-1.65,22.03-3.42,33.08-4.91,2.76-.37,4.01-1.87,5.11-4.06,13.81-27.3,27.73-54.55,41.44-81.9,3.18-6.35,7.64-10.55,14.92-10.65,7.63-.1,12.63,3.96,16.04,10.66,13.66,26.82,27.54,53.53,41.15,80.38,1.62,3.2,3.57,4.61,7.05,5.1,29,4.04,57.97,8.29,86.97,12.36,6.28,.88,12.13,2.22,15.83,8.04,4.41,6.96,3.53,14.97-2.88,21.34-15.58,15.5-31.31,30.86-46.98,46.27-5.94,5.84-11.77,11.79-17.89,17.43-2.42,2.23-2.87,4.52-2.33,7.53,5.23,28.97,10.4,57.95,15.58,86.93,.79,4.43,1.41,8.84,.22,13.34-1.92,7.2-8.43,12.32-16.22,12.19Zm20.27-183.39c-1.88-1.55-3.73-1.42-5.48-1.67-20.09-2.89-40.14-6.12-60.29-8.52-9.18-1.1-14.64-5.55-18.63-13.56-9.42-18.91-19.31-37.57-29.09-56.3-.79-1.52-1.07-3.51-3.06-4.42-.88,1.68-1.73,3.29-2.56,4.92-9.86,19.42-19.78,38.82-29.52,58.3-2.91,5.82-7.25,9.5-13.63,10.5-17.92,2.79-35.87,5.39-53.78,8.24-5.26,.84-10.7,.98-17.36,3.35,2.69,2.13,4.66,3.43,6.31,5.05,14.96,14.73,29.81,29.56,44.8,44.24,4.45,4.35,6.04,9.44,5.03,15.41-2.05,12.14-4.2,24.26-6.28,36.39-2.09,12.17-4.15,24.35-6.33,37.17,3.34-1.79,5.97-3.2,8.59-4.61,18.91-10.14,37.87-20.19,56.7-30.48,6.64-3.63,12.91-3.48,19.42,.09,7.29,4,14.68,7.82,22.03,11.72,13.92,7.39,27.83,14.77,41.91,22.24,.05-.8,.18-1.31,.1-1.78-3.78-22.31-7.38-44.65-11.48-66.89-1.8-9.78-.21-17.53,7.47-24.72,15.42-14.43,30.07-29.67,45.12-44.66Z"/>
  <path class="cls-2" d="M626.94,455.65c-15.05,14.99-29.7,30.23-45.12,44.66-7.68,7.19-9.27,14.94-7.47,24.72,4.1,22.25,7.69,44.59,11.48,66.89,.08,.47-.05,.98-.1,1.78-14.07-7.47-27.99-14.86-41.91-22.24-7.35-3.9-14.74-7.72-22.03-11.72-6.51-3.57-12.77-3.72-19.42-.09-18.83,10.29-37.79,20.34-56.7,30.48-2.63,1.41-5.26,2.82-8.59,4.61,2.18-12.83,4.24-25,6.33-37.17,2.08-12.13,4.23-24.25,6.28-36.39,1.01-5.97-.58-11.06-5.03-15.41-15-14.69-29.85-29.52-44.8-44.24-1.65-1.62-3.62-2.91-6.31-5.05,6.66-2.37,12.1-2.51,17.36-3.35,17.91-2.85,35.86-5.45,53.78-8.24,6.39-1,10.72-4.68,13.63-10.5,9.74-19.48,19.66-38.87,29.52-58.3,.83-1.63,1.68-3.24,2.56-4.92,2,.91,2.27,2.89,3.06,4.42,9.77,18.73,19.67,37.4,29.09,56.3,3.99,8.01,9.45,12.46,18.63,13.56,20.15,2.41,40.2,5.64,60.29,8.52,1.75,.25,3.6,.13,5.48,1.67Z"/>
</svg>