<?xml version="1.0" encoding="UTF-8" standalone="no"?>
<!DOCTYPE svg PUBLIC "-//W3C//DTD SVG 1.1//EN" "http://www.w3.org/Graphics/SVG/1.1/DTD/svg11.dtd">
<svg width="100%" height="100%" viewBox="0 0 1920 1920" version="1.1" xmlns="http://www.w3.org/2000/svg" xmlns:xlink="http://www.w3.org/1999/xlink" xml:space="preserve" xmlns:serif="http://www.serif.com/" style="fill-rule:evenodd;clip-rule:evenodd;stroke-linejoin:round;stroke-miterlimit:2;">
    <g id="Background" transform="matrix(1.875,0,0,1.875,0,0)">
        <path d="M1023.999,30.5L1023.999,1023.999C1019.751,1024.979 1019.698,1023.999 969.5,1023.999L0,1023.999C-1.027,1022.092 0,1019.666 0,1017.5L0,0C2.148,-1.157 2.338,0 30.5,0L1023.999,0C1025.156,2.148 1023.999,2.338 1023.999,30.5Z"/>
        <path d="M120.947,938.5C121.025,934.088 120.89,910.758 121.078,909.435C123.039,895.642 120.652,870.567 122.055,866.324C124.508,858.902 121.449,833.986 122.078,829.436C124.528,811.735 121.404,811.381 124.81,799.581C125.627,796.752 123.597,795.504 124.1,792.45C125.332,784.968 124.373,784.851 126.55,777.518C127.111,775.629 125.74,775.479 127.639,765.534C129.237,757.164 129.059,757.142 129.216,756.419C139.187,710.576 157.805,685.325 200.678,641.675C258.597,582.708 258.87,582.99 263.822,577.781C274.005,567.071 279.775,566.047 273.142,559.924C272.765,559.576 269.543,556.601 268.48,555.52C208.57,494.537 166.541,454.192 114.706,400.299C108.323,393.662 72.483,354.867 69.636,351.393C55.514,334.159 55.575,334.123 54.295,332.67C45.437,322.611 50.444,319.696 62.862,303.807C73.54,290.143 135.347,225.216 139.789,220.78C199.576,161.073 209.513,153.053 220.581,144.607C232.661,135.388 237.047,144.776 302.579,211.423C315.23,224.29 445.484,356.761 460.802,372.187C464.06,375.467 464.955,376.555 468.247,373.238C491.564,349.745 524.484,320.867 530.558,302.52C532.655,296.184 533.144,296.478 537.001,291.092C555.924,264.665 616.347,204.994 617.807,203.966C620.673,201.946 637.24,184.877 639.844,182.978C643.765,180.118 682.207,141.299 701.583,147.289C704.025,148.044 704.008,148.073 714.508,147.98C720.753,147.925 720.452,146.638 723.583,145.899C742.562,141.418 772.026,105.213 790.443,103.124C796.031,102.49 795.99,102.311 796.477,102.286C801.88,102.015 801.717,103.267 804.478,103.221C808.406,103.157 816.371,103.025 850.288,120.897C895.854,144.908 955.384,214.702 953.944,247.541C953.576,255.938 937.13,278.036 928.362,287.371C914.558,302.069 885.519,328.954 887.502,344.5C887.606,345.317 888.63,353.344 889.073,354.682C889.858,357.053 888.877,356.98 888.811,359.524C888.752,361.778 888.541,369.893 877.101,385.165C861.993,405.334 861.004,404.409 843.926,422.903C825.08,443.312 815.514,451.421 815.467,451.465C810.636,456.029 763.601,500.465 750.413,503.136C731.737,506.92 729.594,512.322 715.796,521.953C707.712,527.596 669.483,568.203 669.417,568.47C668.821,570.885 687.365,587.016 698.075,597.926C700.215,600.106 718.531,618.764 724.965,625.05C839.929,737.36 837.78,739.493 848.026,748.995C851.65,752.355 878.078,781.491 880.664,784.342C897.181,802.551 904.548,810.962 883.865,837.791C852.527,878.441 761.531,967.237 739.88,982.952C726.726,992.499 718.308,997.808 652.229,931.771C554.301,833.906 511.828,787.056 486.923,763.064C482.495,758.798 481.96,755.025 477.547,759.545C457.886,779.688 434.058,802.415 428.829,807.862C390.48,847.809 367.574,867.181 361.914,871.968C321.668,906.006 312.271,906.285 283.314,919.068C266.461,926.508 199.723,946.438 189.454,948.049C186.343,948.537 172.068,951.708 171.595,951.836C163.154,954.119 150.885,954.117 124.494,953.98C119.573,953.955 120.951,947.588 120.947,938.5Z" style="fill:rgb(255,74,23);"/>
        <path d="M698.052,287.501C695.478,270.285 671.018,261.249 656.732,246.295C647.191,236.307 661.606,228.538 664.437,229.654C688.744,239.239 689.501,250.631 701.425,254.729C704.832,255.9 707.692,252.368 707.883,250.531C710.262,227.59 698.957,219.749 696.708,218.188C695.616,217.431 683.342,208.917 688.659,203.658C694.364,198.016 698.836,205.541 712.463,208.686C740.633,215.187 767.629,169.856 803.606,156.755C817.331,151.757 866.128,198.895 874.458,207.541C896.224,230.133 901.641,235.941 896.988,245.73C886.789,267.183 840.507,306.997 840.463,307C836.038,307.339 778.445,227.241 742.397,213.74C741.186,213.287 730.064,209.121 726.468,216.482C722.233,225.15 729.722,231.542 732.213,234.759C749.854,257.539 777.598,282.885 783.32,288.679C822.962,328.815 838.289,343.17 827.019,367.286C823.08,375.715 802.727,399.64 773.787,425.813C770.353,428.919 736.919,459.157 726.53,459.226C713.555,459.311 557.117,612.733 544.423,625.422C394.726,775.055 310.234,859.554 265.609,872.823C255.873,875.718 255.439,875.576 254.58,875.293C251.5,874.281 249.01,876.963 245.403,875.711C241.906,874.497 241.787,875.861 239.558,875.239C220.096,869.806 210.224,861.379 206.792,859.08C176.575,838.837 178.631,829.998 176.905,822.412C174.214,810.59 176.77,810.572 177.707,798.52C177.788,797.474 178.714,785.567 178.683,785.447C177.3,780.001 179.731,780.201 180.006,775.477C180.39,768.896 180.871,769.03 180.845,768.466C180.701,765.355 181.395,765.522 182.099,762.418C187.783,737.376 210.865,711.592 252.291,668.292C254.168,666.329 275.166,644.382 275.774,643.774C298.803,620.739 298.36,620.35 300.501,618.501C312.744,607.93 458.029,458.437 530.721,392.749C573.022,354.526 579.15,361.193 582.332,364.654C591.779,374.93 506.13,457.599 493.457,470.457C466.99,497.313 250.144,706.813 216.98,744.901C209.771,753.181 213.276,762.222 224.558,757.63C266.37,740.608 535.161,462.932 590.889,419.95C611.18,404.3 618.313,404.062 626.064,412.894C642.878,432.051 652.452,438.726 654.146,441.706C655.001,443.21 653.277,444.045 630.817,460.917C615.118,472.71 580.682,498.578 451.199,628.188C422.645,656.77 423.087,657.131 420.492,659.491C404.623,673.921 383.105,697.346 380.225,700.226C344.652,735.802 335.365,747.066 333.229,749.258C308.831,774.289 309.604,774.897 289.65,796.631C268.926,819.203 271.368,821.974 273.056,823.89C278.635,830.219 371.246,744.467 380.761,735.793C386.576,730.491 426.844,693.778 452.824,668.84C495.137,628.224 495.56,628.772 499.067,625.079C511.615,611.868 624.07,508.819 648.757,489.856C653.717,486.046 680.325,463.471 688.448,462.1C688.926,462.019 693.354,461.272 694.486,461.551C706.532,464.521 709.166,457.571 707.025,454.903C705.751,453.315 697.255,442.73 690.173,435.841C689.226,434.92 644.623,388.463 640.665,384.341C628.792,371.974 603.319,341.817 602.999,341.266C598.411,333.343 582.144,316.985 586.243,305.399C592.304,288.265 614.313,314.929 618.39,316.689C640.19,326.101 633.695,298.778 628.054,288.77C627.133,287.134 618.382,271.607 622.943,265.865C629.687,257.374 648.291,277.318 649.931,279.075C667.905,298.344 696.657,307.804 698.052,287.501Z"/>
        <path d="M708.2,702.651C707.812,710.115 706.11,710.096 707.623,717.463C708.153,720.04 705.083,720.304 708.32,729.576C713.463,744.31 726.41,742.518 733.606,726.558C735.787,721.721 740.173,710.738 747.631,714.264C747.648,714.272 754.638,719.606 745.947,735.741C734.463,757.063 750.777,777.69 763.367,766.337C769.912,760.435 770.508,754.665 781.772,762.111C785.648,764.673 794.514,770.533 824.292,801.682C836.152,814.087 837.015,814.142 836.19,815.333C834.732,817.439 767.051,884.055 761.01,890.001C726.692,923.779 719.178,924.979 714.548,925.718C708.839,926.629 697.455,914.044 696.25,912.712C692.101,908.124 683.572,902.362 696.834,892.988C699.535,891.079 717.237,879.068 716.927,868.488C716.848,865.795 712.558,856.007 700.567,859.687C690.785,862.689 690.611,862.376 682.22,868.126C681.417,868.677 673.016,871.737 671.495,871.535C668.163,871.093 657.767,869.713 639.096,844.787C631.09,834.098 632.919,830.705 634.97,826.717C635.175,826.32 645.926,815.137 645.925,807.5C645.925,803.688 641.323,797.243 637.554,798.632C634.663,799.697 634.495,797.901 631.66,798.939C619.625,803.348 616.333,816.039 603.453,807.57C600.026,805.316 566.059,782.982 573.892,765.678C577.833,756.973 583.781,750.636 583.816,743.473C583.819,742.822 585.094,739.295 584.454,736.51C584.11,735.013 580.756,720.406 565.825,731.872C561.826,734.944 550.115,753.104 545.474,751.617C539.132,749.584 517.957,737.249 517.923,729.531C517.87,717.866 543.096,694.84 565.543,671.542C617.131,618.002 627.495,615.973 634.517,614.599C639.599,613.604 641.688,621.574 641.906,622.406C645.101,634.594 640.174,644.514 648.733,652.256C657.877,660.526 673.054,647.917 678.776,663.385C684.174,677.978 681.966,699.444 694.64,707.259C694.833,707.378 701.379,710.578 706.24,704.054C706.266,704.018 705.931,702.837 708.2,702.651Z"/>
        <path d="M282.465,263.574L283.004,263.734C282.8,271.404 271.185,307.401 285.508,313.483C298.558,319.024 318.171,291.654 314.266,305.419C313.264,308.953 314.699,309.092 313.52,312.508C312.498,315.474 309.684,333.031 308.256,338.427C308.015,339.34 307.527,351.243 308.34,353.566C309.031,355.541 314.002,369.741 333.114,345.174C339.323,337.193 345.048,329.631 343.415,335.494C341.62,341.943 342.434,342.074 340.35,348.442C340.305,348.581 339.197,356.769 338.244,360.417C335.546,370.733 342.696,392.801 363.775,371.775C372.665,362.907 378.683,362.012 410.112,388.933C411.828,390.403 430.361,406.277 431.265,407.648C432.211,409.082 429.782,410.419 423.012,418.087C418.123,423.626 385.591,456.036 382.308,459.307C380.071,461.535 351.72,491.535 323.135,514.059C307.132,526.67 305.087,524.003 304.751,522.423C301.995,509.448 326.179,495.095 323.267,484.578C322.628,482.27 325.749,476.239 316.462,474.786C297.299,471.787 287.39,493.06 269.24,482.991C252.599,473.76 238.314,452.704 239.518,449.507C245.225,434.352 264.449,421.461 252.302,411.735C242.611,403.977 223.352,424.37 207.587,419.279C205.124,418.483 196.606,418.375 185.757,405.288C184.685,403.996 176.078,390.427 182.245,380.322C182.8,379.412 203.281,354.327 180.563,351.12C164.647,348.872 160.104,372.846 129.791,347.186C122.624,341.119 109.333,328.107 107.595,326.405C104.594,323.467 105.751,322.729 108.555,319.544C111.732,315.934 112.732,316.999 150.68,276.665C157.182,269.754 181.79,246.148 184.524,243.525C187.786,240.396 223.785,205.863 227.421,206.766C241.186,210.185 255.073,235.906 250.587,249.533C249.803,251.912 244.472,266.323 257.693,274.185C258.476,274.651 264.026,275.934 264.529,275.894C274.698,275.104 279.984,266.057 280.78,264.694C281.474,263.505 281.823,264 282.465,263.574Z"/>
        <path d="M806.953,237.502C807.086,236.306 808.442,224.17 813.526,223.975C819.297,223.753 821.732,228.64 823.36,230.613C828.987,237.43 825.485,238.605 826.437,241.525C828.991,249.365 813.67,258.768 809.369,250.578C806.19,244.527 807.243,244.285 806.953,237.502Z" style="fill:rgb(255,74,23);"/>
        <path d="M837.948,204.501C839.851,187.923 857.68,190.458 861.242,200.58C867.123,217.294 839.198,225.367 837.948,204.501Z" style="fill:rgb(255,74,23);"/>
        <path d="M801.479,196.061C796.13,195.914 794.718,197.37 788.794,191.237C782.578,184.8 789.781,157.45 805.599,183.445C806.826,185.462 810.632,194.277 801.479,196.061Z" style="fill:rgb(255,74,23);"/>
        <path d="M709.11,701.509C708.804,700.806 707.13,700.59 708.221,698.392C709.067,696.686 708.933,696.465 709.498,696.454C709.903,696.446 712.234,696.575 709.11,701.509Z" style="fill:rgb(255,74,23);"/>
        <path d="M282.465,263.574L282.14,262.5C282.695,260.535 282.83,259.282 284.33,260.68C285.326,261.609 284.465,261.721 283.004,263.734L282.465,263.574Z" style="fill:rgb(255,74,23);"/>
    </g>
</svg>
