<?xml version="1.0" encoding="UTF-8"?>
<svg id="Layer_1" data-name="Layer 1" xmlns="http://www.w3.org/2000/svg" viewBox="0 0 1000 1000">
  <defs>
    <style>
      .cls-1 {
        fill: #f48414;
      }

      .cls-2 {
        fill: #010000;
      }

      .cls-3 {
        fill: #fc8c11;
      }

      .cls-4 {
        fill: #f8870d;
      }

      .cls-5 {
        fill: #030100;
      }

      .cls-6 {
        fill: #f55803;
      }

      .cls-7 {
        fill: #fc8e11;
      }
    </style>
  </defs>
  <path class="cls-2" d="M493.61,1006.12c-166.69,0-333.39-.01-500.08,.09-3.7,0-4.53-.83-4.53-4.53,.1-333.72,.1-667.43,0-1001.15,0-3.7,.83-4.53,4.53-4.53,333.72,.1,667.43,.1,1001.15,0,3.7,0,4.53,.83,4.53,4.53-.1,333.72-.1,667.43,0,1001.15,0,3.7-.83,4.53-4.53,4.53-167.02-.11-334.05-.09-501.07-.09ZM2.09,509.01c-.11,1.79-.31,3.59-.31,5.38-.05,128.94-.1,257.89-.13,386.83,0,21.84,.1,43.68,.15,65.52,.83,15.22,5.83,22.62,17.84,25.41,5.09,1.18,10.37,1.74,15.6,2.04,17.43,.99,34.71-1.12,52.03-2.74,29.05-2.72,58.12-5.16,87.18-7.79,47.01-4.25,94.01-8.56,141.01-12.82,29.38-2.66,58.77-5.26,88.16-7.91,39.68-3.58,79.35-7.22,119.03-10.79,38.87-3.5,77.75-6.92,116.61-10.43,34.29-3.09,68.56-6.29,102.85-9.37,20.58-1.85,41.18-3.49,61.76-5.35,27.58-2.49,55.16-5.05,82.73-7.68,15.66-1.49,31.43-2.11,46.94-4.94,18.88-3.45,29.01-14.16,31.49-33.25,.97-7.48,.24-15.02-.3-22.56-1.59-21.92-2.7-43.87-4.3-65.79-2.96-40.72-6.21-81.41-10.41-122.02-2.9-28.04-5.55-56.11-8.35-84.17-4.78-47.96-9.85-95.89-14.32-143.88-4.02-43.11-8.35-86.18-14.07-129.1-2.64-19.81-8.83-37.72-21.92-53.32-17.22-20.52-32.61-42.44-46.6-65.31-9.14-14.94-20.04-29.07-24.36-46.43-3.05-12.26-6.37-24.43-9.86-36.56-5.24-18.19-11.44-36.05-22.33-51.73-21.27-30.63-50.19-47.3-88.06-47.41-12.32-.04-24.55,1.21-36.82,1.82-19.34,.97-38.69,1.24-58.07,.27-22.78-1.14-45.46-3.1-68.12-5.62-28.67-3.18-57.35-6.57-86.31-5.62-23.54,.77-46.76,3.87-69.54,9.78-13.01,3.38-25.96,7.07-38.73,11.25-20.14,6.59-40.77,7.31-61.7,7.1-21.67-.23-43.34-.1-65.02,.3-31.35,.57-62.72,.32-93.96,3.57-8.63,.9-17.39,.76-25.88,2.86-6.05,1.49-7.56,3.53-7.3,9.77,.3,7.04,3.96,12.79,7.67,18.38,14.72,22.15,29.62,44.19,44.37,66.32,4.3,6.46,8.18,13.23,8.22,21.29,.09,20.17-9.06,35.69-25.24,46.97-11.16,7.78-22.99,14.62-34.53,21.85-22.64,14.18-44,29.95-61.48,50.41-10.86,12.71-20.24,26.28-23.54,43.13-1.92,7.23-1.37,14.59-1.37,21.95,.05,53.71,.02,107.41-.04,161.12,0,3.09-.45,6.17-.69,9.26Z"/>
  <path class="cls-6" d="M4.19,316.68c3.3-16.86,12.68-30.42,23.54-43.13,17.48-20.46,38.83-36.23,61.48-50.41,11.55-7.23,23.37-14.07,34.53-21.85,16.18-11.28,25.32-26.8,25.24-46.97-.03-8.06-3.91-14.83-8.22-21.29-14.75-22.13-29.65-44.17-44.37-66.32-3.71-5.59-7.38-11.34-7.67-18.38-.26-6.24,1.25-8.28,7.3-9.77,8.49-2.09,17.24-1.96,25.88-2.86,31.24-3.25,62.6-2.99,93.96-3.57,21.68-.4,43.36-.52,65.02-.3,20.92,.22,41.56-.51,61.7-7.1,12.77-4.18,25.72-7.88,38.73-11.25,22.78-5.92,46-9.01,69.54-9.78,28.96-.95,57.64,2.43,86.31,5.62,22.66,2.52,45.35,4.48,68.12,5.62,19.37,.97,38.73,.7,58.07-.27,12.27-.62,24.49-1.86,36.82-1.82,37.88,.11,66.79,16.78,88.06,47.41,10.89,15.68,17.08,33.54,22.33,51.73,3.5,12.13,6.81,24.3,9.86,36.56,4.33,17.36,15.22,31.49,24.36,46.43,13.99,22.86,29.39,44.79,46.6,65.31,13.09,15.6,19.28,33.52,21.92,53.32,5.72,42.93,10.06,85.99,14.07,129.1,4.47,47.99,9.54,95.92,14.32,143.88,2.8,28.05,5.45,56.12,8.35,84.17,4.2,40.61,7.45,81.31,10.41,122.02,1.59,21.92,2.7,43.87,4.3,65.79,.55,7.54,1.28,15.08,.3,22.56-2.48,19.09-12.62,29.8-31.49,33.25-15.5,2.83-31.28,3.45-46.94,4.94-27.57,2.63-55.15,5.19-82.73,7.68-20.58,1.86-41.18,3.5-61.76,5.35-34.29,3.08-68.57,6.28-102.85,9.37-38.87,3.51-77.75,6.93-116.61,10.43-39.68,3.57-79.35,7.21-119.03,10.79-29.38,2.65-58.78,5.25-88.16,7.91-47.01,4.26-94.01,8.57-141.01,12.82-29.06,2.63-58.13,5.07-87.18,7.79-17.31,1.62-34.6,3.73-52.03,2.74-5.23-.3-10.51-.85-15.6-2.04-12.01-2.79-17.01-10.19-17.84-25.41,1.48-2.05,1.06-4.42,1.06-6.68,.02-29.25,.02-58.49,.02-87.74-.02-121.09-.04-242.19-.06-363.28,1.37-2.61,1.04-5.44,1.04-8.22,.01-57,.06-114.01-.1-171.01-.01-4.4,2.09-8.71,.41-13.13Zm317.48,215.5c.46,.31,.92,.62,1.38,.93l-.02-.09c.29,.83,.87,1.33,1.73,1.51,.7,.41,1.47,.74,2.09,1.25,24.01,19.68,48.02,39.35,71.99,59.06,22.71,18.67,44.84,38.03,68.42,55.64,7.52,5.61,15.6,8.56,25.18,7.76,15.86-1.31,28.17-9.16,38.81-20.2,23.59-24.48,46.78-49.35,71.17-73.05,29.21-28.38,58.88-56.3,87.71-85.06,28.74-28.67,47.02-63.2,54.59-103.28,5.21-27.58,8.81-55.39,11.55-83.3,1.94-19.75,3.58-39.55,3.14-59.45-.08-3.62-1.29-6.15-3.92-8.43-12.19-10.56-15.25-22.96-9.48-38.43,5.77-15.48,10.5-31.34,10.64-48.27,.18-21.46-6.66-38.52-26.9-48.51-23.58-11.65-48.38-17-74.71-15.72-24.27,1.18-48.32,4.57-72.48,6.74-23.03,2.06-46.05,4.41-69.16,4.7-42.53,.54-84.99-1.9-127.47-3.74-22.29-.97-44.57-2.09-66.85-3.18-24.73-1.21-49.45-2.64-74.19-3.67-22.95-.96-45.92-1.42-68.87-2.35-5.04-.2-3.75,2.99-3.52,5.44,2.07,22.53,3.73,45.09,5.26,67.66,1.56,22.97,1.82,45.97,.51,68.92-1.27,22.25-3.19,44.45-3.76,66.75-.31,12.13-.36,24.27-.66,36.4-.67,26.89-1.31,53.87,3.72,80.54,2.75,14.59,8.2,27.24,20.77,36.61,20.4,15.21,40.17,31.27,60.15,47.05,13.52,10.68,26.95,21.48,40.41,32.22,.41,.41,.82,.82,1.23,1.22l-.28-.03,.03-.28,1.93,1.33h.47s.47,.03,.47,.03c.46,2.2,1.75,3.54,4,3.89l-.03-.02c.52,.95,1.29,1.58,2.35,1.82l-.25,.03-.03-.25c.65,.46,1.3,.92,1.94,1.38l-.08-.06c.83,1.67,2.09,2.79,4,3.02l-.07-.04c.42,.34,.83,.67,1.25,1.01l-.21-.22,1.74,1.34,.11,.07c.37,1,1.08,1.58,2.12,1.79l-.09-.05c.45,.32,.89,.64,1.34,.96l-.26,.02v-.26c.44,.38,.89,.76,1.34,1.14h-.28s0-.27,0-.27ZM92.04,935.27c266.39-24.12,531.42-49.45,796.43-74.5-.03-1.93-1-2.31-1.8-2.86-12.87-8.82-25.67-17.74-38.61-26.45-54.92-36.94-110.14-73.4-165.74-109.32-13.52-8.73-27.04-17.45-40.49-26.29-1.15-.76-4.14-1.07-2.23-3.76,3.16-4.46,5.2-9.47,7.53-14.36,2.11-4.45,4.51-5.15,8.72-2.67,3.11,1.83,6.03,3.98,9.09,5.9,74.78,47,149.55,94.03,224.38,140.94,7.83,4.91,15.71,9.85,24.44,13.77-16.45-171.81-28.61-343.45-44.22-515.04-2.1,1.16-3.46,2.46-4.68,3.89-9.61,11.23-19.02,22.64-28.83,33.69-24.95,28.12-48.19,57.79-74.38,84.77-28.39,29.25-54.9,60.16-82.25,90.33-29.99,33.09-59.17,66.95-91.76,97.59-17.52,16.48-35.92,31.89-57.67,42.54-33.73,16.51-70.08,23.63-106.92,28.76-2.28,.32-3.36-.17-4.08-2.77-4.36-15.81-8.59-31.65-11.58-47.79-.62-3.33-1.61-3.02-3.56-1.15-.82,.79-1.74,1.49-2.61,2.24-10.31,8.93-20.73,17.71-32.1,25.3-2.11,1.41-4.17,3.08-7.25,3.4,.25-24.17-.15-48.05-1.19-72.98-5.45,6.68-10.28,12.6-15.11,18.52-7.68,9.42-15.24,18.94-24.02,27.39-4.07,3.91-6.87,3.16-8.16-2.35-.55-2.36-.61-4.87-.64-7.32-.21-20.54-.36-41.08-.52-61.62-.02-1.93,0-3.85,0-6.94-2.29,1.71-3.68,2.74-5.06,3.77-9.2,6.86-17.91,14.49-28.52,19.22-5.74,2.56-7.86,1.14-8.19-5.14-.17-3.11,.06-6.25-.03-9.37-.3-11.14,.19-22.31-2.08-33.35-1.3-6.34-2.88-7.25-7.98-3.5-5.42,3.99-10.45,8.52-15.96,12.37-6.57,4.6-11.07,3.01-13.36-4.62-3.16-10.54-5.47-21.3-6.31-32.3-.55-7.26-.76-14.56-1.17-22.7-3.72,3.36-6.99,6.04-9.94,9.03-5.42,5.49-10.54,11.29-16.01,16.72-2.93,2.91-5.97,7.48-10.58,5.64-4.41-1.76-4.83-7.09-5.54-11.43-1.5-9.1-1.49-18.31-1.78-27.51-.37-11.54,.04-23.15-2.73-35.72-5.98,8.56-11.3,16.38-16.85,24.04-5,6.9-9.78,14.09-17.58,18.32-4.17,2.26-7.11,1.04-8.77-3.42-.78-2.1-.68-4.26-.37-6.33,1.64-10.87,3.44-21.71,5.13-32.57,1.88-12.11,3.7-24.23,5.69-37.33-2.5,2.08-4.23,3.52-5.96,4.96-11.37,9.45-22.69,18.95-34.13,28.32-4.58,3.75-9.46,7.14-15.08,9.17-3.29,1.19-5.33,.41-5.47-3.68-.16-4.75,1.31-9.03,2.85-13.37,6.21-17.48,11.34-35.28,15.76-53.3,.63-2.55,.13-4.24-1.87-6.01-10.46-9.23-20.76-18.65-31.2-27.9-4.37-3.87-8.42-8.16-13.79-11.71-.29,5.55-.77,10.55-.78,15.55-.1,46.33-.43,92.65-1.02,138.98-.64,49.61-.53,99.22-1.2,148.83-.65,48.47-.64,96.95-.98,145.42-.03,3.93-.41,7.86-.83,11.77-1.77,16.79-4.68,33.47-4.27,50.47,.1,4.28,1.17,6.08,5.47,5.7,1.29-.12,2.63,.06,3.93,.25,6.99,1.05,14.22-.05,21.36,2.14-6.98,9.84-13.83,19.24-20.4,28.84-6.95,10.17-13.73,20.49-16.69,32.7-.68,2.79-1.95,6.51,.78,8.17,2.52,1.54,5-1.33,7.15-3.09,29.25-23.93,57.05-49.51,84.94-74.98,38.21-34.88,76.24-69.94,114.44-104.83,10.3-9.41,20.21-19.25,31.17-27.93,2.07-1.64,4.31-2.83,6.72-1.36,3.2,1.95,6.48,3.89,8.87,6.94,2.44,3.12,2.61,6.09,.17,9.41-2.37,3.22-5.36,5.77-8.18,8.51-18.63,18.07-37.22,36.18-55.91,54.18-19.86,19.14-39.86,38.14-59.73,57.27-15.26,14.69-30.42,29.5-45.64,44.24-10.58,10.25-21.17,20.47-32.68,31.59ZM160.07,246.04c-2.16,1.09-3.33,1.63-4.44,2.25-12.63,6.99-25.15,14.19-37.91,20.95-15.67,8.3-31.43,16.42-45.8,26.9-4.52,3.29-8.64,7.06-11.78,11.77-.94,1.41-1.86,2.99-.98,4.55,.89,1.57,2.66,.81,4.04,.57,2.74-.48,5.5-.95,8.16-1.74,7.86-2.35,15.67-4.84,23.82-6.07,9.82-1.48,19.13-1.04,26.29,7.1,4.48,5.09,6.46,11.31,7.72,17.84,2.45,12.63,1.69,25.51,2.96,38.23,.57,5.69,.66,11.48,2.98,16.86,1.03,2.38,2.65,4.24,5.4,4.47,2.68,.22,4.16-1.74,5.4-3.69,1.8-2.81,2.42-6.06,2.98-9.3,2.3-13.27,2.83-26.72,3.96-40.1,1.57-18.46,3.1-36.93,4.58-55.39,.91-11.42,1.71-22.85,2.62-35.18Zm638.66-14.05c-3.84,46.2-9.22,90.75-16.54,135.28,2.43-.67,3.21-2.67,4.31-4.16,13.73-18.65,27.74-37.06,42.48-54.93,7.41-8.99,14.41-18.32,21.55-27.53,2.41-3.1,2.61-5.6-.94-8.56-16.26-13.55-34.65-24.31-50.86-40.09Z"/>
  <path class="cls-3" d="M2.84,509.04c.02,121.09,.04,242.19,.06,363.28,0,29.25,0,58.49-.02,87.74,0,2.27,.42,4.64-1.06,6.68-.05-21.84-.16-43.68-.15-65.52,.02-128.94,.07-257.89,.13-386.83,0-1.79,.2-3.59,.31-5.38,.25,.01,.5,.02,.74,.03Z"/>
  <path class="cls-1" d="M2.84,509.04c-.25,0-.5-.02-.74-.03,.24-3.09,.68-6.17,.69-9.26,.06-53.71,.09-107.41,.04-161.12,0-7.36-.55-14.72,1.37-21.95,1.68,4.42-.42,8.73-.41,13.13,.16,57,.11,114.01,.1,171.01,0,2.78,.33,5.61-1.04,8.22Z"/>
  <path class="cls-2" d="M92.04,935.27c11.51-11.12,22.11-21.35,32.68-31.59,15.22-14.74,30.37-29.55,45.64-44.24,19.87-19.13,39.87-38.13,59.73-57.27,18.69-18.01,37.28-36.12,55.91-54.18,2.83-2.74,5.81-5.29,8.18-8.51,2.44-3.31,2.28-6.28-.17-9.41-2.39-3.06-5.67-4.99-8.87-6.94-2.42-1.47-4.66-.28-6.72,1.36-10.96,8.68-20.87,18.52-31.17,27.93-38.2,34.89-76.23,69.95-114.44,104.83-27.9,25.46-55.69,51.05-84.94,74.98-2.15,1.76-4.63,4.63-7.15,3.09-2.73-1.66-1.46-5.38-.78-8.17,2.96-12.21,9.74-22.53,16.69-32.7,6.57-9.6,13.42-19,20.4-28.84-7.14-2.19-14.37-1.09-21.36-2.14-1.29-.19-2.63-.37-3.93-.25-4.29,.38-5.36-1.42-5.47-5.7-.41-17.01,2.49-33.68,4.27-50.47,.41-3.91,.8-7.85,.83-11.77,.34-48.47,.33-96.95,.98-145.42,.66-49.61,.56-99.23,1.2-148.83,.59-46.33,.92-92.65,1.02-138.98,.01-5,.49-10,.78-15.55,5.37,3.55,9.42,7.84,13.79,11.71,10.45,9.25,20.74,18.67,31.2,27.9,2,1.77,2.5,3.46,1.87,6.01-4.42,18.01-9.55,35.82-15.76,53.3-1.54,4.34-3.01,8.62-2.85,13.37,.14,4.09,2.18,4.87,5.47,3.68,5.62-2.04,10.5-5.43,15.08-9.17,11.44-9.36,22.76-18.87,34.13-28.32,1.74-1.44,3.47-2.89,5.96-4.96-1.99,13.1-3.81,25.22-5.69,37.33-1.69,10.86-3.49,21.7-5.13,32.57-.31,2.08-.41,4.23,.37,6.33,1.66,4.46,4.6,5.68,8.77,3.42,7.8-4.23,12.58-11.41,17.58-18.32,5.54-7.66,10.86-15.48,16.85-24.04,2.77,12.58,2.36,24.18,2.73,35.72,.29,9.19,.28,18.41,1.78,27.51,.72,4.34,1.13,9.67,5.54,11.43,4.61,1.84,7.65-2.73,10.58-5.64,5.47-5.44,10.59-11.23,16.01-16.72,2.95-2.99,6.22-5.68,9.94-9.03,.41,8.14,.62,15.43,1.17,22.7,.83,11,3.14,21.76,6.31,32.3,2.29,7.63,6.78,9.22,13.36,4.62,5.51-3.85,10.54-8.38,15.96-12.37,5.1-3.75,6.68-2.84,7.98,3.5,2.27,11.03,1.77,22.21,2.08,33.35,.09,3.12-.14,6.25,.03,9.37,.33,6.28,2.45,7.7,8.19,5.14,10.61-4.73,19.32-12.36,28.52-19.22,1.38-1.03,2.77-2.06,5.06-3.77,0,3.08-.01,5.01,0,6.94,.16,20.54,.31,41.08,.52,61.62,.02,2.45,.09,4.96,.64,7.32,1.29,5.51,4.09,6.26,8.16,2.35,8.79-8.44,16.35-17.97,24.02-27.39,4.83-5.92,9.66-11.84,15.11-18.52,1.03,24.93,1.44,48.81,1.19,72.98,3.08-.32,5.14-1.99,7.25-3.4,11.36-7.59,21.79-16.37,32.1-25.3,.87-.75,1.79-1.45,2.61-2.24,1.94-1.87,2.94-2.19,3.56,1.15,2.99,16.14,7.22,31.98,11.58,47.79,.71,2.59,1.8,3.08,4.08,2.77,36.84-5.13,73.19-12.25,106.92-28.76,21.75-10.65,40.15-26.06,57.67-42.54,32.59-30.64,61.77-64.5,91.76-97.59,27.35-30.17,53.86-61.08,82.25-90.33,26.19-26.98,49.42-56.65,74.38-84.77,9.81-11.05,19.22-22.46,28.83-33.69,1.22-1.42,2.58-2.73,4.68-3.89,15.61,171.59,27.77,343.23,44.22,515.04-8.72-3.92-16.6-8.86-24.44-13.77-74.84-46.92-149.6-93.94-224.38-140.94-3.06-1.92-5.98-4.07-9.09-5.9-4.21-2.48-6.6-1.79-8.72,2.67-2.32,4.89-4.37,9.9-7.53,14.36-1.91,2.69,1.08,3.01,2.23,3.76,13.45,8.84,26.98,17.55,40.49,26.29,55.59,35.91,110.82,72.38,165.74,109.32,12.94,8.71,25.74,17.63,38.61,26.45,.8,.55,1.77,.93,1.8,2.86-265,25.05-530.04,50.38-796.43,74.5Z"/>
  <path class="cls-2" d="M302.76,516.88l-.47-.04s-.47,0-.47,0c-.64-.44-1.29-.89-1.93-1.33l-.03,.28s.28,.03,.28,.03c-.41-.41-.82-.81-1.23-1.22-13.47-10.74-26.89-21.54-40.41-32.22-19.98-15.78-39.75-31.84-60.15-47.05-12.57-9.37-18.02-22.02-20.77-36.61-5.03-26.67-4.39-53.65-3.72-80.54,.3-12.13,.35-24.27,.66-36.4,.57-22.3,2.49-44.5,3.76-66.75,1.31-22.95,1.05-45.94-.51-68.92-1.54-22.57-3.19-45.13-5.26-67.66-.23-2.45-1.52-5.64,3.52-5.44,22.95,.93,45.92,1.39,68.87,2.35,24.74,1.03,49.46,2.46,74.19,3.67,22.28,1.09,44.56,2.22,66.85,3.18,42.47,1.84,84.94,4.28,127.47,3.74,23.12-.29,46.13-2.64,69.16-4.7,24.17-2.16,48.22-5.56,72.48-6.74,26.33-1.28,51.13,4.07,74.71,15.72,20.23,10,27.08,27.06,26.9,48.51-.14,16.93-4.87,32.8-10.64,48.27-5.77,15.47-2.72,27.88,9.48,38.43,2.63,2.28,3.84,4.81,3.92,8.43,.44,19.9-1.2,39.7-3.14,59.45-2.74,27.91-6.34,55.72-11.55,83.3-7.57,40.08-25.85,74.61-54.59,103.28-28.83,28.76-58.5,56.68-87.71,85.06-24.39,23.7-47.58,48.56-71.17,73.05-10.64,11.04-22.95,18.89-38.81,20.2-9.58,.79-17.67-2.15-25.18-7.76-23.58-17.6-45.71-36.97-68.42-55.64-23.98-19.71-47.98-39.39-71.99-59.06-.62-.51-1.39-.84-2.09-1.25-.58-.5-1.15-1.01-1.73-1.51,0,0,.02,.09,.02,.09-.46-.31-.92-.62-1.38-.92v.28s.28,0,.28-.01c-.45-.38-.91-.76-1.36-1.14v.26s.27-.02,.27-.02c-.45-.32-.89-.64-1.34-.96,0,0,.09,.05,.09,.05-.71-.6-1.41-1.19-2.12-1.79,0,0-.11-.07-.11-.07-.58-.45-1.16-.89-1.74-1.34,0,0,.21,.22,.21,.22-.42-.34-.83-.67-1.25-1,0,0,.07,.04,.07,.04-1.05-1.38-2.4-2.38-4-3.02,0,0,.08,.06,.08,.06-.65-.46-1.3-.92-1.94-1.37l.03,.25s.25-.03,.25-.03c-.55-.91-1.31-1.55-2.35-1.82,0,0,.03,.02,.03,.02-1.01-1.5-.41-1.83,1.15-1.78,4.09,.13,8.21,.55,12.24,.5,30.35-.35,60.72,.57,91.06-.88,4.95-.01,9.91-.02,14.86-.03,.49,.06,.98,.16,1.46,.16,40.18,.39,80.36-.65,120.54-.96,1.31-.01,2.64-.03,3.93-.21,1.26-.18,2.66-.19,3.37-1.59l-.03,.03c1.32-1.17,.67-2.64,.63-4.02-.01-1.67-.02-3.34-.03-5.01-.31-3.59-.61-7.19-.92-10.78-.04-.66-.07-1.31-.11-1.97-.74-2.04-2.51-1.15-3.79-1.16-74.86-.18-149.72-.36-224.59-.35-6.96,0-14.12,.48-19.92,5.36,0,0,.04-.02,.04-.02-.37,.35-.74,.7-1.11,1.05,0,0,.13-.13,.13-.13-.37,.37-.74,.74-1.12,1.11l.05-.12c-.91,.35-1.15,1.15-1.3,2v-.07c-2.86,4.88-1.78,9.92-.58,14.97Zm86.76-85.94c10.33,.06,20.65,.67,30.97-.75,3.96-.55,6.15-1.57,5.05-6.15-.76-3.17-1.18-6.48-1.21-9.74-.03-3.76-1.71-4.66-5.17-4.58-16.57,.39-33.15,.08-49.73,.44-34.47,.73-68.96,.66-103.43,1.17-6.52,.1-13.13-.75-19.6,.88-2.11,4.14-.3,8.58-.95,12.82-.71,4.66,.63,6.3,5.87,6.27,42.63-.22,85.27-.06,127.91-.05,3.43,0,6.86-.21,10.29-.33Zm-129.44-121.62c0,.58,0,1.17,0,1.75-4.11,0-8.21,.07-12.32-.03-2.33-.06-3.19,.83-3.12,3.19,.14,5.09,.21,10.2,0,15.28-.13,2.99,.72,3.94,3.83,3.92,65.39-.37,130.78,.59,196.16-.97,12.14-.29,24.28-.69,36.41-1.18,27.87-1.13,55.74-2.29,83.61-3.57,10.81-.5,21.6-1.37,32.4-2,2.32-.13,3.46-.42,2.95-3.42-1.1-6.45-1.68-13-2.3-19.53-.26-2.71-1.27-3.42-4.04-3.19-8.01,.66-16.06,.54-24.09,.94-26.54,1.33-53.11,2.24-79.67,3.22-28.7,1.05-57.4,2.02-86.11,2.99-26.23,.89-52.46,2.01-78.7,2.51-21.66,.42-43.33,.09-65,.09Zm432.69-90.96c-.83-6.86-1.79-12.22-2.01-17.61-.16-3.77-1.66-4.09-4.83-3.62-32.77,4.88-65.57,9.59-98.33,14.49-31.47,4.7-62.93,9.42-94.5,13.38-23.11,2.9-46.2,5.97-69.31,8.9-2.72,.35-4.01,1.27-3.68,4.33,.78,7.16,1.39,14.35,1.79,21.55,.17,3.1,.91,4.23,4.35,3.79,15.78-2.01,31.61-3.57,47.39-5.58,39.03-4.98,78.03-10.25,116.9-16.4,32.39-5.12,64.89-9.57,96.8-17.42,4.5-1.11,6.75-2.49,5.43-5.81Zm-437.67-32.9c3.21-.2,6.8-.48,10.39-.65,23.42-1.15,46.85-2.02,70.25-3.47,26.98-1.67,53.93-3.72,80.88-5.82,28.76-2.24,57.48-5.01,86.03-9.23,3.7-.55,8.65,.23,10.73-2.42,2.24-2.87-.14-7.47-.44-11.32-.14-1.8-.56-3.59-.53-5.39,.08-4.5-1.99-5.48-6.3-5.15-27.76,2.11-55.54,4.11-83.33,5.81-28.79,1.77-57.6,3.21-86.4,4.7-29.47,1.53-58.94,3-88.42,4.37-3.01,.14-3.57,1.39-3.32,3.98,.63,6.52,1.32,13.05,1.61,19.59,.17,3.87,1.37,5.82,5.52,5.02,.95-.18,1.96-.03,3.34-.03Zm230.33,233.01c0,4.94,.04,9.05-.02,13.15-.03,2.1,.19,3.34,2.98,3.03,12.22-1.39,24.47-2.5,36.69-3.8,33.24-3.53,66.48-7.08,99.72-10.66,17.6-1.89,35.15-4.13,52.61-7.05,2.58-.43,3.62-1.26,3.24-4.1-.85-6.33-1.67-12.7-1.88-19.08-.13-3.92-1.53-4.54-5.04-4.15-15.15,1.68-30.33,3.16-45.5,4.65-42.75,4.21-85.4,9.44-128.2,13.18-4.7,.41-10.76-1.03-13.78,2-3.03,3.05-.3,8.99-.83,12.82Z"/>
  <path class="cls-5" d="M160.07,246.04c-.91,12.34-1.7,23.76-2.62,35.18-1.48,18.47-3.01,36.93-4.58,55.39-1.14,13.39-1.66,26.83-3.96,40.1-.56,3.24-1.18,6.49-2.98,9.3-1.24,1.94-2.72,3.91-5.4,3.69-2.74-.23-4.37-2.08-5.4-4.47-2.33-5.38-2.41-11.17-2.98-16.86-1.27-12.72-.52-25.59-2.96-38.23-1.26-6.53-3.25-12.75-7.72-17.84-7.17-8.14-16.47-8.58-26.29-7.1-8.15,1.22-15.96,3.72-23.82,6.07-2.66,.79-5.42,1.26-8.16,1.74-1.38,.24-3.15,1-4.04-.57-.88-1.56,.04-3.14,.98-4.55,3.14-4.71,7.26-8.48,11.78-11.77,14.38-10.47,30.13-18.6,45.8-26.9,12.76-6.76,25.27-13.96,37.91-20.95,1.12-.62,2.28-1.16,4.44-2.25Z"/>
  <path class="cls-5" d="M798.73,231.99c16.21,15.78,34.61,26.55,50.86,40.09,3.55,2.96,3.35,5.45,.94,8.56-7.15,9.21-14.14,18.54-21.55,27.53-14.74,17.87-28.75,36.29-42.48,54.93-1.1,1.49-1.88,3.49-4.31,4.16,7.32-44.53,12.7-89.08,16.54-135.28Z"/>
  <path class="cls-4" d="M302.76,516.88c-1.21-5.04-2.29-10.08,.58-14.97-.15,1.62-.27,3.24-.45,4.86-.94,8.31,1.46,11.09,9.62,11.09,30.65,0,61.3,0,91.94,.02,2.27,0,4.61-.33,6.77,.73-30.34,1.45-60.71,.53-91.06,.88-4.04,.05-8.16-.37-12.24-.5-1.56-.05-2.16,.28-1.15,1.78-2.26-.35-3.54-1.7-4-3.89Z"/>
  <path class="cls-4" d="M310.67,523.68c1.61,.65,2.95,1.65,4,3.02-1.92-.24-3.17-1.35-4-3.02Z"/>
  <path class="cls-4" d="M306.74,520.76c1.04,.27,1.8,.91,2.35,1.82-1.06-.24-1.83-.87-2.35-1.82Z"/>
  <path class="cls-4" d="M317.5,528.86c.71,.6,1.41,1.19,2.12,1.79-1.04-.2-1.75-.79-2.12-1.79Z"/>
  <path class="cls-4" d="M308.81,522.36c.65,.46,1.29,.92,1.94,1.37-.65-.46-1.3-.92-1.94-1.37Z"/>
  <path class="cls-4" d="M299.89,515.53c.64,.44,1.29,.89,1.93,1.33-.64-.44-1.29-.89-1.93-1.33Z"/>
  <path class="cls-4" d="M315.65,527.44c.58,.45,1.16,.89,1.74,1.34-.58-.45-1.16-.89-1.74-1.34Z"/>
  <path class="cls-4" d="M323.02,533.02c.58,.5,1.15,1.01,1.73,1.51-.86-.18-1.44-.68-1.73-1.51Z"/>
  <path class="cls-4" d="M314.6,526.66c.42,.33,.83,.67,1.25,1-.42-.33-.83-.67-1.25-1Z"/>
  <path class="cls-4" d="M298.91,514.61c.41,.41,.82,.81,1.23,1.22-.41-.4-.82-.81-1.23-1.22Z"/>
  <path class="cls-4" d="M319.53,530.59c.45,.32,.89,.64,1.34,.96-.45-.32-.89-.64-1.34-.96Z"/>
  <path class="cls-4" d="M320.59,531.31c.45,.38,.91,.76,1.36,1.14-.45-.38-.91-.76-1.36-1.14Z"/>
  <path class="cls-4" d="M321.67,532.19c.46,.31,.92,.61,1.38,.92-.46-.3-.92-.61-1.38-.92Z"/>
  <path class="cls-6" d="M260.08,309.33c21.67,0,43.34,.33,65-.09,26.24-.51,52.47-1.62,78.7-2.51,28.7-.97,57.41-1.93,86.11-2.99,26.56-.98,53.13-1.88,79.67-3.22,8.03-.4,16.08-.28,24.09-.94,2.77-.23,3.78,.49,4.04,3.19,.62,6.53,1.2,13.07,2.3,19.53,.51,3-.62,3.28-2.95,3.42-10.8,.63-21.59,1.5-32.4,2-27.87,1.28-55.74,2.44-83.61,3.57-12.13,.49-24.27,.89-36.41,1.18-65.38,1.57-130.77,.61-196.16,.97-3.11,.02-3.96-.93-3.83-3.92,.22-5.09,.15-10.19,0-15.28-.07-2.36,.79-3.25,3.12-3.19,4.1,.1,8.21,.03,12.32,.03,0-.58,0-1.17,0-1.75Z"/>
  <path class="cls-6" d="M692.77,218.37c1.32,3.32-.93,4.71-5.43,5.81-31.91,7.86-64.41,12.3-96.8,17.42-38.87,6.14-77.87,11.41-116.9,16.4-15.78,2.01-31.61,3.57-47.39,5.58-3.44,.44-4.18-.69-4.35-3.79-.4-7.19-1.01-14.38-1.79-21.55-.33-3.06,.96-3.99,3.68-4.33,23.11-2.93,46.2-6,69.31-8.9,31.57-3.97,63.03-8.68,94.5-13.38,32.77-4.9,65.56-9.6,98.33-14.49,3.16-.47,4.67-.14,4.83,3.62,.22,5.39,1.19,10.75,2.01,17.61Z"/>
  <path class="cls-6" d="M255.1,185.47c-1.38,0-2.39-.16-3.34,.03-4.15,.8-5.35-1.15-5.52-5.02-.28-6.54-.98-13.07-1.61-19.59-.25-2.59,.31-3.84,3.32-3.98,29.48-1.37,58.95-2.84,88.42-4.37,28.81-1.5,57.62-2.94,86.4-4.7,27.79-1.71,55.56-3.71,83.33-5.81,4.31-.33,6.38,.65,6.3,5.15-.03,1.79,.39,3.59,.53,5.39,.3,3.85,2.68,8.46,.44,11.32-2.08,2.66-7.03,1.88-10.73,2.42-28.55,4.22-57.26,6.99-86.03,9.23-26.95,2.1-53.9,4.15-80.88,5.82-23.4,1.45-46.83,2.32-70.25,3.47-3.59,.18-7.18,.45-10.39,.65Z"/>
  <path class="cls-6" d="M411.22,518.62c-2.17-1.07-4.5-.73-6.77-.73-30.65-.02-61.3-.01-91.94-.02-8.16,0-10.56-2.78-9.62-11.09,.18-1.62,.3-3.24,.45-4.86,0,0,0,.07,0,.07,.43-.67,.86-1.33,1.3-2,0,0-.05,.12-.05,.12,.37-.37,.74-.74,1.12-1.11,0,0-.13,.13-.13,.13,.37-.35,.74-.7,1.11-1.05,0,0-.04,.02-.04,.02,5.32-1.58,10.4-3.93,16.17-3.93,77.37,.06,154.75,.06,232.12,.07,.04,.66,.07,1.31,.11,1.97-.95,3.7-1.81,7.4,.92,10.78,.01,1.67,.02,3.34,.03,5.01-.71,1.26-.73,2.63-.63,4.02l.03-.03c-5.19,1.06-10.44,.9-15.69,.9-34,0-67.99,.02-101.99-.02-3.98,0-7.84,.49-11.62,1.72-4.95,.01-9.91,.02-14.86,.03Z"/>
  <path class="cls-6" d="M485.43,418.48c.53-3.82-2.21-9.77,.83-12.82,3.01-3.03,9.07-1.58,13.78-2,42.8-3.74,85.45-8.98,128.2-13.18,15.17-1.49,30.35-2.97,45.5-4.65,3.51-.39,4.91,.23,5.04,4.15,.21,6.38,1.02,12.75,1.88,19.08,.38,2.84-.66,3.67-3.24,4.1-17.46,2.92-35.01,5.15-52.61,7.05-33.24,3.58-66.48,7.13-99.72,10.66-12.23,1.3-24.48,2.4-36.69,3.8-2.79,.32-3.01-.93-2.98-3.03,.06-4.11,.02-8.21,.02-13.15Z"/>
  <path class="cls-6" d="M246.4,412.23c6.47-1.63,13.08-.78,19.6-.88,34.48-.51,68.96-.45,103.43-1.17,16.58-.35,33.16-.05,49.73-.44,3.46-.08,5.14,.82,5.17,4.58,.03,3.25,.45,6.57,1.21,9.74,1.1,4.58-1.09,5.6-5.05,6.15-10.31,1.42-20.64,.8-30.97,.75-2.13-1.24-4.47-.84-6.74-.84-31.34-.02-62.69-.01-94.03-.01-12.14,0-24.29-.16-36.43,.09-4.62,.1-6.36-1.64-5.79-6.04,.47-3.65-1.11-7.52,1.28-11.02,.41-.6-.87-.64-1.4-.89Z"/>
  <path class="cls-4" d="M554.93,494.24c-77.37-.01-154.75,0-232.12-.07-5.77,0-10.85,2.35-16.17,3.93,5.8-4.89,12.96-5.36,19.92-5.36,74.86,0,149.72,.17,224.59,.35,1.28,0,3.05-.89,3.79,1.16Z"/>
  <path class="cls-4" d="M426.09,518.59c3.78-1.22,7.64-1.72,11.62-1.72,34,.04,67.99,.01,101.99,.02,5.25,0,10.5,.16,15.69-.9-.71,1.4-2.12,1.41-3.37,1.59-1.29,.18-2.62,.2-3.93,.21-40.18,.31-80.35,1.35-120.54,.96-.49,0-.98-.11-1.46-.16Z"/>
  <path class="cls-7" d="M246.4,412.23c.53,.25,1.81,.3,1.4,.89-2.39,3.5-.81,7.36-1.28,11.02-.57,4.4,1.17,6.14,5.79,6.04,12.14-.25,24.29-.09,36.43-.09,31.34,0,62.69,0,94.03,.01,2.27,0,4.62-.4,6.74,.84-3.43,.11-6.86,.33-10.29,.33-42.64-.01-85.27-.17-127.91,.05-5.25,.03-6.58-1.61-5.87-6.27,.65-4.24-1.17-8.68,.95-12.82Z"/>
  <path class="cls-4" d="M555.97,506.99c-2.73-3.39-1.87-7.08-.92-10.78,.31,3.59,.61,7.19,.92,10.78Z"/>
  <path class="cls-4" d="M555.36,516.03c-.09-1.39-.08-2.76,.63-4.02,.04,1.38,.69,2.86-.63,4.02Z"/>
  <path class="cls-4" d="M304.64,499.99c-.43,.67-.86,1.33-1.3,2,.15-.85,.38-1.64,1.3-2Z"/>
  <path class="cls-4" d="M306.68,498.08c-.37,.35-.74,.7-1.11,1.05,.37-.35,.74-.7,1.11-1.05Z"/>
  <path class="cls-4" d="M305.7,499c-.37,.37-.74,.74-1.12,1.11,.37-.37,.74-.74,1.12-1.11Z"/>
</svg>