<?xml version="1.0" encoding="UTF-8" standalone="no"?>
<!DOCTYPE svg PUBLIC "-//W3C//DTD SVG 1.1//EN" "http://www.w3.org/Graphics/SVG/1.1/DTD/svg11.dtd">
<svg width="100%" height="100%" viewBox="0 0 1920 1920" version="1.1" xmlns="http://www.w3.org/2000/svg" xmlns:xlink="http://www.w3.org/1999/xlink" xml:space="preserve" xmlns:serif="http://www.serif.com/" style="fill-rule:evenodd;clip-rule:evenodd;stroke-linejoin:round;stroke-miterlimit:2;">
    <g id="Background" transform="matrix(1.875,0,0,1.875,0,0)">
        <path d="M1023.999,30.5L1023.999,1023.999C1022.503,1025.265 1022.19,1023.999 999.5,1023.999L-0,1023.999C-1.027,1022.092 0,1019.666 0,1017.5L0,0C2.148,-1.157 2.338,0 30.5,0L1023.999,0C1025.156,2.148 1023.999,2.338 1023.999,30.5Z"/>
        <path d="M498.5,888.053C488.266,888.05 474.233,888.792 474.05,884.572C473.946,882.159 474.133,762.079 473.953,754.505C473.784,747.39 492.014,751.556 499.459,749.384C503.611,748.172 503.658,748.508 507.684,750.038C510.197,750.993 514.827,749.493 515.419,749.301C518.462,748.315 542.743,748.211 546.41,747.225C554.349,745.091 554.749,750.105 562.372,747.228C565.032,746.224 589.169,745.851 591.502,745.815C594.62,745.767 594.478,744.785 600.459,744.983C600.797,744.994 603.207,746.081 604.49,746.022C607.947,745.864 619.819,743.985 636.5,743.948C645.186,743.928 664.145,742.405 669.301,743.984C672.011,744.814 675.792,743.095 676.44,743.064C676.672,743.052 774.441,742.556 776.581,743.298C781.411,744.972 799.042,742.114 809.43,743.81C810.858,744.043 810.865,743.434 827.499,744.516C831.253,744.76 836.537,743.803 840.537,745.413C841.071,745.627 847.938,746.216 849.573,745.676C854.185,744.15 854.266,745.399 872.483,745.94C879.57,746.151 879.47,746.543 886.434,747.835C889.442,748.394 891.346,746.305 894.585,747.181C900.47,748.772 900.716,747.132 908.587,749.249C912.4,750.274 920.434,747.633 925.437,756.54C929.332,763.473 927.971,763.902 930.638,771.456C930.8,771.915 930.446,771.941 931.777,777.43C932.169,779.046 931.1,780.621 931.274,781.543C931.484,782.653 932.635,786.946 932.76,787.414C933.135,788.81 931.856,788.919 933.935,805.444C934.089,806.666 933.838,827.842 934.045,838.496C934.065,839.538 933.357,839.477 933.159,851.494C933.067,857.121 932.526,856.968 931.492,862.499C931.368,863.163 933.727,886.027 903.516,888.674C896.888,889.255 896.641,886.889 890.443,889.371C889.995,889.55 849.275,891.44 846.447,890.777C840.554,889.396 840.56,890.985 834.5,891.048C806.779,891.337 805.932,891.065 803.575,890.309C801.581,889.67 770.992,890.275 753.505,889.967C752.142,889.943 752.234,890.978 736.5,890.979C709.044,890.98 709.017,891.127 706.573,890.323C702.275,888.911 702.226,890.862 689.502,890.869C655.488,890.89 655.561,889.747 621.5,889.754C605.497,889.757 605.441,890.06 602.359,888.846C601.105,888.352 601.021,889.127 585.534,888.056C578.777,887.589 556.442,890.577 548.573,888.288C547.125,887.867 520.603,889.555 510.559,888.132C509.735,888.015 500.443,888.055 498.5,888.053Z" style="fill:rgb(255,74,23);"/>
        <path d="M933.051,520.5C933.043,526.342 933.468,527.351 932.318,531.44C931.869,533.038 932.759,535.206 931.335,539.431C929.541,544.759 933.527,545.219 931.3,552.423C930.97,553.49 931.197,570.706 929.33,576.432C927.495,582.059 930.804,582.293 929.221,589.422C928.353,593.33 932.008,600.968 923.5,600.978C887.733,601.022 478.476,601.524 476.412,600.692C471.952,598.892 476.763,596.366 474.091,588.675C473.799,587.836 472.484,573.844 472.556,566.5C472.616,560.41 470.937,560.354 472.678,554.567C472.684,554.545 467.187,506.83 472.416,492.467C472.58,492.015 471.216,489.906 473.997,480.611C478.902,464.215 488.39,466.705 504.425,464.159C509.285,463.387 513.693,463.395 514.501,463.397C516.831,463.401 517.978,465.125 522.542,463.604C525.01,462.781 536.313,461.867 547.494,461.955C550.09,461.976 549.9,461.188 552.482,461.151C563.977,460.985 565.184,463.566 572.416,461.287C576.346,460.049 631.001,459.893 631.579,459.685C634.519,458.626 634.541,459.139 658.5,459.024C660.422,459.014 660.36,459.998 682.5,459.997C779.204,459.992 779.261,460.135 781.446,459.376C782.125,459.141 804.115,458.244 808.422,459.684C811.695,460.778 831.666,458.681 840.425,460.817C841.052,460.969 841.144,460.172 848.422,461.812C851.943,462.605 857.366,459.576 873.445,463.667C875.168,464.105 875.411,462.084 895.42,466.911C900.849,468.221 915.096,472.077 924.235,482.739C929.234,488.572 930.844,497.208 931.097,498.564C932.118,504.038 931.116,504.131 932.716,509.419C932.897,510.017 932.866,509.975 933.051,520.5Z" style="fill:rgb(255,74,23);"/>
        <path d="M723.5,194.948C728.547,195.042 728.46,195.022 733.5,195.023C749.224,195.025 749.174,196.083 750.531,195.945C751.345,195.862 815.05,196.04 815.583,196.201C823.22,198.498 829.892,196.424 833.544,197.218C844.33,199.566 849.44,196.973 852.503,196.95C881.088,196.736 881.061,198.263 883.527,197.966C887.052,197.541 887.032,197.045 917.502,197.139C920.61,197.148 920.445,198.303 923.523,197.969C932.764,196.967 927.838,208.246 929.698,213.418C930.711,216.233 931.944,229.694 931.663,230.566C930.474,234.263 935.175,245.892 933.381,252.462C932.499,255.691 934.458,255.533 935.066,263.526C935.746,272.461 936.275,276.796 935.697,278.58C934.12,283.446 936.572,285.656 936.603,288.499C936.866,313.328 935.621,313.297 935.823,315.444C936.442,322.003 918.376,324.142 915.574,323.306C915.324,323.231 896.123,326.843 892.428,325.683C887.787,324.226 887.887,326.119 885.471,326.243C878.02,326.627 878.126,327.018 877.484,327.036C858.085,327.56 858.04,326.831 856.423,327.304C849.919,329.207 846.259,327.544 843.558,327.081C842.384,326.88 830.777,327.638 830.589,327.714C826.056,329.541 780.462,329.044 779.417,328.743C776.459,327.891 776.671,329.746 773.5,329.749C553.561,329.97 551.43,329.259 547.419,327.712C545.326,326.905 526.509,329.066 517.514,325.469C515.071,324.493 515.056,326.467 512.43,325.874C501.474,323.401 501.396,323.916 500.451,323.677C494.79,322.238 494.967,321.729 494.468,321.65C478.933,319.175 470.069,303.699 469.985,295.485C469.898,286.954 467.783,286.925 469.814,278.572C470.303,276.559 468.151,252.743 469.441,249.474C471.796,243.502 469.096,241.003 470.438,234.487C472.39,225.009 472.167,222.694 472.216,222.436C475.952,202.526 481.222,201.388 492.61,198.844C505.168,196.039 505.371,197.557 506.429,197.212C513.317,194.968 513.638,197.169 518.551,195.636C524.869,193.665 527.516,195.961 529.488,195.461C539.535,192.914 541.481,197.229 546.53,195.578C551.629,193.911 556.313,196.097 561.419,194.304C563.046,193.732 631.094,194.035 631.588,194.163C639.108,196.111 653.156,194.411 657.572,195.096C659.073,195.329 671.883,197.317 676.557,195.626C676.87,195.512 676.813,194.685 703.496,194.832C704.911,194.84 708.733,196.537 711.573,195.823C717.503,194.33 717.485,194.963 723.5,194.948Z" style="fill:rgb(255,74,23);"/>
        <path d="M243.518,647.031C229.407,643.744 189.928,607.657 183.833,603.065C180.731,600.728 137.705,561.525 134.647,558.358C127.576,551.036 104.825,528.881 102.013,524.813C98.589,519.859 88.082,512.135 90.772,504.593C95.252,492.028 121.37,464.23 132.822,452.862C133.067,452.619 134.869,451.7 135.301,451.284C152.652,434.592 152.11,434.077 153.68,432.696C167.31,420.706 169.277,415.195 173.435,417.617C176.968,419.675 197.574,438.5 199.623,440.372C204.626,444.942 227.458,464.939 229.887,467.066C239.861,475.801 239.343,476.41 240.465,476.611C243.065,477.075 330.788,370.542 346.42,367.145C358.651,364.488 396.417,410.772 409.914,430.221C424.396,451.088 423.047,454.698 418.614,461.574C408.782,476.821 408.01,476.185 381.898,507.862C364.305,529.204 260.954,644.857 243.518,647.031Z" style="fill:rgb(255,74,23);"/>
        <path d="M186.252,876.748C185.108,875.649 177.254,868.108 171.554,863.432C164.142,857.353 120.659,814.468 115.891,808.203C107.57,797.27 100.946,794.077 100.98,782.497C101.004,774.587 125.134,747.695 133.488,739.489C160.322,713.127 172.313,707.788 176.283,706.02C198.424,696.162 238.441,757.301 242.492,757.252C244.047,757.234 268.426,729.388 285.51,711.509C289.34,707.5 318.09,677.412 337.737,665.941C342.784,662.994 344.871,664.708 346.5,664.5C362.171,662.491 417.736,702.395 429.221,727.623C429.956,729.236 432.399,734.603 421.242,748.3C420.243,749.528 411.091,760.762 408.922,763.789C402.798,772.337 390.4,785.738 388.297,788.322C378.905,799.866 377.954,798.969 368.56,810.547C360.926,819.957 282.134,903.619 258.202,920.049C249.117,926.287 244.855,927.069 186.252,876.748Z" style="fill:rgb(255,74,23);"/>
        <path d="M359.497,110.952C363.337,111.622 366.388,110.197 382.817,122.069C393.937,130.106 412.084,147.296 420.984,160.164C434.911,180.299 433.512,183.969 417.645,202.618C414.374,206.463 405.702,217.793 394.698,229.704C392.968,231.576 393.18,231.695 373.42,253.423C353.425,275.408 263.265,370.609 251.505,370.803C236.302,371.053 120.059,266.798 103.028,238.751C100.183,234.067 100.343,233.859 101.099,228.442C103.249,213.024 166.259,149.833 184.508,152.437C187.618,152.881 188.264,151.259 192.299,152.93C222.952,165.626 241.23,207.48 245.408,206.063C250.251,204.422 331.363,112.765 359.497,110.952Z" style="fill:rgb(255,74,23);"/>
        <path d="M726.5,502.051C746.846,502.644 746.881,503.204 748.579,502.715C751.572,501.854 751.475,502.932 754.514,503.394C755.551,503.551 764.892,504.969 767.527,505.017C775.678,505.166 797.382,510.022 802.681,512.101C814.763,516.844 814.86,517.105 820.722,525.337C828.07,535.657 832.852,534.812 838.831,523.68C848.027,506.561 887.11,513.868 884.908,540.552C884.07,550.694 869.267,556.371 866.415,557.026C857.177,559.146 857.319,559.745 856.497,559.729C844.775,559.506 801.525,567.458 800.64,547.492C799.822,529.031 786.877,524.415 775.888,540.766C771.242,547.68 774.067,551.06 760.422,556.323C759.643,556.624 752.154,559.513 750.504,559.569C744.225,559.781 744.317,560.104 731.465,562.002C730.904,562.085 710.239,559.378 709.698,559.118C700.31,554.594 698.532,556.13 694.053,546.729C686.577,531.037 677.326,551.263 660.567,554.834C650.241,557.034 650.387,557.761 649.476,557.673C648.428,557.572 643.822,557.128 636.414,559.287C632.992,560.284 632.956,558.989 629.496,559.437C601.845,563.014 559.656,559.471 558.591,559.191C553.656,557.896 542.989,557.477 532.424,553.759C530.345,553.028 513.455,547.084 513.748,533.503C513.984,522.624 515.855,518.443 532.423,514.261C539.329,512.519 539.322,513.787 546.455,514.824C547.604,514.991 556.634,516.305 560.052,519.896C562.993,522.986 560.63,534.765 574.488,534.27C580.495,534.055 585.549,524.697 585.737,519.509C586.96,485.724 608.712,515.124 619.249,524.774C636.433,540.511 649.016,535.301 643.675,517.432C640.218,505.864 674.671,504.661 678.372,503.183C682.259,501.629 682.386,503.284 686.541,502.95C699.839,501.878 699.803,502.045 726.5,502.051Z"/>
        <path d="M736.5,238.052C745.136,237.473 749.322,238.809 751.423,238.156C757.25,236.344 757.138,238.629 761.541,239.016C763.058,239.15 780.041,240.644 780.506,240.553C785.881,239.497 792.328,242.834 795.492,242.795C799.132,242.749 798.927,243.461 802.55,244.025C813.205,245.684 817.145,251.055 821.18,253.876C837.939,265.592 835.381,246.973 848.591,240.702C859.334,235.603 859.912,237.556 867.594,240.216C879.609,244.378 885.291,255.513 886.069,259.57C888.377,271.598 888.997,271.508 888.856,272.561C887.389,283.503 870.147,283.015 866.405,284.285C861.615,285.91 861.577,283.816 856.499,283.985C843.445,284.421 843.624,285.477 842.499,285.435C801.851,283.953 801.693,285.981 798.388,284.742C791.833,282.284 785.034,286.173 780.428,284.678C777.49,283.725 777.418,284.566 774.448,283.638C769.586,282.117 769.387,283.935 764.477,282.575C760.983,281.606 760.822,283.077 757.327,281.933C750.684,279.759 738.32,279.59 734.568,272.46C725.506,255.245 721.402,269.864 718.034,275.225C713.905,281.796 700.815,284.764 700.446,284.685C695.984,283.733 696.035,284.033 691.545,284.701C691.344,284.731 683.569,281.925 680.62,280.265C672.053,275.442 672.636,254.931 656.568,269.573C644.87,280.233 632.102,279.343 626.402,281.197C621.377,282.831 609.896,282.771 605.406,284.283C599.063,286.419 598.656,281.99 592.434,284.355C589.413,285.504 589.299,284.931 564.495,285.022C553.037,285.064 552.968,282.769 548.443,284.374C547.456,284.724 545.102,285.559 535.478,282.564C526,279.613 527.047,277.774 523.305,268.574C522.627,266.906 524.068,265.957 524.083,263.496C524.133,255.516 524.15,251.686 523.715,250.407C522.433,246.643 524.296,246.839 525.051,243.421C525.125,243.09 525.097,242.741 525.175,242.411C527.252,233.662 557.114,273.868 570.603,266.67C580.091,261.606 563.501,238.343 573.523,237.744C582.805,237.189 580.231,254.714 584.737,260.317C596.905,275.45 614.811,265.502 613.739,259.44C612.743,253.809 615.039,253.191 612.25,249.711C611.386,248.633 607.427,242.593 626.528,239.995C642.201,237.862 642.185,237.106 643.497,237.508C651.793,240.055 651.896,236.928 654.519,237.403C662.425,238.837 662.392,238.05 670.5,238.048C681.768,238.044 681.587,236.174 682.528,236.416C689.688,238.257 710.789,236.644 716.523,237.204C726.509,238.18 726.43,238.047 736.5,238.052Z"/>
        <path d="M876.672,807.811L877.41,807.84C878.194,810.195 878.503,810.123 878.162,811.379C875.898,819.737 879.067,820.254 877.048,824.256C871.675,834.905 854.165,832.519 847.57,834.67C842.738,836.247 842.638,834.342 837.543,834.881C828.815,835.804 825.729,834.284 822.419,835.284C817.565,836.752 788.697,835.546 786.418,836.268C778.289,838.844 778.023,836.476 769.562,837.9C768.71,838.043 744.133,837.99 743.431,837.878C733.303,836.261 733.215,837.07 732.381,836.763C727.048,834.798 693.149,837.306 677.616,828.295C673.141,825.699 665.495,808.828 657.984,823.722C654.995,829.648 652.384,833.634 622.428,836.139C618.886,836.435 619.043,838.074 615.587,837.16C613.215,836.533 567.391,838.741 565.281,837.988C558.895,835.707 550.758,838.116 543.463,836.982C540.055,836.453 539.075,838.535 535.745,837.018C530.352,834.562 526.455,836.689 518.668,832.212C515.393,830.33 512.307,820.498 513.325,817.428C516.533,807.76 515.533,806.332 524.713,801.874C528.004,800.276 548.477,800.995 550.347,801.8C558.329,805.235 561.021,803.808 561.825,812.454C562.145,815.896 568.443,821.363 571.555,820.696C574.554,820.053 574.747,821.775 577.39,820.301C586.696,815.114 585.565,801.59 586.288,799.421C588.716,792.132 596.296,790.839 596.448,790.848C605.09,791.371 611.057,790.796 615.926,803.314C621.995,818.917 632.044,805.881 643.735,797.824C648.54,794.513 668.361,789.978 669.562,790.328C677.758,792.715 679.29,789.179 682.466,790.574C685.937,792.099 701.774,794.067 706.61,801.421C708.501,804.297 707.929,804.512 709.637,807.425C719.206,823.74 726.113,819.979 727.556,820.222C735.973,821.639 738.988,808.16 739.016,807.474C739.312,800.039 739.831,800.129 739.833,799.487C739.868,790.477 751.217,783.364 760.417,806.535C762.988,813.01 772.236,821.278 775.553,820.711C781.034,819.775 780.992,820.472 781.45,820.353C789.362,818.303 790.24,805.008 790.341,803.486C790.802,796.496 798.584,793.228 799.606,792.979C805.068,791.65 804.851,790.392 810.519,791.031C812.21,791.221 812.148,790.079 824.502,790.25C826.586,790.279 826.492,791.438 830.581,790.832C831.397,790.711 832.218,790.589 840.594,793.3C844.427,794.541 843.579,795.553 846.856,800.266C848.435,802.537 846.094,828.714 858.442,830.714C871.274,832.794 876.455,808.289 876.672,807.811Z"/>
        <path d="M305.946,499.504C304.217,517.653 296.397,519.377 294.582,519.778C286.862,521.48 283.565,519.784 276.79,529.702C272.425,536.093 278.814,541.503 265.954,562.761C264.601,564.998 253.547,583.271 243.511,586.529C236.287,588.874 211.489,567.658 213.233,549.467C213.443,547.28 224.513,525.2 202.622,532.947C201.734,533.261 186.433,538.676 190.899,531.766C194.063,526.871 200.368,510.799 190.475,511.208C179.187,511.675 179.683,515.157 168.48,514.827C160.338,514.587 151.546,499.741 166.639,487.688C188.431,470.285 203.61,558.749 256.234,524.102C295.079,498.527 346.834,418.591 356.673,437.397C357.27,438.537 370.056,455.496 341.376,478.331C332.01,485.788 321.334,482.58 319.645,482.072C312.143,479.818 304.616,486.777 306.154,495.578C306.154,495.578 305.962,499.19 305.946,499.504Z"/>
        <path d="M217.05,820.501C215.211,805.012 202.638,809.331 192.352,813.086C182.436,816.705 197.601,787.881 194.173,782.736C189.352,775.499 185.543,779.371 182.512,779.296C177.014,779.16 159.284,787.368 157.673,785.351C157.081,784.609 167.806,768.48 175.452,766.324C186.816,763.12 226.484,809.537 242.056,821.994C250.527,828.771 249.731,819.344 298.7,774.726C310.471,764.002 330.226,752.924 335.213,756.836C338.573,759.473 349.062,761.904 343.47,762.391C320.209,764.415 311.499,789.813 306.347,797.395C289.371,822.377 278.858,817.757 264.379,832.378C250.491,846.402 256.125,855.068 254.688,859.574C253.033,864.763 253.502,864.863 253.184,865.204C250.366,868.215 215.99,837.674 217.05,820.501Z"/>
        <path d="M213.506,266.03C221.315,265.299 232.114,258.477 233.623,270.485C233.9,272.689 232.213,282.439 242.747,288.08C249.206,291.539 258.636,281.211 257.213,274.585C256.355,270.587 260.748,255.62 267.419,257.7C272.988,259.437 283.839,260.66 276.01,281.355C272.61,290.343 254.97,313.677 254.588,313.758C252.24,314.258 238.164,300.488 230.858,295.035C228.957,293.616 229.242,293.331 208.217,275.877C165.761,240.633 165.121,232.021 163.289,228.607C161.449,225.178 174.678,200.548 194.182,221.783C199.536,227.612 205.375,246.593 203.3,253.42C202.485,256.1 206.411,262.815 206.848,263.154C210.384,265.903 210.673,265.527 213.506,266.03Z"/>
        <path d="M328.503,215.035C343.138,213.05 338.592,196.01 340.721,188.58C341.079,187.33 340.39,185.246 340.67,184.571C345.307,173.4 343.874,171.458 354.311,167.043C359.047,165.04 359.391,164.794 365.333,167.841C372.97,171.757 369.951,177.698 369.536,178.517C357.882,201.451 306.766,251.222 298.626,245.318C293.42,241.543 288.943,218.259 312.575,212.719C319.595,211.073 319.482,213.156 328.503,215.035Z"/>
        <path d="M739.056,532.5C738.967,533.949 738.24,545.905 725.495,544.564C723.056,544.307 714.082,540.475 715.712,533.558C716.101,531.908 714.216,529.072 716.887,525.806C723.831,517.315 737.412,517.866 739.056,532.5Z" style="fill:rgb(252,239,30);"/>
        <path d="M352.518,734.95C345.129,735.766 323.222,734.909 340.663,721.719C352.031,713.122 365.803,727.986 360.49,732.486C357.138,735.325 356.761,734.3 352.518,734.95Z"/>
        <path d="M876.672,807.811C876.439,807.255 875.662,807.055 875.428,806.5C875.38,806.387 876.217,804.914 876.589,804.647C879.386,802.643 877.503,807.594 877.41,807.84L876.672,807.811Z" style="fill:rgb(247,246,2);"/>
    </g>
</svg>
