<?xml version="1.0" encoding="UTF-8" standalone="no"?>
<!DOCTYPE svg PUBLIC "-//W3C//DTD SVG 1.1//EN" "http://www.w3.org/Graphics/SVG/1.1/DTD/svg11.dtd">
<svg width="100%" height="100%" viewBox="0 0 1920 1920" version="1.1" xmlns="http://www.w3.org/2000/svg" xmlns:xlink="http://www.w3.org/1999/xlink" xml:space="preserve" xmlns:serif="http://www.serif.com/" style="fill-rule:evenodd;clip-rule:evenodd;stroke-linejoin:round;stroke-miterlimit:2;">
    <g id="Background" transform="matrix(1.875,0,0,1.875,0,0)">
        <path d="M1023.999,30.5L1023.999,1023.999C1022.503,1025.265 1022.19,1023.999 999.5,1023.999L-0,1023.999C-1.027,1022.092 0,1019.666 0,1017.5L0,0C2.148,-1.157 2.338,0 30.5,0L1023.999,0C1025.156,2.148 1023.999,2.338 1023.999,30.5Z"/>
        <path d="M889.48,82.037C891.086,81.987 904.986,81.548 909.56,82.207C914.223,82.879 925.292,80.578 947.556,85.186C950.001,85.692 966.745,89.157 975.135,99.792C990.839,119.695 983.39,201.535 983.26,202.463C982.145,210.413 983.349,210.401 982.848,213.567C979.583,234.209 978.977,251.81 968.51,291.503C941.886,392.455 897.729,433.097 897.426,433.434C846.553,490.049 774.516,550.973 761.599,562.602C712.174,607.098 629.468,672.579 617.748,681.858C536.512,746.175 515.215,773.308 467.083,844.215C386.1,963.52 382.027,960.468 353.931,994.927C346.276,1004.316 344.328,995.875 320.344,969.623C308.643,956.816 308.711,956.849 297.104,943.882C295.216,941.774 277.667,922.172 273.079,917.923C258.377,904.309 249.713,895.208 245.428,893.709C238.44,891.265 223.351,945.805 200.411,941.835C187.874,939.665 102.506,849.035 98.807,844.254C91.464,834.762 47.64,789.107 52.184,764.437C56.078,743.294 96.088,749.385 101.803,735.624C108.858,718.64 37.223,654.028 29.492,630.503C28.646,627.929 27.694,625.032 53.811,606.939C61.269,601.773 101.585,573.843 148.773,544.943C289.817,458.558 333.722,426.355 407.715,351.71C440.743,318.39 441.384,319.153 444.248,316.258C503.021,256.839 580.663,191.272 606.246,172.166C646.359,142.208 680.516,109.293 806.571,88.985C845.577,82.701 845.788,84.587 850.565,83.862C869.879,80.931 869.972,83.04 889.48,82.037Z" style="fill:rgb(255,74,23);"/>
        <path d="M529.956,351.499C530.361,344.273 531.23,344.136 528.53,337.487C524.771,328.23 519.601,318.158 518.503,315.498C512.867,301.833 537.264,317.466 557.564,315.89C566.661,315.184 559.899,297.979 560.098,291.483C560.468,279.447 578.588,258.065 579.815,256.78C600.578,235.029 616.303,231.38 621.502,229.506C628.543,226.969 629.266,235.406 644.462,233.153C646.404,232.865 650.32,234.456 653.405,233.23C673.041,225.428 653.433,204.269 651.952,202.173C642.391,188.638 676.74,206.869 699.747,221.109C773.669,266.863 864.292,391.795 855.376,402.409C848.084,411.09 823.897,341.346 795.421,346.167C780.352,348.719 789.548,363.028 816.066,407.743C828.03,427.918 830.656,430.411 826.114,435.118C816.249,445.34 816.175,445.113 806.418,455.42C769.913,493.983 624.94,615.584 589.239,636.003C571.627,646.077 570.846,636.947 568.037,632.831C563.626,626.368 556.165,624.612 550.654,629.674C538.117,641.192 545.101,661.667 545.273,662.554C548.036,676.767 532.555,667.708 523.546,666.197C497.208,661.78 521.37,689.463 510.278,703.335C495.49,721.828 468.618,714.834 463.505,714.931C436.044,715.451 462.607,738.868 449.418,750.406C439.92,758.717 445.42,739.768 434.529,736.418C411.44,729.316 423.09,775.753 409.456,776.005C398.789,776.202 403.265,757.556 391.544,756.126C373.172,753.886 378.762,795.677 375.091,802.262C372.384,807.118 358.75,787.315 348.465,786.994C331.763,786.473 339.978,813.058 340.014,813.515C340.696,822.17 343.001,822.178 340.8,830.581C335.425,851.101 298.089,865.286 294.484,864.644C277.798,861.67 321.891,829.042 316.575,814.47C311.084,799.418 277.664,825.343 262.478,824.759C258.564,824.608 259.633,820.555 264.502,820.658C278.71,820.96 280.83,801.57 276.258,793.633C265.073,774.215 247.506,803.632 238.471,802.845C229.687,802.08 236.565,792.871 237.08,792.182C279.319,735.622 357.724,680.446 396.114,630.199C404.2,619.615 399.864,611.343 389.45,613.237C370.013,616.771 228.698,753.02 213.257,765.128C211.986,766.125 211.243,766.057 197.547,752.455C193.373,748.31 149.236,704.477 145.599,700.413C141.4,695.721 149.914,691.127 156.984,681.909C157.358,681.422 168.705,668.836 169.728,667.702C218.378,613.743 234.281,598.779 242.515,599.092C248.706,599.327 260.08,626.973 271.252,613.304C277.323,605.876 274.102,584.279 273.737,582.45C269.772,562.63 270.021,562.585 269.689,561.445C269.563,561.012 266.154,549.331 270.104,555.83C275.307,564.388 275.866,563.914 282.082,571.853C283.47,573.626 295.649,589.18 303.586,590.015C328.144,592.6 299.168,537.44 301.517,530.506C306.172,516.767 322.744,541.321 326.986,546.054C340.511,561.142 337.828,543.335 338.154,541.429C338.342,540.328 339.254,535.001 337.597,527.478C335.541,518.15 337.088,518.114 336.693,508.488C336.645,507.321 336.157,495.436 340.468,494.385C345.43,493.174 346.024,501.76 346.079,502.55C346.382,506.935 351.459,512.547 354.563,513.138C364.389,515.01 368.125,506.623 370.648,489.522C371.627,482.886 367.97,482.008 374.507,464.503C386.26,433.034 438.949,390.327 439.22,390.122C451.004,381.181 454.638,382.985 467.038,399.842C485.256,424.608 482.9,387.759 482.835,372.486C482.804,364.885 484.42,364.979 483.385,357.514C483.169,355.96 487.525,344.277 487.9,343.743C496.362,331.697 513.143,362.878 524.547,359.69C531.169,357.839 529.862,353.036 529.956,351.499Z"/>
        <path d="M797.371,254.678C797.765,250.355 803.792,243.676 808.686,229.561C817.791,203.295 782.986,213.005 775.998,222.877C770.218,231.043 764.312,231.097 702.821,186.07C689.924,176.627 689.451,176.886 689.336,175.521C689.151,173.331 690.69,174.498 718.435,163.371C725.767,160.43 757.655,149.69 769.442,148.129C784.701,146.108 785.962,154.103 786.191,155.55C786.79,159.35 786.298,177.894 801.408,175.115C804.531,174.541 811.533,169.907 815.702,159.586C817.847,154.276 822.517,138.065 825.048,141.888C826.83,144.582 830.863,156.723 849.552,154.84C860.868,153.7 861.86,142.98 861.995,141.529C863.361,126.779 878.183,168.225 887.675,149.594C889.787,145.449 891.976,137.689 905.504,135.522C911.66,134.536 931.559,136.328 931.037,154.487C930.219,182.958 932.235,193.389 930.126,205.431C927.859,218.375 929.506,218.496 927.263,231.46C926.98,233.096 923.991,272.322 906.81,323.595C904.176,331.458 893.864,361.671 875.371,374.261C868.719,378.791 879.781,360.595 886.46,335.488C887.971,329.81 901.152,293.718 891.71,301.761C888.527,304.471 888.698,304.54 852.325,336.097L851.625,336.006C849.877,332.469 852.421,332.155 857.261,306.446C864.86,266.078 844.661,276.029 842.416,277.364C830.629,284.375 817.975,303.531 823.399,284.471C825.57,276.841 851.576,234.88 830.546,230.293C818.428,227.65 803.753,247.951 802.127,250.2C800.114,252.986 800.614,253.636 797.371,254.678Z"/>
        <path d="M738.952,318.5C738.41,336.236 723.344,326.468 714.695,322.12C702.641,316.06 690.911,302.059 663.499,302.094C620.735,302.148 591.302,334.248 597.725,342.332C599.802,344.946 601.374,344.811 601.98,341.585C603.343,334.326 609.686,328.42 626.759,318.976C635.485,314.149 657.827,306.324 666.56,308.232C703.329,316.263 770.165,376.457 713.061,435.038C675.528,473.543 602.549,446.146 593.246,399.564C590.392,385.275 593.335,376.51 587.567,366.456C583.5,359.367 569.172,368.835 565.389,355.533C562.007,343.643 575.766,320.976 587.839,308.826C621.44,275.011 637.671,274.537 671.494,274.903C683.683,275.034 737.68,284.334 738.952,318.5Z" style="fill:rgb(255,74,23);"/>
        <path d="M506.515,590.066C503.668,589.609 491.692,591.514 466.706,566.295C459.561,559.083 443.215,536.78 439.337,518.535C432.351,485.669 479.259,444.138 506.591,438.977C532.303,434.122 569.71,470.698 581.052,490.726C597.345,519.496 566.971,570.381 536.283,584.01C518.626,591.851 509.95,590.061 506.515,590.066Z" style="fill:rgb(255,74,23);"/>
        <path d="M660.508,338.942C666.134,339.773 666.023,339.79 671.577,341.008C695.599,346.274 702.472,370.564 703.062,377.553C705.032,400.905 697.18,412.015 676.436,415.074C666.602,416.524 647.967,418.766 633.71,410.16C606.812,393.924 620.647,342.032 660.508,338.942Z"/>
        <path d="M550.033,516.491C545.416,573.9 471.88,581.263 474.979,499.536C476.17,468.121 537.664,461.896 547.708,501.433C548.762,505.58 548.527,505.515 550.033,516.491Z"/>
        <path d="M179.709,812.291C187.53,820.3 225.708,854.841 200.679,863.93C182.699,870.459 125.939,804.011 125.135,792.544C123.882,774.658 140.433,777.025 166.815,800.127C173.503,805.984 173.322,806.05 179.709,812.291Z"/>
        <path d="M672.5,460.049C672.745,460.02 675.56,459.695 675.56,459.695C686.948,456.568 687.354,458.449 698.4,454.226C717.637,446.87 714.31,441.85 727.792,432.927C738.888,425.584 749.785,426.813 749.086,441.484C748.443,454.971 698.561,494.995 670.451,490.948C642.041,486.856 641.729,469.259 651.716,463.869C663.289,457.623 667.49,459.567 672.5,460.049Z" style="fill:rgb(255,74,23);"/>
        <path d="M591.96,519.518C592.128,517.509 592.124,515.487 592.293,513.477C594.221,490.49 604.242,486.975 611.434,492.589C632.93,509.367 613.221,561.343 599.977,581.81C577.81,616.066 565.412,580.186 575.933,562.776C581.165,554.116 591.218,557.486 591.96,519.518Z" style="fill:rgb(255,74,23);"/>
        <path d="M403.046,504.467C403.089,501.395 403.42,501.424 402.819,498.434C397.781,473.351 421.545,451.602 424.597,449.661C431.856,445.046 434.733,456.927 434.781,457.464C435.441,464.979 436.009,464.861 436.021,465.512C436.68,499.909 435.767,503.41 434.937,506.591C433.774,511.048 434.774,513.521 434.634,514.512C430.288,545.289 426.636,547.748 426.258,548.348C425.064,550.244 413.095,564.136 404.72,530.431C400.554,513.667 402.183,513.553 403.046,504.467Z" style="fill:rgb(255,74,23);"/>
        <path d="M345.531,919.035C340.517,917.968 333.945,914.234 336.919,907.674C338.907,903.289 348.889,892.23 350.69,890.732C378.337,867.745 385.935,864.73 389.466,863.329C391.287,862.606 392.725,865.56 386.14,876.271C360.502,917.976 350.237,918.702 345.531,919.035Z"/>
        <path d="M142.766,619.727C113.952,653.479 102.073,651.001 104.102,641.408C106.711,629.071 139.842,608.502 165.555,589.61C166.171,589.157 168.891,588.799 166.643,591.582C164.787,593.878 164.691,593.747 142.766,619.727Z"/>
        <path d="M196.301,708.297C210.545,697.764 217.414,711.85 216.729,718.521C214.705,738.227 181.126,725.81 196.301,708.297Z" style="fill:rgb(255,74,23);"/>
        <path d="M245.491,666.961C244.293,666.879 234.844,666.229 233.88,657.448C232.019,640.489 253.796,639.716 256.633,650.457C260.8,666.236 247.082,666.886 245.491,666.961Z" style="fill:rgb(255,74,23);"/>
        <path d="M417.958,676.494C417.968,676.417 418.142,665.67 426.513,664.593C436.761,663.275 439.477,667.817 440.059,668.79C450.269,685.863 421.374,697.204 417.958,676.494Z" style="fill:rgb(255,74,23);"/>
        <path d="M797.371,254.678L797.814,255.5C797.777,255.949 797.378,260.885 794.601,260.122C793.256,259.752 794.144,257.596 794.228,257.392C795.07,255.346 795.308,255.574 797.371,254.678Z" style="fill:rgb(253,252,5);"/>
        <path d="M851.625,336.006L852.325,336.097L851.949,337.5C850.126,342.177 848.761,338.812 848.854,338.567C849.165,337.742 849.313,337.888 851.625,336.006Z" style="fill:rgb(225,223,4);"/>
    </g>
</svg>
