<?xml version="1.0" encoding="UTF-8"?>
<svg id="Layer_1" data-name="Layer 1" xmlns="http://www.w3.org/2000/svg" viewBox="0 0 1000 1000">
  <defs>
    <style>
      .cls-1 {
        fill: #020100;
      }

      .cls-2 {
        fill: #010100;
      }

      .cls-3 {
        fill: #fa8b11;
      }

      .cls-4 {
        fill: #010000;
      }

      .cls-5 {
        fill: #f55803;
      }
    </style>
  </defs>
  <rect width="1009.28" height="1009.28"/>
  <g>
    <path class="cls-5" d="M169.42,74.52c0-.43,0-.86,0-1.29,.13-.03,.25-.05,.38-.08-.13-.19-.25-.38-.38-.57,0-21.76,0-43.51,0-65.27,.84,.12,1.38-.5,2.03-.84,6.64-3.53,13.6-5.77,21.22-5.54,1.28,.78,2.71,.56,4.1,.56,56.91,0,113.83,0,170.74,0,1.39,0,2.81,.2,4.12-.49,.53,.05,1.07,.04,1.59,.16,17.64,3.99,29.86,19.78,30.05,39.02,.11,11.95,.03,23.9,.03,35.86,0,44.79-.01,89.59-.01,134.38,0,2.96,.98,3.79,3.47,3.11,1.27-.35,1.43-1.52,1.92-2.4,13.07-23.24,26.12-46.49,39.16-69.74,11.94-21.29,23.87-42.58,35.75-63.89,.87-1.55,1.77-2.27,3.69-2.29,7.53-.1,15.05-.37,22.57-.74,2.14-.1,2.9,.6,3.46,2.66,4.74,17.64,9.66,35.22,14.46,52.84,14.2,52.03,28.38,104.08,42.57,156.11,2.43,8.9,4.85,17.79,7.41,27.19,1.06-1.46,1.82-2.46,2.54-3.49,11.73-16.87,23.46-33.74,35.19-50.61,13.08-18.82,26-37.74,35.7-58.61,7.8-16.8,12.86-34.22,11.13-53.02-.76-8.24-1.79-16.45-2.64-24.68-.66-6.35,1.74-11.36,6.95-14.98,2.82-1.96,5.67-3.91,8.64-5.63,33.78-19.55,67.58-39.05,101.37-58.57,3.29-1.9,4.23-1.6,6.03,1.82,12.43,23.58,24.84,47.18,37.34,70.72,3.61,6.81,6.79,13.85,10.95,20.36v31.66c-.4,.5-.85,.97-1.21,1.5-15.67,22.78-31.46,45.48-46.91,68.4-5.11,7.59-7.43,16.15-5.54,25.49,1.23,6.04,3.04,11.92,5.91,17.33,3.94,7.42,3.89,15.03,2.29,22.89-8.51,41.93-17.1,83.84-25.53,125.78-11.91,59.22-23.72,118.46-35.54,177.69-10.54,52.81-21.01,105.63-31.53,158.44-3.97,19.92-7.98,39.84-11.95,59.76-3.97,19.94-8.34,39.74-16.54,58.5-6.61,15.11-14.76,29.15-26.38,41-17.37,17.71-38.8,28.67-61.91,36.6-19.1,6.55-38.93,9.82-58.96,11.95-25.32,2.7-50.63,2.85-75.95-.06-23.98-2.76-46.62-9.74-67.83-21.33-27.49-15.03-48.93-35.96-62.63-64.37-11.35-23.53-18.19-48.29-21.44-74.27-4.18-33.38-9.31-66.64-14.09-99.94-5.06-35.23-10.11-70.45-15.32-105.66-4.58-30.95-9.29-61.88-14.08-92.8-4.44-28.69-8.96-57.36-13.69-86-1.29-7.81-.32-14.67,4.88-20.84,1.79-2.12,3.16-4.61,4.56-7.03,7.92-13.71,11.96-28.23,9.22-44.19-1.62-9.46-4.59-18.56-7.21-27.75-14.32-50.22-28.78-100.39-43.22-150.58-9.81-34.08-19.66-68.14-29.52-102.2-.22-.76,.25-2.18-1.4-2Zm159.24,449.25c-2.25-.24-4.27-.76-3.46,3.02,10.46,48.54,20.81,97.09,31.16,145.65,7.87,36.89,15.81,73.77,23.45,110.71,1.5,7.27,4.98,12.96,10.39,17.66,11.43,9.93,24.65,17.23,37.36,25.28,1.35,.86,1.91,.09,2.68-.64,11.44-10.9,20.84-23.21,26-38.34,1.3-3.8,3.29-7.59,2.44-11.83-3.16-15.81-6.41-31.61-9.58-47.42-10.55-52.71-21.05-105.42-31.65-158.12-1.16-5.76-1.71-11.72-4.66-17.02-6-10.78-15.45-17.06-26.89-20.77-18.63-6.03-38.03-6.63-57.26-8.18Zm43.36-242.78h.06c0-32.73-.03-65.46,.05-98.19,0-2.64-.27-3.75-3.43-3.53-11.79,.82-23.61,1.28-35.42,1.88-24.36,1.23-48.73,2.46-73.09,3.69-7.41,.37-14.81,.79-22.23,1.07-1.75,.07-2.38,.46-1.64,2.2,.29,.69,.42,1.44,.62,2.17,12.69,44.52,25.43,89.03,38.06,133.57,5.86,20.67,11.5,41.4,17.2,62.12,.48,1.75,.99,2.68,3.26,2.33,3.91-.61,7.92-.63,11.88-.9,20.04-1.4,40.08-2.79,60.12-4.19,5.61-.39,4.5-.08,4.51-4.99,.05-32.41,.03-64.81,.03-97.22ZM272.89,30.63c-26.05,0-52.1,.05-78.15-.07-3.01-.01-3.18,.72-2.43,3.37,10.55,37.1,20.99,74.23,31.48,111.35,.73,2.57,.89,5.89,2.6,7.44,1.94,1.75,5.31,.17,8.06,.1,.11,0,.22,0,.32,0,23.2-1.07,46.39-2.18,69.59-3.21,21.91-.97,43.82-1.9,65.73-2.73,2.24-.08,2.9-.67,2.9-2.93,0-11.83-.08-23.67,.19-35.51,.35-14.74-.1-29.5,.36-44.25,.22-7.1-.42-14.15-1.85-21.15-1.31-6.43-5.27-9.84-11.4-11.14-4.11-.88-8.27-1.28-12.48-1.28-24.97,.01-49.95,0-74.92,.01Zm66.69,773.36c-3.51,10.57-5.14,20.74-5.12,31.09,.03,13.81,4.22,26.47,12.26,37.7,15.15,21.17,35.64,35.54,59.29,45.69,26.65,11.43,54.63,15.27,83.45,14.47,17.95-.5,35.5-3.3,52.76-8.09,21.36-5.94,41.88-13.78,59.48-27.75,15.34-12.17,26.08-27.33,29.33-47.04,2.45-14.84,.26-29.34-3.95-43.62-.7-2.37-1.47-4.72-2.31-7.04-.84-2.32-1.8-4.59-2.97-7.57-4.04,11.54-8.25,22.09-13.57,32.17-6.63,12.55-14.41,24.23-25.4,33.42-9.29,7.77-19.87,12.86-32.2,11.7-22.34-2.1-42.77-10-61.54-22.19-1.6-1.04-2.87-1.31-4.71-.86-26.29,6.42-52.49,13.36-79.67,15.06-9.46,.59-18.41-.83-26.48-6.17-9.93-6.58-16.67-16.04-23.28-25.62-5.48-7.96-10.09-16.45-15.36-25.35Zm183.8-523.51c.96-2.13-.52-2.42-2.78-2.57-14.91-.96-29.81-2.07-44.72-3.07-17.69-1.18-35.4-2.22-53.09-3.52-2.57-.19-2.84,.55-2.64,2.68,.65,7.06,1.18,14.14,1.78,21.21,2.23,26.46,4.44,52.92,6.7,79.38,2.81,32.88,6.01,65.72,9.69,98.52,.35,3.14-.29,6.68,1.76,9.38,6.23,8.18,13.15,15.7,22.34,20.67,5.98,3.23,12.15,4.1,18.52,.88,9.64-4.88,16.6-12.47,22.13-21.55,.68-1.11,.99-2.3,1.12-3.64,.61-6.21,1.31-12.41,2.07-18.59,2.41-19.42,4.3-38.9,6.13-58.39,1.69-18.09,3.19-36.2,4.82-54.3,2-22.17,4.06-44.33,6.15-67.08Zm126.17-26.38c-18.14,81.09-36.38,161.16-53.53,241.94,10.35-3.17,20.19-6.15,29.74-10.03,23.42-9.5,43.92-23.15,60.12-42.73,21.34-25.8,35.91-55.2,45.54-87.14,4.88-16.2,7.36-32.91,10.38-49.5,.93-5.11,1.77-10.23,2.75-15.94-1.46,.93-2.35,1.5-3.25,2.06-7.71,4.81-15.84,8.61-24.71,10.78-18.84,4.61-35.09,.41-48.42-14.03-6-6.5-10.16-14.1-13.5-22.2-1.67-4.05-3.17-8.17-5.11-13.19Zm13.87,265.89c-3.7,1.18-6.56,2.08-9.42,3-17.38,5.6-34.71,11.34-52.15,16.76-11.79,3.66-19.23,10.72-21.82,23.25-2.52,12.18-6.35,24.09-9.31,36.19-16.16,65.95-31.1,132.18-45.77,198.48-.27,1.2-.19,2.26,.32,3.43,3.74,8.45,7.47,16.9,11.05,25.42,.79,1.87,1.53,2.3,3.55,1.7,8.13-2.43,16.31-4.67,24.51-6.88,1.64-.44,2.46-1.24,2.95-2.89,8.73-29.46,18.14-58.7,27.65-87.91,20.99-64.44,41.93-128.9,62.89-193.36,1.78-5.48,3.54-10.96,5.55-17.19Zm40.94-256.28c9.13-6.33,17.56-12.99,25.52-20.25,15.91-14.51,30.11-30.47,40.68-49.35,7.23-12.9,11.78-26.51,9.35-41.65-1.38-8.58-4.97-16.17-10.06-23.43-4.9,11.05-9.6,21.77-14.4,32.44-2.95,6.56-5.56,13.3-9.46,19.39-2.23,3.49-5.26,5.23-9.57,4.26-3.46-.78-6.96-1.35-10.45-1.96-4.46-.77-5.85-2.12-5.57-6.64,.35-5.68,1.05-11.34,1.72-16.99,1.47-12.45,3.02-24.89,4.58-37.62-4.97,2.13-9.05,5.05-12.63,8.63-11.22,11.19-17.04,25.14-20.06,40.39-3.4,17.18-2.8,34.47-.49,51.69,1.87,13.98,5.66,27.52,10.83,41.09Zm-316.09,152.67c-3.57,.42-6.88,.84-10.19,1.2-24.78,2.71-49.54,5.65-74.26,8.89-2.7,.35-2.88,1.42-2.37,3.49,5.78,23.81,18.63,42.01,41.39,52.4,18.38,8.39,38.12,11.67,57.73,15.48,2.71,.53,2.98-.18,2.46-2.64-3.24-15.46-5.66-31.07-8.23-46.66-1.64-9.97-3.25-19.94-4.89-29.91-.18-1.07,.05-2.61-1.64-2.25Zm94.51,310.01c.17,0,.35,0,.52,0,.23-1.79,.53-3.58,.69-5.38,1.19-13.92,2.32-27.84,3.53-41.76,2.02-23.13,4.11-46.25,6.11-69.37,1.85-21.31,3.56-42.63,5.53-63.93,.26-2.81-.29-3.3-2.9-2.91-9.14,1.4-18.36,1.93-27.61,1.74-4.51-.09-9.01-.25-13.51-.51-1.69-.1-2.3,.26-1.99,2.09,3.55,21.09,7.06,42.18,10.54,63.28,4.02,24.39,8,48.79,11.99,73.18,2.37,14.52,4.73,29.04,7.1,43.56Zm-47.57-492.3c26.33,1.08,52.06,2.12,77.79,3.25,1.94,.09,2.4-.9,2.7-2.36,1.26-6.21,2.47-12.43,3.82-18.62,.41-1.88-.55-2.66-1.83-3.62-9.46-7.09-18.92-14.19-28.25-21.45-1.87-1.46-2.97-1.5-4.78,.04-14.67,12.45-29.45,24.78-44.14,37.21-1.75,1.48-3.86,2.7-5.3,5.55Z"/>
    <path d="M169.42,74.52c1.65-.18,1.18,1.24,1.4,2,9.86,34.06,19.72,68.12,29.52,102.2,14.44,50.18,28.9,100.36,43.22,150.58,2.62,9.18,5.59,18.29,7.21,27.75,2.74,15.96-1.3,30.48-9.22,44.19-1.4,2.42-2.77,4.91-4.56,7.03-5.2,6.17-6.17,13.04-4.88,20.84,4.74,28.64,9.25,57.31,13.69,86,4.79,30.92,9.5,61.85,14.08,92.8,5.21,35.2,10.26,70.43,15.32,105.66,4.78,33.3,9.92,66.56,14.09,99.94,3.25,25.98,10.09,50.74,21.44,74.27,13.71,28.41,35.15,49.34,62.63,64.37,21.21,11.6,43.85,18.58,67.83,21.33,25.31,2.91,50.63,2.75,75.95,.06,20.03-2.13,39.87-5.4,58.96-11.95,23.1-7.93,44.53-18.88,61.91-36.6,11.62-11.85,19.77-25.89,26.38-41,8.2-18.76,12.57-38.57,16.54-58.5,3.97-19.92,7.98-39.83,11.95-59.76,10.52-52.81,21-105.63,31.53-158.44,11.82-59.24,23.63-118.47,35.54-177.69,8.43-41.94,17.02-83.85,25.53-125.78,1.59-7.86,1.64-15.47-2.29-22.89-2.87-5.4-4.68-11.28-5.91-17.33-1.89-9.34,.43-17.9,5.54-25.49,15.45-22.93,31.24-45.62,46.91-68.4,.36-.53,.8-1,1.21-1.5,0,273.2,0,546.39,.08,819.59,0,2.73-.68,3.08-3.2,3.08-218.43-.07-436.87-.07-655.3,0-2.54,0-3.18-.4-3.18-3.1,.08-304.43,.08-608.85,.08-913.28Z"/>
    <path class="cls-4" d="M830.94,136.55c-4.16-6.51-7.34-13.55-10.95-20.36-12.5-23.55-24.9-47.14-37.34-70.72-1.8-3.42-2.75-3.72-6.03-1.82-33.79,19.51-67.6,39.02-101.37,58.57-2.97,1.72-5.82,3.67-8.64,5.63-5.21,3.62-7.61,8.63-6.95,14.98,.85,8.23,1.88,16.44,2.64,24.68,1.73,18.8-3.33,36.22-11.13,53.02-9.7,20.87-22.62,39.79-35.7,58.61-11.73,16.87-23.45,33.74-35.19,50.61-.72,1.03-1.48,2.04-2.54,3.49-2.56-9.4-4.99-18.3-7.41-27.19-14.19-52.04-28.37-104.08-42.57-156.11-4.81-17.62-9.72-35.21-14.46-52.84-.55-2.06-1.32-2.77-3.46-2.66-7.52,.37-15.04,.64-22.57,.74-1.92,.02-2.82,.74-3.69,2.29-11.88,21.32-23.82,42.61-35.75,63.89-13.04,23.26-26.09,46.5-39.16,69.74-.49,.88-.65,2.05-1.92,2.4-2.49,.68-3.47-.15-3.47-3.11,0-44.79,0-89.59,.01-134.38,0-11.95,.09-23.91-.03-35.86-.18-19.24-12.41-35.03-30.05-39.02-.51-.12-1.06-.11-1.59-.16-2.04-.07-4.07-.21-6.11-.21-55.79-.01-111.59-.02-167.38-.01-1.82,0-3.64,.1-5.46,.15-7.62-.23-14.58,2.01-21.22,5.54-.65,.34-1.19,.96-2.03,.84,0-3.02-1.18-7.21,.33-8.72,1.51-1.51,5.7-.33,8.71-.33,216.53,0,433.05,0,649.58-.06,2.42,0,2.97,.54,2.97,2.97-.08,45.13-.06,90.25-.06,135.38Z"/>
    <path d="M169.42,72.58c.13,.19,.25,.38,.38,.57-.13,.03-.25,.05-.38,.08,0-.22,0-.43,0-.65Z"/>
    <path class="cls-4" d="M328.65,523.77c19.23,1.55,38.64,2.15,57.26,8.18,11.45,3.71,20.89,9.99,26.89,20.77,2.95,5.3,3.5,11.26,4.66,17.02,10.6,52.7,21.1,105.41,31.65,158.12,3.16,15.81,6.42,31.6,9.58,47.42,.85,4.24-1.15,8.03-2.44,11.83-5.16,15.13-14.57,27.44-26,38.34-.77,.73-1.32,1.5-2.68,.64-12.71-8.05-25.93-15.35-37.36-25.28-5.42-4.7-8.89-10.39-10.39-17.66-7.64-36.94-15.59-73.82-23.45-110.71-10.35-48.56-20.7-97.12-31.16-145.65-.81-3.78,1.2-3.25,3.46-3.02Z"/>
    <path class="cls-4" d="M372.01,280.99c0,32.41,.02,64.81-.03,97.22,0,4.91,1.09,4.6-4.51,4.99-20.04,1.4-40.08,2.8-60.12,4.19-3.97,.28-7.97,.3-11.88,.9-2.27,.35-2.78-.58-3.26-2.33-5.71-20.71-11.34-41.45-17.2-62.12-12.62-44.54-25.36-89.05-38.06-133.57-.21-.72-.33-1.48-.62-2.17-.74-1.74-.11-2.13,1.64-2.2,7.41-.28,14.82-.69,22.23-1.07,24.36-1.23,48.73-2.46,73.09-3.69,11.81-.6,23.62-1.06,35.42-1.88,3.16-.22,3.43,.89,3.43,3.53-.08,32.73-.05,65.46-.05,98.19h-.06Z"/>
    <path class="cls-4" d="M272.89,30.63c24.97,0,49.95,0,74.92,0,4.21,0,8.37,.4,12.48,1.28,6.13,1.31,10.09,4.71,11.4,11.14,1.42,7,2.07,14.05,1.85,21.15-.46,14.75-.01,29.5-.36,44.25-.28,11.84-.2,23.67-.19,35.51,0,2.26-.66,2.84-2.9,2.93-21.91,.83-43.82,1.76-65.73,2.73-23.2,1.03-46.39,2.14-69.59,3.21-.11,0-.22,0-.32,0-2.75,.08-6.12,1.65-8.06-.1-1.71-1.54-1.88-4.87-2.6-7.44-10.49-37.12-20.92-74.25-31.48-111.35-.75-2.65-.58-3.38,2.43-3.37,26.05,.12,52.1,.07,78.15,.06Z"/>
    <path class="cls-4" d="M339.58,804c5.26,8.89,9.88,17.39,15.36,25.35,6.6,9.58,13.35,19.05,23.28,25.62,8.08,5.35,17.02,6.77,26.48,6.17,27.19-1.71,53.38-8.65,79.67-15.06,1.84-.45,3.11-.18,4.71,.86,18.77,12.19,39.2,20.09,61.54,22.19,12.33,1.16,22.91-3.93,32.2-11.7,10.99-9.19,18.77-20.88,25.4-33.42,5.32-10.08,9.53-20.63,13.57-32.17,1.18,2.98,2.14,5.25,2.97,7.57,.84,2.32,1.61,4.67,2.31,7.04,4.2,14.27,6.39,28.77,3.95,43.62-3.25,19.71-14,34.87-29.33,47.04-17.6,13.97-38.12,21.81-59.48,27.75-17.25,4.8-34.81,7.6-52.76,8.09-28.82,.8-56.79-3.04-83.45-14.47-23.65-10.15-44.14-24.52-59.29-45.69-8.04-11.23-12.23-23.89-12.26-37.7-.02-10.34,1.62-20.52,5.12-31.09Z"/>
    <path class="cls-4" d="M523.37,280.49c-2.09,22.75-4.15,44.91-6.15,67.08-1.64,18.1-3.13,36.21-4.82,54.3-1.82,19.49-3.71,38.97-6.13,58.39-.77,6.19-1.46,12.39-2.07,18.59-.13,1.34-.45,2.53-1.12,3.64-5.53,9.07-12.49,16.67-22.13,21.55-6.37,3.23-12.54,2.35-18.52-.88-9.2-4.97-16.12-12.49-22.34-20.67-2.06-2.7-1.41-6.24-1.76-9.38-3.68-32.79-6.88-65.64-9.69-98.52-2.26-26.46-4.47-52.92-6.7-79.38-.6-7.07-1.12-14.15-1.78-21.21-.2-2.13,.07-2.87,2.64-2.68,17.69,1.3,35.39,2.34,53.09,3.52,14.91,.99,29.81,2.11,44.72,3.07,2.26,.14,3.73,.44,2.78,2.57Z"/>
    <path class="cls-4" d="M649.54,254.11c1.94,5.03,3.44,9.14,5.11,13.19,3.34,8.1,7.5,15.7,13.5,22.2,13.32,14.44,29.57,18.64,48.42,14.03,8.87-2.17,17.01-5.97,24.71-10.78,.9-.56,1.79-1.13,3.25-2.06-.98,5.7-1.82,10.83-2.75,15.94-3.02,16.59-5.5,33.31-10.38,49.5-9.62,31.95-24.2,61.35-45.54,87.14-16.2,19.58-36.7,33.23-60.12,42.73-9.55,3.88-19.39,6.86-29.74,10.03,17.14-80.78,35.39-160.85,53.53-241.94Z"/>
    <path class="cls-4" d="M663.41,520c-2.01,6.23-3.77,11.71-5.55,17.19-20.96,64.45-41.89,128.91-62.89,193.36-9.52,29.21-18.92,58.46-27.65,87.91-.49,1.65-1.31,2.45-2.95,2.89-8.19,2.21-16.38,4.45-24.51,6.88-2.02,.6-2.76,.17-3.55-1.7-3.59-8.51-7.31-16.97-11.05-25.42-.52-1.16-.59-2.23-.32-3.43,14.66-66.3,29.61-132.53,45.77-198.48,2.96-12.1,6.79-24.01,9.31-36.19,2.6-12.53,10.04-19.59,21.82-23.25,17.43-5.42,34.77-11.16,52.15-16.76,2.86-.92,5.72-1.82,9.42-3Z"/>
    <path class="cls-1" d="M704.35,263.72c-5.16-13.57-8.95-27.11-10.83-41.09-2.31-17.22-2.91-34.51,.49-51.69,3.02-15.25,8.84-29.19,20.06-40.39,3.59-3.58,7.67-6.5,12.63-8.63-1.55,12.73-3.1,25.17-4.58,37.62-.67,5.65-1.37,11.32-1.72,16.99-.28,4.52,1.1,5.87,5.57,6.64,3.49,.61,6.99,1.18,10.45,1.96,4.31,.97,7.34-.77,9.57-4.26,3.9-6.09,6.51-12.83,9.46-19.39,4.8-10.68,9.5-21.4,14.4-32.44,5.08,7.26,8.68,14.84,10.06,23.43,2.43,15.13-2.13,28.74-9.35,41.65-10.58,18.88-24.78,34.83-40.68,49.35-7.96,7.26-16.38,13.93-25.52,20.25Z"/>
    <path class="cls-2" d="M388.26,416.39c1.68-.36,1.46,1.18,1.64,2.25,1.65,9.97,3.25,19.94,4.89,29.91,2.57,15.58,4.99,31.19,8.23,46.66,.52,2.46,.25,3.17-2.46,2.64-19.61-3.81-39.35-7.09-57.73-15.48-22.75-10.38-35.61-28.59-41.39-52.4-.5-2.08-.33-3.14,2.37-3.49,24.72-3.24,49.48-6.17,74.26-8.89,3.31-.36,6.62-.78,10.19-1.2Z"/>
    <path class="cls-1" d="M482.78,726.4c-2.37-14.52-4.72-29.04-7.1-43.56-3.99-24.4-7.97-48.79-11.99-73.18-3.48-21.1-6.99-42.2-10.54-63.28-.31-1.83,.3-2.19,1.99-2.09,4.5,.26,9.01,.42,13.51,.51,9.25,.19,18.46-.34,27.61-1.74,2.61-.4,3.16,.1,2.9,2.91-1.97,21.3-3.68,42.62-5.53,63.93-2.01,23.13-4.1,46.25-6.11,69.37-1.21,13.92-2.34,27.84-3.53,41.76-.15,1.8-.45,3.58-.69,5.38-.17,0-.35,0-.52,0Z"/>
    <path class="cls-1" d="M435.21,234.1c1.44-2.86,3.55-4.07,5.3-5.55,14.69-12.43,29.47-24.76,44.14-37.21,1.81-1.54,2.91-1.5,4.78-.04,9.33,7.26,18.79,14.36,28.25,21.45,1.29,.97,2.25,1.75,1.83,3.62-1.36,6.19-2.56,12.41-3.82,18.62-.3,1.47-.75,2.45-2.7,2.36-25.73-1.13-51.46-2.16-77.79-3.25Z"/>
    <path class="cls-3" d="M192.67,.93c1.82-.05,3.64-.15,5.46-.15,55.79,0,111.59,0,167.38,.01,2.04,0,4.07,.14,6.11,.21-1.31,.69-2.73,.49-4.12,.49-56.91,0-113.83,0-170.74,0-1.38,0-2.81,.22-4.1-.56Z"/>
  </g>
</svg>