<?xml version="1.0" encoding="UTF-8"?>
<svg id="Layer_1" data-name="Layer 1" xmlns="http://www.w3.org/2000/svg" viewBox="0 0 1000 1000">
  <defs>
    <style>
      .cls-1 {
        fill: #030101;
      }

      .cls-2 {
        fill: #020100;
      }

      .cls-3 {
        fill: #010100;
      }

      .cls-4 {
        fill: #f66b18;
      }

      .cls-5 {
        fill: #f27b29;
      }

      .cls-6 {
        fill: #010000;
      }

      .cls-7 {
        fill: #f55803;
      }

      .cls-8 {
        fill: #fd7f22;
      }
    </style>
  </defs>
  <path d="M2.1,314.86c0-103.29,.02-206.58-.09-309.87,0-3.34,.65-3.99,3.99-3.99,330,.1,660.01,.1,990.01,0,3.34,0,4,.65,3.99,3.99-.12,89.65-.09,179.3-.09,268.94-1.62,.05-3.23,.14-4.85,.14-33.45,.01-66.91,.06-100.36-.05-3.6-.01-5.27,.59-5,4.73,.39,5.98,.35,12.03,0,18.01-.22,3.85,1.23,4.5,4.71,4.48,25.17-.14,50.34-.08,75.52-.05,1.64,0,3.41-.42,5.44,.73-35.81,22.63-70.15,46.54-104.64,70.22-2.2,1.51-3.24,.1-4.61-.81-30.27-20.1-60.54-40.21-90.79-60.34-4.46-2.97-8.84-6.04-14.37-9.83,2.65,0,3.79,0,4.92,0,25.17,0,50.34-.1,75.52,.06,3.68,.02,4.75-.97,4.56-4.62-.31-5.99-.31-12.03,0-18.02,.19-3.68-.96-4.63-4.61-4.61-25.33,.16-50.67,.08-76,.07-16.73,0-33.45-.09-50.18-.01-10.18,.05-16.29,6.29-16.37,16.42-.03,3.09-.18,6.18,.03,9.25,.19,2.78-.8,3.57-3.56,3.57-52.94-.07-105.88-.07-158.83-.01-2.26,0-3.4-.77-4.49-2.73-4.48-8.08-9.04-16.13-13.89-23.99-2.02-3.27-2-5.16,1.07-7.95,23.27-21.17,32.42-47.52,27.55-78.55-7.51-47.86-60.02-80.32-106.1-65.53-4.9,1.57-6.76,.52-9.16-3.83-17.49-31.84-35.36-63.47-52.98-95.24-2.56-4.62-6.02-7.02-11.3-6.85-2.27,.07-4.57,.16-6.82-.09-6.88-.76-10.98,2.38-14.47,8.23-32.11,53.94-64.41,107.76-96.74,161.56-8.39,13.97-19.11,25.78-33.25,34.21-23.4,13.94-46.67,28.1-70.24,41.74-17.23,9.97-34.09,20.23-45.58,37.14-1.53,2.25-3.62,1.81-5.65,1.81-18.84,.04-37.68,.34-56.51-.08-13.06-.29-24.75,2.44-34.5,11.56-.25,.23-.84,.1-1.27,.14ZM567.84,147.98c.08,10.27,8.27,16.1,17.37,13.23,2.53-.8,4.69-2.21,6.86-3.59,26.2-16.78,52.74-33.02,79.34-49.14,9.97-6.05,20.05-11.95,29.8-18.34,7.48-4.9,8.29-13.97,2.37-20.15-4.57-4.77-11.63-5.4-18.31-1.43-37.18,22.13-73.71,45.3-110.42,68.2-4.32,2.7-7.29,6.46-7.01,11.21Zm30.6,76.65c.04,9.91,9.3,15.58,19.52,11.65,20.86-8.02,41.65-16.21,62.46-24.38,7.39-2.9,14.88-5.61,22.02-9.03,7.39-3.54,9.66-11.01,6.2-18.01-3.22-6.52-10.19-8.94-17.3-6.1-10.38,4.14-20.77,8.22-31.17,12.32-17.32,6.82-34.66,13.6-51.97,20.46-6.53,2.59-9.78,7.08-9.76,13.1Zm1.99-221.81c-4.1-.41-7.08,1.85-10.04,4.16-22.72,17.78-45.43,35.57-68.17,53.33-7.12,5.56-8.87,13.38-4.25,19.43,5.05,6.6,12.55,7.06,20.06,1.26,12.44-9.62,24.9-19.21,37.35-28.82,10.91-8.41,21.87-16.76,32.69-25.28,5.23-4.11,6.79-9.56,4.82-15.08-2.03-5.71-6.51-8.95-12.47-9Z"/>
  <path class="cls-7" d="M2.1,314.86c.43-.04,1.02,.09,1.27-.14,9.75-9.12,21.45-11.84,34.5-11.56,18.83,.41,37.67,.11,56.51,.08,2.03,0,4.12,.43,5.65-1.81,11.49-16.91,28.35-27.17,45.58-37.14,23.57-13.64,46.84-27.8,70.24-41.74,14.15-8.43,24.86-20.24,33.25-34.21,32.33-53.8,64.63-107.63,96.74-161.56,3.48-5.85,7.59-9,14.47-8.23,2.25,.25,4.55,.16,6.82,.09,5.28-.17,8.73,2.23,11.3,6.85,17.62,31.77,35.49,63.4,52.98,95.24,2.39,4.35,4.26,5.41,9.16,3.83,46.08-14.79,98.59,17.68,106.1,65.53,4.87,31.02-4.28,57.37-27.55,78.55-3.07,2.79-3.09,4.68-1.07,7.95,4.86,7.86,9.41,15.91,13.89,23.99,1.09,1.96,2.23,2.73,4.49,2.73,52.94-.06,105.88-.06,158.83,.01,2.76,0,3.75-.79,3.56-3.57-.21-3.07-.06-6.17-.03-9.25,.08-10.12,6.19-16.37,16.37-16.42,16.73-.08,33.45,0,50.18,.01,25.33,0,50.67,.08,76-.07,3.64-.02,4.8,.92,4.61,4.61-.31,5.99-.31,12.03,0,18.02,.19,3.65-.88,4.64-4.56,4.62-25.17-.16-50.34-.07-75.52-.06-1.13,0-2.26,0-4.92,0,5.53,3.78,9.91,6.86,14.37,9.83,30.25,20.13,60.52,40.24,90.79,60.34,1.37,.91,2.41,2.32,4.61,.81,34.49-23.68,68.83-47.59,104.64-70.22-2.03-1.15-3.8-.73-5.44-.73-25.17-.04-50.34-.1-75.52,.05-3.48,.02-4.93-.63-4.71-4.48,.35-5.99,.39-12.03,0-18.01-.27-4.14,1.39-4.74,5-4.73,33.45,.11,66.91,.06,100.36,.05,1.62,0,3.23-.09,4.85-.14v43.85c-40.22,26.49-80.19,53.36-119.66,80.96-8.45,5.91-12.67,6.05-21.27,.36-42.72-28.3-85.42-56.63-128.13-84.94-1.02-.68-1.85-1.93-3.71-1.24v145.93c2.1,1.8,4.64,1.17,7.01,1.17,88.59,.03,177.17,.03,265.76,.03v26.31c-38.12-.03-76.25-.03-114.37-.13-2.62,0-3.69,.56-3.66,3.46,.17,14.76,.14,29.52,.17,44.28,1.98,1.59,4.33,1.09,6.56,1.09,37.1,.03,74.2,.02,111.3,.02v26.31c-.64-.07-1.29-.19-1.93-.19-89.29,0-178.57,.04-267.86-.08-4.07,0-4.32,1.67-4.32,4.88,.07,40.1,0,80.2,.04,120.29,.01,12.81,.22,25.62,.34,38.44,2.18,2.08,4.92,1.3,7.43,1.3,88.76,.04,177.53,.03,266.29,.03v24.36c-37.11,0-74.23-.01-111.34,.02-2.21,0-4.59-.56-6.47,1.27-.06,18.67-.04,37.34-.24,56.01-.03,3.25,1.6,3.2,3.91,3.19,13.15-.06,26.3-.05,39.46-.05,11.43,0,17.17,5.64,17.2,16.93,.05,16.07,.07,32.15,.07,48.22,0,22.91-20.99,43.91-44.03,43.91-249.24,.02-498.47,.01-747.71-.03-1.47,0-3.24,.87-4.43-.85,2.02-6.51,.77-13.2,.86-19.79,.06-4.2,1.37-6.07,5.64-5.61,1.61,.17,3.24,.03,4.87,.03,245.15,0,490.29,0,735.44,0,1.62,0,3.25,.02,4.87-.06,.87-.04,1.18-.42,.31-1.06,1.68-.55,3.42-.96,5.03-1.67,6.62-2.95,11.56-7.64,11.77-15.18,.35-12.42,0-24.86-.06-37.29-2.19-2.13-4.94-1.21-7.43-1.21-301.84-.04-603.68-.04-905.52-.04,0-174.1,0-348.2,0-522.29Zm852.5,436.89c-1.86-1.88-4.25-1.3-6.46-1.3-43.5-.03-87-.02-130.5-.01-2.09,0-4.24-.33-6.18,.85-8.78-2.16-12.65-7.12-12.65-16.35,0-61.34,0-122.69,0-184.03,0-10.56,6.08-16.62,16.55-16.63,1.63,.96,3.44,.81,5.22,.81,42.83,0,85.66,0,128.49-.01,1.92,0,3.93,.3,5.58-1.11,.03-13.96-.15-27.93,.19-41.89,.11-4.57-.87-5.93-5.72-5.91-44.65,.21-89.31,.13-133.96,.12-10.3,0-16.21-5.91-16.36-16.28-.03-2.44-.01-4.87-.01-7.31-.03-44-.05-88.01-.08-132.01-1.62-1.49-3.63-1.19-5.55-1.19-46.26-.01-92.52-.01-138.78,0-1.93,0-3.93-.28-5.62,1.03-.44,2.01,1.02,3.34,1.84,4.85,3.64,6.69,7.63,13.21,11.04,20.02,7.83,15.64-.82,29.6-18.21,29.6-63.65,.01-127.31,.2-190.96-.15-14.99-.08-28.38,3.57-41.12,11.19-3.89,2.33-4.06,3.89-1.99,7.56,19.77,35.2,39.15,70.62,59.1,105.71,12.87,22.64-2.69,44.23-23.65,45.72-4.85,.35-9.74-.1-14.61,.08-24.05,.92-41.76-9.03-53.39-30.25-14.11-25.73-28.66-51.22-42.81-76.93-2.17-3.95-3.72-4.78-7.9-2.31-19.98,11.8-41.5,16.26-64.49,11.91-57.87-10.95-90.15-73.16-76.43-122.78,1.07-3.88,.02-4.24-3.36-4.21-15.43,.14-30.85,.09-46.28,.07-12.1-.02-17.43,5.22-17.43,17.4,0,152.64,.03,305.29-.06,457.93,0,4.06,1.03,5.08,5.1,5.07,237.89-.11,475.79-.11,713.68-.11,37.67,0,75.35,0,113.02,0,2.46,0,5.05,.82,4.98-3.6-.28-18.51-.19-37.02-.23-55.53ZM332.19,103.18c-.9,1.27-1.51,2.02-2,2.85-18.45,30.91-36.96,61.78-55.29,92.76-10.63,17.96-23.23,34.11-41.36,45.04-28.74,17.33-57.49,34.67-86.53,51.49-44.85,25.98-47.06,82.71-19.63,112.64,20.37,22.22,51.97,31.82,81.69,15.06,30.37-17.12,60.41-34.81,90.64-52.17,14.69-8.43,30.09-13.8,47.51-13.56,39.94,.56,79.88,.4,119.82,.49,2.03,0,4.13,.43,6.67-.65-47.71-84.36-94.49-169.01-141.52-253.95Zm199.95,254.64c-56.83-102.11-113.12-203.26-169.78-305.07-4.22,6.97-7.67,13.02-11.49,18.83-1.74,2.64-1.9,4.68-.35,7.49,13.96,25.25,27.68,50.64,41.64,75.89,21.57,39.02,43.27,77.96,64.92,116.93,15.28,27.49,30.57,54.97,45.88,82.45,.9,1.62,1.4,3.57,4.05,3.53,8.09-.13,16.18-.05,25.13-.05Zm-199.91,171.05c2.33-.34,5.85-.9,9.37-1.35,3.46-.44,4.34-1.69,2.47-5.04-19.66-35.26-39.24-70.56-58.73-105.91-1.55-2.8-2.92-2.56-5.29-1.19-6.87,3.99-13.78,7.92-20.85,11.55-3.3,1.69-3.77,3.05-1.87,6.47,14.01,25.22,28.67,50.09,41.54,75.92,6.74,13.54,17.77,19.02,33.35,19.54ZM501.78,247.87c14.65-14.45,20.71-30.84,18.01-50.76-4.34-32.01-37.85-55.47-69.22-48.07-3.26,.77-2.93,1.69-1.56,4.07,5.42,9.41,10.67,18.92,15.94,28.41,12.19,21.93,24.35,43.88,36.83,66.36Z"/>
  <path class="cls-2" d="M146.32,919.04c1.19,1.73,2.96,.85,4.43,.85,249.24,.04,498.47,.05,747.71,.03,23.04,0,44.03-21,44.03-43.91,0-16.07-.03-32.15-.07-48.22-.03-11.29-5.78-16.93-17.2-16.93-13.15,0-26.3-.02-39.46,.05-2.31,.01-3.94,.06-3.91-3.19,.2-18.67,.18-37.34,.24-56.01,22.4,0,44.8,.03,67.2-.02,16.87-.04,33.74-.19,50.61-.29,0,81.2-.03,162.41,.09,243.61,0,3.34-.66,3.99-3.99,3.99-330-.1-660.01-.1-990.01,0-3.34,0-4.02-.65-4-3.99,.18-25.01,.1-50.02,.1-75.03,1.62-.02,3.24-.05,4.87-.05,34.72,0,69.44-.09,104.15,.13,4.45,.03,5.49-1.24,5.22-5.4-.37-5.65-.37-11.37-.02-17.02,.25-4.15-.81-5.44-5.25-5.41-34.88,.21-69.76,.11-104.64,.13-1.44,0-2.89,.23-4.33,.35,0-18.19,0-36.38,0-54.57,2.1,.1,4.2,.3,6.29,.3,68.04,.01,136.09,0,204.13,0,234.17,0,468.35-.01,702.52-.02,.06,12.43,.41,24.87,.06,37.29-.21,7.54-5.15,12.23-11.77,15.18-1.61,.71-3.35,1.12-5.03,1.67-1.29-.07-2.58-.21-3.88-.21-247.39,0-494.77,0-742.16,.01-1.14,0-2.28,.09-3.41,0-2.15-.18-2.8,.79-2.76,2.85,.14,7.95,.16,15.89,.22,23.84Z"/>
  <path class="cls-3" d="M726.18,724.74c-.12-12.81-.33-25.62-.34-38.44-.04-40.1,.03-80.2-.04-120.29,0-3.21,.25-4.89,4.32-4.88,89.29,.12,178.57,.08,267.86,.08,.64,0,1.29,.12,1.93,.19v163.7c-1.76-.14-3.53-.41-5.29-.41-26.79-.03-53.59-.03-80.38-.02-62.68,.02-125.36,.05-188.05,.08Zm94.61-121.44c-1.06,7.73-.21,15.48-.24,23.21-.06,18.24,.13,36.47,.22,54.71,2.97,17.84,21.7,26.7,38,17.41,17.61-10.03,34.94-20.57,52.17-31.26,18.37-11.39,18.87-36.6,.55-48.25-17.91-11.39-36.31-22.05-54.91-32.28-14.65-8.06-31.71,.21-35.8,16.46Z"/>
  <path class="cls-6" d="M727.14,458.85v-145.93c1.86-.69,2.69,.56,3.71,1.24,42.71,28.31,85.41,56.64,128.13,84.94,8.6,5.7,12.82,5.55,21.27-.36,39.47-27.6,79.44-54.47,119.66-80.96v141.29c-76.96-.01-153.93-.01-230.89-.04-13.96,0-27.92-.12-41.88-.18Z"/>
  <path class="cls-6" d="M882.05,533.97c-.04-14.76,0-29.52-.17-44.28-.03-2.9,1.03-3.47,3.66-3.46,38.12,.1,76.24,.1,114.37,.13v47.75c-39.28-.04-78.57-.09-117.85-.13Z"/>
  <path class="cls-7" d="M2.1,892.7c1.44-.12,2.89-.35,4.33-.35,34.88-.02,69.76,.08,104.64-.13,4.43-.03,5.5,1.26,5.25,5.41-.35,5.66-.35,11.37,.02,17.02,.27,4.16-.77,5.43-5.22,5.4-34.72-.22-69.44-.13-104.15-.13-1.62,0-3.24,.03-4.87,.05,0-9.09,0-18.19,0-27.28Z"/>
  <path class="cls-8" d="M915.05,838.41c-234.17,0-468.35,.01-702.52,.02-68.04,0-136.09,.01-204.13,0-2.1,0-4.2-.2-6.29-.3,0-.32,0-.65,0-.97,301.84,0,603.68,0,905.52,.04,2.49,0,5.24-.92,7.43,1.21Z"/>
  <path class="cls-8" d="M726.18,724.74c62.68-.03,125.36-.06,188.05-.08,26.79,0,53.59,0,80.38,.02,1.76,0,3.53,.27,5.29,.41v.97c-88.76,0-177.53,0-266.29-.03-2.51,0-5.25,.78-7.43-1.3Z"/>
  <path class="cls-5" d="M727.14,458.85c13.96,.06,27.92,.17,41.88,.18,76.96,.03,153.93,.03,230.89,.04v.97c-88.59,0-177.17,0-265.76-.03-2.37,0-4.91,.63-7.01-1.17Z"/>
  <path class="cls-5" d="M882.05,533.97c39.28,.04,78.57,.09,117.85,.13v.97c-37.1,0-74.2,0-111.3-.02-2.22,0-4.58,.5-6.56-1.09Z"/>
  <path class="cls-8" d="M999.91,751.4c-16.87,.1-33.74,.25-50.61,.29-22.4,.05-44.8,.02-67.2,.02,1.88-1.83,4.26-1.27,6.47-1.27,37.11-.03,74.23-.02,111.34-.02v.97Z"/>
  <path class="cls-7" d="M567.84,147.98c-.28-4.75,2.68-8.51,7.01-11.21,36.71-22.9,73.24-46.06,110.42-68.2,6.67-3.97,13.74-3.34,18.31,1.43,5.92,6.18,5.11,15.24-2.37,20.15-9.75,6.39-19.82,12.29-29.8,18.34-26.61,16.13-53.14,32.36-79.34,49.14-2.17,1.39-4.33,2.8-6.86,3.59-9.1,2.86-17.28-2.96-17.37-13.23Z"/>
  <path class="cls-7" d="M598.44,224.63c-.02-6.02,3.23-10.51,9.76-13.1,17.31-6.86,34.65-13.64,51.97-20.46,10.39-4.09,20.79-8.18,31.17-12.32,7.12-2.84,14.09-.42,17.3,6.1,3.45,7,1.18,14.47-6.2,18.01-7.14,3.42-14.64,6.13-22.02,9.03-20.8,8.17-41.59,16.37-62.46,24.38-10.22,3.93-19.48-1.74-19.52-11.65Z"/>
  <path class="cls-7" d="M600.43,2.81c5.95,.06,10.44,3.3,12.47,9.01,1.97,5.52,.4,10.97-4.82,15.08-10.82,8.52-21.79,16.86-32.69,25.28-12.45,9.61-24.91,19.2-37.35,28.82-7.5,5.8-15.01,5.34-20.06-1.26-4.63-6.06-2.87-13.87,4.25-19.43,22.74-17.76,45.45-35.55,68.17-53.33,2.96-2.31,5.95-4.58,10.04-4.17Z"/>
  <path class="cls-6" d="M715.37,534.27c-10.48,.01-16.55,6.08-16.55,16.63-.02,61.34-.02,122.69,0,184.03,0,9.23,3.88,14.19,12.65,16.35,2.74,.14,5.49,.4,8.23,.4,44.97,.04,89.94,.05,134.91,.07,.04,18.51-.05,37.02,.23,55.53,.07,4.42-2.51,3.6-4.98,3.6-37.67,.01-75.35,0-113.02,0-237.89,0-475.79,0-713.68,.11-4.07,0-5.11-1.01-5.1-5.07,.09-152.64,.06-305.29,.06-457.93,0-12.18,5.33-17.42,17.43-17.4,15.43,.02,30.85,.07,46.28-.07,3.38-.03,4.43,.33,3.36,4.21-13.72,49.61,18.56,111.82,76.43,122.78,22.99,4.35,44.51-.11,64.49-11.91,4.18-2.47,5.73-1.63,7.9,2.31,14.15,25.71,28.7,51.2,42.81,76.93,11.63,21.22,29.34,31.16,53.39,30.25,4.86-.19,9.76,.26,14.61-.08,20.96-1.49,36.52-23.08,23.65-45.72-19.95-35.09-39.32-70.52-59.1-105.71-2.06-3.67-1.9-5.23,1.99-7.56,12.74-7.62,26.13-11.28,41.12-11.19,63.65,.35,127.31,.16,190.96,.15,17.39,0,26.04-13.96,18.21-29.6-3.41-6.81-7.4-13.32-11.04-20.02-.82-1.51-2.29-2.84-1.84-4.85,2.11,.03,4.22,.08,6.33,.08,47.88,.03,95.75,.06,143.63,.08,.03,44,.05,88.01,.08,132.01,0,2.44-.02,4.87,.01,7.31,.15,10.37,6.05,16.27,16.36,16.28,44.65,.01,89.31,.09,133.96-.12,4.85-.02,5.83,1.34,5.72,5.91-.34,13.96-.17,27.93-.19,41.89-42.22,.03-84.43,.05-126.65,.1-4.21,0-8.43,.14-12.64,.22Zm-323.68,213.63c19.15,.08,38.3,.12,57.44,.28,2.59,.02,3.35-.92,3.29-3.4-.14-6.17-.32-12.35,.04-18.5,.25-4.19-.84-5.37-5.25-5.36-72.57,.16-145.14,.11-217.71,.12-1.45,0-2.89,.2-4.34,.31-.58-.04-.78,.19-.52,.74,0,2.66,.01,5.31,.02,7.97,0,.59,0,1.18,0,1.76,0,1.68,0,3.37,0,5.05v4.7c0,1.35,0,2.69,0,4.04-.57,2.16,.1,3.04,2.36,2.29l2.25-.02c1.51,.48,3.03,.48,4.55,0l2.29-.02c1.83,.49,3.66,.5,5.49,.01,1.78,.09,3.55,.27,5.33,.27,27.26,.02,54.52,.03,81.78,0,5.83,0,11.66-.17,17.5-.26,3.78,.52,7.57,.52,11.35,0,1.41,0,2.83,0,4.24,0,1.51,.47,3.02,.47,4.54,0,6.93,.46,13.86,.47,20.79,.03,1.52,.46,3.04,.46,4.56,0Zm-126.81-75.41c24.03,0,48.05,0,72.08,0,36.69,0,73.38-.09,110.06,.12,4.45,.03,5.51-1.24,5.24-5.42-.36-5.5-.04-11.03-.08-16.55-.06-6.73,.92-6.16-6.35-6.16-70.94-.02-141.88,0-212.82,0-49.51,0-99.02,0-148.54,0q-6.15,0-6.16,6.35c0,5.36,.27,10.73-.08,16.07-.28,4.31,.85,5.69,5.49,5.68,60.39-.18,120.78-.12,181.16-.11Zm-130.24,48.51v-.02c-17.2,0-34.4,.07-51.59-.06-3.07-.02-4.28,.67-4.15,3.99,.25,6.48,.2,12.98,0,19.46-.1,2.94,.73,3.9,3.78,3.89,34.4-.1,68.79-.11,103.19,0,3.34,.01,4.13-1.16,4.03-4.24-.2-6.16-.26-12.34,.03-18.49,.17-3.66-.99-4.66-4.64-4.62-16.87,.19-33.75,.09-50.62,.09Z"/>
  <path class="cls-6" d="M332.19,103.18c47.03,84.94,93.81,169.59,141.52,253.95-2.54,1.08-4.64,.65-6.67,.65-39.94-.09-79.89,.07-119.82-.49-17.41-.24-32.82,5.13-47.51,13.56-30.23,17.36-60.27,35.05-90.64,52.17-29.72,16.76-61.33,7.16-81.69-15.06-27.43-29.93-25.22-86.66,19.63-112.64,29.04-16.82,57.79-34.16,86.53-51.49,18.13-10.93,30.73-27.08,41.36-45.04,18.34-30.98,36.85-61.85,55.29-92.76,.49-.83,1.11-1.58,2-2.85Zm-195.52,253.92c.08,14.61,2.63,25.54,8.89,35.41,3.92,6.18,12.53,8.34,18.91,4.94,6.53-3.49,9.16-10.86,6.29-17.93-1.03-2.55-2.43-4.95-3.5-7.48-4.46-10.59-2.58-20.31,4.4-29.13,4.02-5.08,9.83-7.86,15.21-11.17,3.18-1.95,6.41-3.85,8.16-7.4,2.5-5.08,1.71-10.95-2.02-14.9-4.35-4.61-11.49-6-17.47-2.8-5.85,3.13-11.75,6.37-17.01,10.37-14.16,10.77-21.16,25.42-21.86,40.1Z"/>
  <path class="cls-1" d="M532.14,357.82c-8.95,0-17.04-.09-25.13,.05-2.65,.04-3.15-1.91-4.05-3.53-15.31-27.47-30.6-54.96-45.88-82.45-21.66-38.97-43.35-77.92-64.92-116.93-13.96-25.25-27.69-50.63-41.64-75.89-1.56-2.82-1.39-4.86,.35-7.49,3.82-5.81,7.27-11.86,11.49-18.83,56.66,101.81,112.95,202.96,169.78,305.07Z"/>
  <path class="cls-1" d="M332.22,528.87c-15.58-.52-26.61-6-33.35-19.54-12.87-25.83-27.53-50.7-41.54-75.92-1.9-3.42-1.43-4.78,1.87-6.47,7.06-3.63,13.97-7.56,20.85-11.55,2.36-1.37,3.74-1.62,5.29,1.19,19.5,35.35,39.07,70.65,58.73,105.91,1.87,3.35,1,4.6-2.47,5.04-3.53,.45-7.04,1.01-9.37,1.35Z"/>
  <path class="cls-1" d="M501.78,247.87c-12.48-22.48-24.64-44.43-36.83-66.36-5.27-9.49-10.52-19-15.94-28.41-1.37-2.37-1.7-3.3,1.56-4.07,31.36-7.39,64.87,16.07,69.22,48.07,2.7,19.92-3.35,36.31-18.01,50.76Z"/>
  <path class="cls-8" d="M146.32,919.04c-.06-7.95-.08-15.89-.22-23.84-.04-2.07,.62-3.03,2.76-2.85,1.13,.09,2.27,0,3.41,0,247.39,0,494.77-.02,742.16-.01,1.29,0,2.58,.14,3.88,.21,.87,.64,.56,1.02-.31,1.06-1.62,.08-3.25,.06-4.87,.06-245.15,0-490.29,0-735.44,0-1.62,0-3.26,.14-4.87-.03-4.27-.45-5.59,1.41-5.64,5.61-.09,6.59,1.16,13.28-.86,19.79Z"/>
  <path class="cls-8" d="M698.73,330.68c-47.88-.03-95.75-.05-143.63-.08-2.11,0-4.22-.05-6.33-.08,1.7-1.31,3.7-1.03,5.62-1.03,46.26-.01,92.52-.01,138.78,0,1.92,0,3.94-.3,5.55,1.19Z"/>
  <path class="cls-8" d="M854.6,751.75c-44.97-.02-89.94-.02-134.91-.07-2.74,0-5.49-.26-8.23-.4,1.94-1.17,4.09-.85,6.18-.85,43.5-.01,87-.02,130.5,.01,2.21,0,4.6-.57,6.46,1.3Z"/>
  <path class="cls-5" d="M715.37,534.27c4.21-.08,8.43-.21,12.64-.22,42.22-.05,84.43-.07,126.65-.1-1.65,1.41-3.66,1.11-5.59,1.11-42.83,.01-85.66,.01-128.49,.01-1.78,0-3.59,.15-5.22-.81Z"/>
  <path class="cls-7" d="M820.79,603.3c4.09-16.25,21.14-24.52,35.8-16.46,18.6,10.23,37,20.89,54.91,32.28,18.32,11.65,17.82,36.86-.55,48.25-17.23,10.68-34.56,21.22-52.17,31.26-16.31,9.29-35.03,.44-38-17.41,.96-1.63,.81-3.43,.81-5.21,0-22.5,0-45,0-67.5,0-1.77,.13-3.58-.79-5.22Zm77.91,40.14c-16.65-9.87-32.62-19.33-48.57-28.79-2.79-1.65-2.54,.5-2.54,2.07-.04,17.66-.01,35.32-.1,52.98-.02,3.36,1.35,2.93,3.45,1.72,5.32-3.08,10.7-6.05,16-9.16,10.41-6.12,20.77-12.3,31.77-18.82Z"/>
  <path class="cls-8" d="M820.79,603.3c.93,1.64,.79,3.44,.79,5.22,0,22.5,0,45,0,67.5,0,1.77,.15,3.58-.81,5.21-.09-18.24-.28-36.47-.22-54.71,.03-7.74-.82-15.49,.24-23.21Z"/>
  <path class="cls-7" d="M264.89,672.48c-60.39,0-120.78-.07-181.16,.11-4.64,.01-5.77-1.37-5.49-5.68,.35-5.33,.07-10.71,.08-16.07q0-6.35,6.16-6.35c49.51,0,99.02,0,148.54,0,70.94,0,141.88-.02,212.82,0,7.27,0,6.29-.57,6.35,6.16,.05,5.52-.28,11.06,.08,16.55,.28,4.17-.79,5.44-5.24,5.42-36.69-.21-73.37-.12-110.06-.12-24.03,0-48.05,0-72.08,0Z"/>
  <path class="cls-7" d="M134.65,721c16.87,0,33.75,.11,50.62-.09,3.65-.04,4.81,.96,4.64,4.62-.29,6.15-.22,12.33-.03,18.49,.1,3.08-.69,4.25-4.03,4.24-34.4-.11-68.79-.1-103.19,0-3.05,0-3.87-.94-3.78-3.89,.21-6.48,.26-12.98,0-19.46-.13-3.32,1.08-4.02,4.15-3.99,17.2,.13,34.4,.06,51.59,.06v.02Z"/>
  <path class="cls-8" d="M225.17,721.34c1.45-.11,2.89-.31,4.34-.31,72.57-.01,145.14,.04,217.71-.12,4.41,0,5.5,1.17,5.25,5.36-.36,6.15-.18,12.33-.04,18.5,.06,2.49-.7,3.42-3.29,3.4-19.15-.16-38.3-.2-57.44-.28-1.52-.62-3.04-.61-4.56,0-6.93,.44-13.86,.43-20.79-.03-1.51-.59-3.02-.58-4.54,0-1.41,0-2.83,0-4.24,0-3.78-.7-7.57-.71-11.35,0-5.83,.09-11.66,.26-17.5,.26-27.26,.03-54.52,.02-81.78,0-1.78,0-3.55-.17-5.33-.27-1.83-.63-3.66-.62-5.49-.01-.76,0-1.53,.01-2.29,.02-1.51-.6-3.03-.59-4.55,0-.75,0-1.5,.01-2.25,.02-.79-.76-1.58-1.53-2.36-2.29,0-1.35,0-2.69,0-4.04,.8-1.57,.79-3.13,0-4.7,0-1.68,0-3.37,0-5.05,.45-.59,.44-1.18,0-1.76,0-2.66-.01-5.31-.02-7.97,.25-.19,.42-.44,.52-.74Zm113.83,.83c-18.51,0-37.02,0-55.53,0-17.37,0-34.75,.07-52.12-.05-3.71-.02-5.4,1.18-5.2,5.05,.21,4.05,.04,8.12,.04,12.17q.01,7.18,7.34,7.2c70.14,0,140.28,0,210.42,0,.81,0,1.63-.06,2.43,0,3.49,.3,5.08-1.15,4.94-4.77-.17-4.38-.02-8.77-.04-13.15-.02-6.37-.09-6.45-6.61-6.45-35.23,0-70.46,0-105.7,0Z"/>
  <path class="cls-4" d="M346.21,747.88c3.78-.72,7.57-.71,11.35,0-3.78,.53-7.57,.52-11.35,0Z"/>
  <path class="cls-4" d="M236.12,747.86c1.83-.61,3.66-.62,5.49,.01-1.83,.48-3.66,.47-5.49-.01Z"/>
  <path class="cls-4" d="M224.68,736.86c.79,1.57,.8,3.13,0,4.7,0-1.57,0-3.13,0-4.7Z"/>
  <path class="cls-4" d="M224.68,745.6c.79,.76,1.58,1.53,2.36,2.29-2.26,.75-2.93-.13-2.36-2.29Z"/>
  <path class="cls-4" d="M361.81,747.88c1.51-.59,3.02-.59,4.54,0-1.51,.48-3.02,.48-4.54,0Z"/>
  <path class="cls-4" d="M387.14,747.9c1.52-.61,3.04-.62,4.56,0-1.52,.46-3.04,.46-4.56,0Z"/>
  <path class="cls-4" d="M229.28,747.87c1.52-.59,3.03-.6,4.55,0-1.52,.47-3.03,.47-4.55,0Z"/>
  <path class="cls-4" d="M224.67,730.05c.44,.59,.45,1.18,0,1.76,0-.59,0-1.18,0-1.76Z"/>
  <path class="cls-4" d="M225.17,721.34c-.1,.3-.28,.55-.52,.74-.25-.55-.06-.79,.52-.74Z"/>
  <path class="cls-7" d="M136.67,357.11c.71-14.68,7.71-29.33,21.86-40.1,5.26-4,11.16-7.24,17.01-10.37,5.98-3.2,13.12-1.81,17.47,2.8,3.73,3.95,4.52,9.83,2.02,14.9-1.75,3.55-4.98,5.45-8.16,7.4-5.38,3.3-11.19,6.09-15.21,11.17-6.98,8.83-8.87,18.54-4.4,29.13,1.07,2.54,2.47,4.93,3.5,7.48,2.87,7.07,.24,14.44-6.29,17.93-6.38,3.41-14.98,1.25-18.91-4.94-6.26-9.87-8.81-20.8-8.89-35.41Z"/>
  <path class="cls-1" d="M898.7,643.44c-10.99,6.52-21.36,12.7-31.77,18.82-5.3,3.11-10.68,6.08-16,9.16-2.1,1.21-3.47,1.65-3.45-1.72,.09-17.66,.06-35.32,.1-52.98,0-1.58-.25-3.73,2.54-2.07,15.95,9.47,31.92,18.92,48.57,28.79Z"/>
  <path class="cls-7" d="M339,722.17c35.23,0,70.46,0,105.7,0,6.52,0,6.58,.08,6.61,6.45,.02,4.38-.13,8.77,.04,13.15,.14,3.63-1.45,5.07-4.94,4.77-.81-.07-1.62,0-2.43,0-70.14,0-140.28,0-210.42,0q-7.33,0-7.34-7.2c0-4.06,.16-8.13-.04-12.17-.2-3.88,1.49-5.08,5.2-5.05,17.37,.12,34.74,.05,52.12,.05,18.51,0,37.02,0,55.53,0Z"/>
</svg>