<?xml version="1.0" encoding="UTF-8"?>
<svg id="Layer_1" data-name="Layer 1" xmlns="http://www.w3.org/2000/svg" viewBox="0 0 1000 1000">
  <defs>
    <style>
      .cls-1 {
        fill: #030101;
      }

      .cls-2 {
        fill: #f55803;
      }
    </style>
  </defs>
  <path class="cls-1" d="M501,999.91c-165.17,0-330.34-.01-495.52,.09-3.66,0-4.49-.82-4.48-4.49,.1-330.34,.1-660.69,0-991.03C1,.82,1.82,0,5.48,0c330.34,.1,660.69,.1,991.03,0,3.66,0,4.49,.82,4.48,4.48-.1,330.34-.1,660.69,0,991.03,0,3.66-.82,4.49-4.48,4.49-165.17-.11-330.34-.09-495.52-.09Zm-33.59-246.98c13.4-.05,22.81,.07,32.2-.82,9.37-.89,15.23-7.26,15.08-16.9-.13-8.79-6.29-14.99-15.42-15.3-4.36-.15-8.72,.43-13.07,.63-14.56,.68-29.09,.8-43.72-.57-23.76-2.23-46.65-7.51-68.8-16.16-50.3-19.64-91.68-51.07-123.27-94.88-36.4-50.5-53.08-107.03-50.43-169.3,1.21-28.39,6.75-55.81,16.91-82.34,11.85-30.95,28.86-58.83,51.05-83.34,24.25-26.78,52.9-47.77,85.96-62.63,38.92-17.5,79.59-25.58,122.31-23.85,19.2,.78,38.07,3.44,56.53,8.41,49.2,13.23,91.86,37.56,126.64,75.27,20.66,22.4,37.1,47.45,49.2,75.35,13.55,31.27,20.41,64.01,21.27,98.08,.56,22.02-1.45,43.7-7.01,65.03-.99,3.81-1.13,7.69,.65,11.42,2.87,6,7.69,9.29,14.25,9.22,6.82-.07,12.31-3.04,15.09-9.6,2.93-6.9,4.09-14.35,5.37-21.64,5.46-31.26,4.96-62.68,.36-93.94-5.02-34.09-16.05-66.25-32.76-96.53-15.51-28.1-34.5-53.36-58.09-75.14-21.36-19.71-45.17-35.97-71.25-48.67-43.87-21.37-90.16-31.43-139.15-30.16-34.4,.89-67.53,7.03-99.55,19.28-52.35,20.04-95.77,52.3-129.76,96.85-16.89,22.13-30.45,46.28-40.58,72.33-10.82,27.82-17.16,56.61-19.3,86.32-1.4,19.46-.61,38.88,1.65,58.29,3.22,27.68,9.87,54.46,20.63,80.12,17.95,42.76,44.82,79.32,79.21,110.23,27.66,24.86,59.13,43.82,94.06,56.73,34.73,12.83,70.58,19.4,103.73,18.18Zm325.1-155.2c-1.01,1.15-1.39,1.65-1.83,2.09-12.24,12.14-24.56,24.21-36.71,36.44-6.66,6.71-7.29,15.61-1.16,21.81,20.22,20.5,40.37,41.08,61.41,60.75,6.15,5.75,16.37,5.4,21.61-.2,6.59-7.06,6.47-15.59-.38-22.44-15.31-15.29-30.61-30.6-46.03-45.78-1.77-1.74-2.25-2.66-.18-4.43,2.47-2.11,4.66-4.54,6.97-6.83,13.73-13.65,27.52-27.24,41.16-40.98,4.57-4.6,6.08-10.29,3.85-16.52-2.12-5.92-6.28-9.41-12.7-10.49-23.28-3.9-46.53-7.96-69.77-12.05-33.75-5.93-67.48-11.95-101.22-17.93-25.95-4.59-51.9-9.13-77.84-13.77-13.85-2.47-27.73-4.82-41.49-7.73-8.97-1.9-21.09,7.35-18.96,18.72,4.56,24.29,8.26,48.74,12.42,73.1,6.29,36.79,12.73,73.55,19,110.34,5.99,35.19,11.82,70.41,17.75,105.62,.64,3.78,1.06,7.65,4.25,10.47,9.01,7.99,17.25,7.79,25.93-.89,15.41-15.41,30.83-30.8,46.04-46.4,3.11-3.19,4.81-3.56,8.18-.15,19.31,19.57,38.95,38.81,58.39,58.26,32.78,32.79,65.42,65.73,98.29,98.44,12.47,12.41,28.77,12.44,41.17,.12,32.55-32.34,65-64.78,97.28-97.39,10.42-10.52,11.8-27.67,.57-38.93-20.68-20.74-41.24-41.59-61.93-62.31-4.6-4.61-12.23-5.59-17.62-2.69-10.4,5.59-11.81,17.32-3.13,25.95,18.23,18.13,36.4,36.32,54.75,54.32,2.76,2.71,3.21,4.11,.19,7.09-29.32,28.89-58.5,57.93-87.6,87.04-2.39,2.39-3.63,2.5-6.03,.04-10.9-11.19-22-22.18-33.05-33.22-44.33-44.26-88.66-88.52-133.02-132.75-7.68-7.66-15.74-7.75-23.44-.17-12.18,11.98-24.25,24.07-36.32,36.16-1.65,1.66-3,3.62-4.48,5.44-.43-.28-.86-.57-1.29-.85-13.49-79.35-26.98-158.69-40.63-238.99,79.42,13.93,158.16,27.74,237.63,41.68ZM457.79,234.19c-14.51-.49-35.42,2.65-55.94,8.63-33.81,9.86-63.29,27.3-88.88,51.33-13.67,12.84-25.13,27.53-34.97,43.51-19.7,31.99-30.61,66.66-31.85,104.24-.81,24.57,1.91,48.76,8.91,72.42,7.55,25.5,19.58,48.84,35.35,70.02,14.18,19.04,30.93,35.78,50.52,49.54,17.1,12.01,35.41,21.65,55.11,28.43,29.81,10.26,60.56,13.47,91.95,10.68,7.14-.64,13.82-6.4,14.75-12.82,1.27-8.69-2.47-15.31-10.51-18.03-4.83-1.64-9.99-1.8-14.94-1.17-13.04,1.67-25.96,.42-38.74-1.62-25.44-4.05-48.99-13.26-70.74-27.19-18.52-11.85-34.72-26.23-48.08-43.62-30.43-39.59-45.01-84.04-40.55-134.27,1.58-17.72,5.52-34.86,12.17-51.29,14.14-34.94,37.07-62.95,68.14-84.22,23.24-15.91,48.92-25.84,76.75-30.01,24.78-3.71,49.39-2.79,73.82,3.14,31.93,7.76,59.96,22.59,83.7,45.35,18.6,17.83,33.04,38.6,43.12,62.34,8.95,21.08,13.61,43.12,14.46,65.98,.71,18.92-2.31,37.44-6.08,55.88-1.98,9.66,2.39,16.49,11.99,18.75,8.07,1.9,16.47-3.18,18.61-11.66,5.24-20.78,7.92-41.83,7.18-63.35-.89-25.98-5.31-51.14-15.05-75.3-13.94-34.57-35.14-64.03-64.18-87.26-40.52-32.4-87.09-48.42-146.01-48.45Zm-8.86,327.85c0,2.11-.03,4.23,0,6.34,.12,8.48,5.93,14.03,14.34,14.67,9.59,.73,16.73-7.18,16.61-14.07-.07-4.23,.19-8.46,.06-12.69-.08-2.67,.78-3.93,3.49-4.83,27.64-9.09,45.11-37.88,39.99-66.64-4.3-24.13-18.88-39.53-42.15-46.8-6.52-2.04-13.37-2.23-20.08-3.22-18.13-2.69-28.94-20.07-23.08-37.04,4.14-12,17.62-20.12,30.5-18.37,12.55,1.7,23.78,12.93,23.34,25.8-.1,2.9,.26,5.89,2.02,8.4,3.99,5.72,11.8,8.77,17.98,7.08,7.18-1.96,11.82-7.95,12.25-15.75,.24-4.42-.52-8.73-1.54-12.98-5-20.96-18.9-33.82-38.31-41.34-3.49-1.35-4.81-2.94-4.48-6.62,.35-3.87,.23-7.81,.07-11.7-.37-8.62-7.28-14.24-17.08-14.04-8.08,.16-13.79,5.98-13.91,14.27-.06,3.9-.25,7.83,.06,11.71,.28,3.6-.76,5.32-4.45,6.57-11.79,3.98-21.52,11.05-29.08,21.07-16.91,22.43-14.18,56.9,5.65,76.79,12.8,12.84,28.52,17.87,45.96,19.25,9.82,.77,23.57,9.22,25.04,23.35,1.22,11.69-2.95,20.89-12.44,27.19-9.49,6.3-19.77,6.77-29.84,.85-8.17-4.8-13.23-11.74-13.99-21.48-.32-4.05-1.02-8.02-4.11-11.14-5.09-5.14-11.25-5.59-17.56-3.51-6.73,2.23-9.9,7.35-9.92,14.52-.03,20.21,13.23,43.59,36.52,52.2,8.26,3.05,8.21,3.17,8.14,12.17Zm31.6-479.92h-.02c0-12.18,.34-24.38-.11-36.55-.34-9.17-5.27-14.3-17.81-14.93-7.28-.37-14.12,6.48-14.16,14.39-.12,24.04-.17,48.08,.04,72.12,.09,10.32,6.41,15.2,18.29,14.98,8.37-.16,13.73-6.12,13.76-15.41,.04-11.53,0-23.07,0-34.6Zm.03,744.72h-.03c0-11.38,.02-22.75,0-34.13-.03-10.06-5.88-15.75-16.12-15.75-10.29,0-15.97,5.56-16,15.83-.04,20.97-.04,41.93,.02,62.9,0,2.41,.35,4.84,.72,7.23,1.74,11.15,8.21,13.73,18.5,12.9,7.83-.63,12.87-6.54,12.9-15.34,.05-11.21,.01-22.43,.01-33.64ZM177.17,150.85c-7.69-.64-12.4,3.74-15.3,9.86-2.77,5.87-2.21,11.8,2.9,16.67,1.75,1.67,3.26,3.58,4.97,5.28,14.66,14.55,29.22,29.2,44.07,43.54,6.14,5.93,15.89,5.32,21.45-.62,7.07-7.55,7.26-15.98,.42-22.81-15.76-15.75-31.55-31.48-47.37-47.17-3.07-3.04-6.59-5.3-11.14-4.74Zm575.99-.03c-3.49-.35-6.85,.76-9.71,3.61-16.34,16.27-32.72,32.5-49.09,48.74-2.87,2.84-4.65,6.22-4.92,10.28-.4,6.03,3.78,12.45,9.91,15.41,5.84,2.81,12.17,1.93,16.98-2.83,16.26-16.11,32.42-32.34,48.62-48.52,4.82-4.82,6.22-10.99,3.82-16.78-2.71-6.53-7.88-9.91-15.62-9.9ZM175.47,758.1c5.21-.06,9.04-1.37,12.2-4.55,16.48-16.6,32.99-33.17,49.48-49.77,2.62-2.64,4.08-5.8,4.04-9.58-.06-6.22-3.88-11.94-10-14.18-6.49-2.38-12.82-2.1-18.05,3.05-15.74,15.5-31.42,31.07-47.09,46.65-1.14,1.13-2.19,2.42-3.02,3.8-3.01,5.05-3.82,10.36-.91,15.7,3.01,5.54,7.88,8.38,13.34,8.87ZM837.35,437.51v-.02c-11.21,0-22.42-.02-33.63,0-9.91,.03-15.59,5.74-15.66,15.68-.07,9.08,6.29,15.56,15.54,15.59,22.42,.07,44.84,.08,67.26,.04,10.58-.02,17.16-6.32,17.19-16.22,.03-9.07-6.7-15.04-17.07-15.07-11.21-.04-22.42,0-33.63,0Zm-745.59,0c-11.38,0-22.76,0-34.14,0-2.46,0-4.79,.21-7.03,1.49-6.87,3.9-9.56,10.74-7.42,19.3,1.55,6.22,7.56,10.48,15.06,10.49,22.28,.04,44.55,.05,66.83,.01,10.26-.02,17.06-6.4,17.06-15.84,0-9.74-6.28-15.41-17.19-15.44-11.06-.03-22.11,0-33.17,0Z"/>
  <path class="cls-2" d="M467.41,752.93c-33.14,1.22-69-5.35-103.73-18.18-34.93-12.91-66.4-31.87-94.06-56.73-34.38-30.9-61.26-67.47-79.21-110.23-10.77-25.65-17.41-52.44-20.63-80.12-2.26-19.41-3.05-38.82-1.65-58.29,2.14-29.71,8.48-58.5,19.3-86.32,10.13-26.05,23.69-50.2,40.58-72.33,33.99-44.55,77.41-76.82,129.76-96.85,32.02-12.25,65.15-18.39,99.55-19.28,48.99-1.27,95.28,8.8,139.15,30.16,26.08,12.7,49.88,28.95,71.25,48.67,23.6,21.77,42.58,47.04,58.09,75.14,16.72,30.28,27.74,62.44,32.76,96.53,4.61,31.25,5.1,62.68-.36,93.94-1.27,7.29-2.44,14.74-5.37,21.64-2.78,6.56-8.27,9.53-15.09,9.6-6.56,.07-11.38-3.22-14.25-9.22-1.79-3.73-1.64-7.61-.65-11.42,5.56-21.34,7.57-43.02,7.01-65.03-.86-34.07-7.72-66.81-21.27-98.08-12.1-27.9-28.54-52.95-49.2-75.35-34.78-37.71-77.44-62.04-126.64-75.27-18.47-4.96-37.33-7.63-56.53-8.41-42.72-1.73-83.39,6.35-122.31,23.85-33.06,14.86-61.72,35.85-85.96,62.63-22.19,24.51-39.2,52.39-51.05,83.34-10.16,26.52-15.7,53.95-16.91,82.34-2.65,62.27,14.02,118.8,50.43,169.3,31.59,43.82,72.97,75.25,123.27,94.88,22.15,8.65,45.04,13.93,68.8,16.16,14.62,1.37,29.15,1.26,43.72,.57,4.35-.2,8.71-.78,13.07-.63,9.13,.32,15.29,6.51,15.42,15.3,.14,9.64-5.71,16.02-15.08,16.9-9.4,.89-18.8,.77-32.2,.82Z"/>
  <path class="cls-2" d="M792.52,597.73c-79.46-13.94-158.21-27.75-237.63-41.68,13.65,80.3,27.14,159.64,40.63,238.99,.43,.28,.86,.57,1.29,.85,1.49-1.82,2.83-3.79,4.48-5.44,12.07-12.1,24.14-24.18,36.32-36.16,7.7-7.58,15.76-7.49,23.44,.17,44.35,44.23,88.69,88.49,133.02,132.75,11.05,11.04,22.15,22.03,33.05,33.22,2.4,2.46,3.64,2.35,6.03-.04,29.11-29.11,58.28-58.15,87.6-87.04,3.02-2.98,2.57-4.38-.19-7.09-18.35-18-36.52-36.19-54.75-54.32-8.68-8.63-7.26-20.36,3.13-25.95,5.39-2.9,13.02-1.92,17.62,2.69,20.69,20.72,41.25,41.58,61.93,62.31,11.23,11.26,9.85,28.41-.57,38.93-32.28,32.61-64.73,65.05-97.28,97.39-12.4,12.33-28.7,12.3-41.17-.12-32.87-32.71-65.51-65.65-98.29-98.44-19.44-19.44-39.08-38.69-58.39-58.26-3.37-3.41-5.08-3.04-8.18,.15-15.21,15.6-30.63,30.99-46.04,46.4-8.68,8.68-16.93,8.87-25.93,.89-3.18-2.82-3.61-6.69-4.25-10.47-5.93-35.2-11.76-70.42-17.75-105.62-6.26-36.79-12.71-73.55-19-110.34-4.16-24.36-7.86-48.81-12.42-73.1-2.14-11.37,9.98-20.62,18.96-18.72,13.76,2.91,27.64,5.26,41.49,7.73,25.94,4.63,51.89,9.17,77.84,13.77,33.74,5.97,67.47,11.99,101.22,17.93,23.24,4.09,46.5,8.14,69.77,12.05,6.42,1.08,10.58,4.57,12.7,10.49,2.23,6.23,.72,11.92-3.85,16.52-13.64,13.74-27.43,27.33-41.16,40.98-2.31,2.29-4.5,4.73-6.97,6.83-2.07,1.76-1.58,2.69,.18,4.43,15.42,15.18,30.72,30.49,46.03,45.78,6.86,6.85,6.98,15.38,.38,22.44-5.23,5.6-15.46,5.95-21.61,.2-21.04-19.67-41.18-40.25-61.41-60.75-6.12-6.21-5.5-15.11,1.16-21.81,12.15-12.23,24.47-24.3,36.71-36.44,.44-.44,.82-.93,1.83-2.09Z"/>
  <path class="cls-2" d="M457.79,234.19c58.92,.02,105.5,16.05,146.01,48.45,29.04,23.22,50.24,52.69,64.18,87.26,9.74,24.15,14.16,49.32,15.05,75.3,.74,21.53-1.94,42.57-7.18,63.35-2.14,8.47-10.54,13.56-18.61,11.66-9.6-2.26-13.97-9.08-11.99-18.75,3.77-18.44,6.79-36.95,6.08-55.88-.85-22.86-5.51-44.9-14.46-65.98-10.08-23.74-24.52-44.51-43.12-62.34-23.74-22.76-51.77-37.59-83.7-45.35-24.43-5.94-49.04-6.85-73.82-3.14-27.84,4.16-53.51,14.1-76.75,30.01-31.07,21.27-54,49.28-68.14,84.22-6.65,16.42-10.59,33.56-12.17,51.29-4.47,50.23,10.12,94.69,40.55,134.27,13.36,17.38,29.56,31.76,48.08,43.62,21.76,13.93,45.3,23.14,70.74,27.19,12.78,2.03,25.7,3.28,38.74,1.62,4.96-.63,10.11-.47,14.94,1.17,8.04,2.72,11.78,9.35,10.51,18.03-.94,6.42-7.61,12.19-14.75,12.82-31.39,2.79-62.14-.42-91.95-10.68-19.7-6.78-38.01-16.41-55.11-28.43-19.58-13.76-36.33-30.5-50.52-49.54-15.78-21.18-27.81-44.52-35.35-70.02-7-23.66-9.72-47.85-8.91-72.42,1.23-37.57,12.15-72.25,31.85-104.24,9.84-15.98,21.31-30.68,34.97-43.51,25.58-24.03,55.07-41.48,88.88-51.33,20.52-5.98,41.44-9.13,55.94-8.63Z"/>
  <path class="cls-2" d="M448.93,562.04c.08-9,.12-9.12-8.14-12.17-23.29-8.61-36.56-31.99-36.52-52.2,.01-7.17,3.19-12.29,9.92-14.52,6.3-2.09,12.46-1.63,17.56,3.51,3.09,3.12,3.8,7.09,4.11,11.14,.76,9.75,5.82,16.68,13.99,21.48,10.07,5.92,20.35,5.45,29.84-.85,9.49-6.3,13.66-15.5,12.44-27.19-1.47-14.13-15.22-22.57-25.04-23.35-17.44-1.37-33.16-6.41-45.96-19.25-19.83-19.89-22.56-54.36-5.65-76.79,7.55-10.01,17.28-17.09,29.08-21.07,3.69-1.25,4.74-2.97,4.45-6.57-.3-3.88-.12-7.8-.06-11.71,.13-8.29,5.83-14.11,13.91-14.27,9.8-.19,16.71,5.42,17.08,14.04,.17,3.9,.28,7.83-.07,11.7-.33,3.68,.99,5.27,4.48,6.62,19.41,7.53,33.31,20.38,38.31,41.34,1.01,4.25,1.78,8.56,1.54,12.98-.43,7.8-5.07,13.8-12.25,15.75-6.18,1.68-13.99-1.37-17.98-7.08-1.75-2.52-2.12-5.51-2.02-8.4,.43-12.86-10.79-24.09-23.34-25.8-12.88-1.75-26.35,6.38-30.5,18.37-5.86,16.97,4.96,34.35,23.08,37.04,6.71,.99,13.56,1.18,20.08,3.22,23.27,7.27,37.85,22.68,42.15,46.8,5.12,28.76-12.35,57.55-39.99,66.64-2.71,.89-3.57,2.15-3.49,4.83,.13,4.22-.13,8.46-.06,12.69,.11,6.89-7.03,14.8-16.61,14.07-8.42-.64-14.23-6.19-14.34-14.67-.03-2.11,0-4.23,0-6.34Z"/>
  <path class="cls-2" d="M480.53,82.12c0,11.53,.03,23.07,0,34.6-.03,9.3-5.39,15.26-13.76,15.41-11.88,.23-18.2-4.66-18.29-14.98-.22-24.04-.16-48.08-.04-72.12,.04-7.91,6.88-14.76,14.16-14.39,12.54,.63,17.48,5.77,17.81,14.93,.45,12.17,.11,24.36,.11,36.55h.02Z"/>
  <path class="cls-2" d="M480.56,826.83c0,11.21,.04,22.43-.01,33.64-.04,8.8-5.08,14.71-12.9,15.34-10.28,.83-16.75-1.75-18.5-12.9-.37-2.39-.71-4.82-.72-7.23-.06-20.97-.06-41.93-.02-62.9,.02-10.27,5.71-15.84,16-15.83,10.24,0,16.09,5.69,16.12,15.75,.03,11.38,0,22.75,0,34.13h.03Z"/>
  <path class="cls-2" d="M177.17,150.85c4.56-.57,8.08,1.7,11.14,4.74,15.82,15.69,31.61,31.42,47.37,47.17,6.84,6.84,6.65,15.26-.42,22.81-5.56,5.94-15.31,6.55-21.45,.62-14.86-14.34-29.41-28.99-44.07-43.54-1.72-1.7-3.23-3.62-4.97-5.28-5.11-4.86-5.67-10.79-2.9-16.67,2.89-6.12,7.61-10.5,15.3-9.86Z"/>
  <path class="cls-2" d="M753.16,150.82c7.74,0,12.91,3.37,15.62,9.9,2.4,5.79,1,11.96-3.82,16.78-16.19,16.18-32.35,32.41-48.62,48.52-4.81,4.77-11.14,5.65-16.98,2.83-6.13-2.95-10.31-9.38-9.91-15.41,.27-4.05,2.05-7.43,4.92-10.28,16.37-16.24,32.75-32.47,49.09-48.74,2.86-2.85,6.21-3.96,9.71-3.61Z"/>
  <path class="cls-2" d="M175.47,758.1c-5.46-.49-10.33-3.33-13.34-8.87-2.9-5.34-2.09-10.65,.91-15.7,.82-1.38,1.87-2.67,3.02-3.8,15.67-15.58,31.34-31.15,47.09-46.65,5.23-5.15,11.56-5.43,18.05-3.05,6.12,2.24,9.93,7.95,10,14.18,.04,3.78-1.42,6.94-4.04,9.58-16.49,16.59-33,33.17-49.48,49.77-3.15,3.18-6.99,4.49-12.2,4.55Z"/>
  <path class="cls-2" d="M837.35,437.51c11.21,0,22.42-.03,33.63,0,10.36,.03,17.09,6.01,17.07,15.07-.03,9.9-6.6,16.2-17.19,16.22-22.42,.05-44.84,.03-67.26-.04-9.25-.03-15.61-6.51-15.54-15.59,.08-9.95,5.75-15.66,15.66-15.68,11.21-.03,22.42,0,33.63,0v.02Z"/>
  <path class="cls-2" d="M91.76,437.5c11.06,0,22.11-.03,33.17,0,10.91,.03,17.18,5.7,17.19,15.44,0,9.44-6.8,15.82-17.06,15.84-22.28,.04-44.55,.03-66.83-.01-7.51-.01-13.51-4.27-15.06-10.49-2.14-8.56,.55-15.39,7.42-19.3,2.24-1.27,4.57-1.49,7.03-1.49,11.38,.02,22.76,0,34.14,0Z"/>
</svg>